<?xml version="1.0" encoding="UTF-8"?>
<svg id="Layer_1" xmlns="http://www.w3.org/2000/svg" version="1.1" viewBox="0 0 270 270">
  <!-- Generator: Adobe Illustrator 29.5.1, SVG Export Plug-In . SVG Version: 2.1.0 Build 141)  -->
  <defs>
    <style>
      .st0 {
        fill: #348bcb;
      }

      .st1 {
        fill: #fff;
      }
    </style>
  </defs>
  <rect class="st0" width="270" height="270" rx="22.67" ry="22.67"/>
  <g>
    <rect class="st1" x="206.79" y="121.17" width="28.5" height="128.83"/>
    <rect class="st1" x="149.43" y="164.58" width="28.5" height="85.42"/>
    <rect class="st1" x="92.07" y="198.29" width="28.5" height="51.71"/>
    <rect class="st1" x="34.71" y="198.29" width="28.5" height="51.71"/>
  </g>
  <path class="st1" d="M226.33,35.29h0c-5.57-5.57-14.59-5.57-20.16,0l-106.4,106.4-35.94-35.94c-5.57-5.57-14.59-5.57-20.16,0h0c-5.57,5.57-5.57,14.59,0,20.16l45.16,45.16c.26.31.53.62.82.91,2.79,2.79,6.46,4.18,10.12,4.17,3.66.01,7.33-1.38,10.12-4.17h0c.29-.29.56-.6.82-.91l115.61-115.61c5.57-5.57,5.57-14.59,0-20.16Z"/>
</svg>