<?xml version="1.0" encoding="UTF-8"?>
<svg id="Layer_1" xmlns="http://www.w3.org/2000/svg" version="1.1" viewBox="0 0 898.77 270">
  <!-- Generator: Adobe Illustrator 29.5.1, SVG Export Plug-In . SVG Version: 2.1.0 Build 141)  -->
  <defs>
    <style>
      .st0 {
        fill: #358dcc;
      }

      .st1 {
        fill: #fff;
      }

      .st2 {
        fill: #102c4d;
      }
    </style>
  </defs>
  <g>
    <path class="st2" d="M329.59,171.25c-5.69,0-10.72-1.24-15.08-3.71-4.36-2.48-7.78-5.89-10.26-10.25-2.48-4.36-3.71-9.39-3.71-15.08s1.24-10.72,3.71-15.08c2.48-4.36,5.88-7.78,10.2-10.25,4.32-2.48,9.29-3.71,14.91-3.71s10.42,1.31,14.86,3.94c4.43,2.62,7.72,6.38,9.87,11.25l-11.53,4.43c-1.18-2.44-2.99-4.4-5.43-5.88-2.44-1.48-5.21-2.22-8.31-2.22s-5.73.76-8.09,2.27c-2.37,1.52-4.21,3.59-5.54,6.21-1.33,2.62-2,5.64-2,9.04s.68,6.41,2.05,9.04c1.37,2.62,3.25,4.7,5.65,6.21,2.4,1.52,5.12,2.27,8.15,2.27s5.88-.79,8.31-2.38c2.44-1.59,4.25-3.75,5.43-6.49l11.53,4.43c-2.14,5.03-5.42,8.94-9.81,11.75-4.4,2.81-9.37,4.21-14.91,4.21Z"/>
    <path class="st2" d="M389.45,171.25c-5.62,0-10.57-1.24-14.86-3.71-4.29-2.48-7.65-5.89-10.09-10.25-2.44-4.36-3.66-9.39-3.66-15.08s1.2-10.72,3.6-15.08c2.4-4.36,5.75-7.78,10.03-10.25,4.29-2.48,9.16-3.71,14.63-3.71s10.57,1.24,14.86,3.71c4.29,2.48,7.63,5.9,10.03,10.25,2.4,4.36,3.6,9.39,3.6,15.08s-1.2,10.72-3.6,15.08c-2.4,4.36-5.73,7.78-9.98,10.25-4.25,2.48-9.11,3.71-14.58,3.71ZM389.45,159.83c3.1,0,5.82-.76,8.15-2.27,2.33-1.51,4.16-3.58,5.49-6.21,1.33-2.62,2-5.67,2-9.15s-.67-6.52-2-9.15c-1.33-2.62-3.2-4.69-5.6-6.21-2.4-1.51-5.16-2.27-8.26-2.27s-5.84.76-8.2,2.27c-2.37,1.52-4.21,3.59-5.54,6.21-1.33,2.62-2,5.67-2,9.15s.68,6.52,2.05,9.15c1.37,2.62,3.25,4.69,5.65,6.21,2.4,1.52,5.16,2.27,8.26,2.27Z"/>
    <path class="st2" d="M428.37,169.92v-55.43h11.64l.55,7.87c1.77-2.96,4.08-5.23,6.93-6.82,2.84-1.59,6.11-2.38,9.81-2.38,4.43,0,8.22.89,11.36,2.66,3.14,1.77,5.54,4.53,7.21,8.26,1.66,3.73,2.5,8.59,2.5,14.58v31.26h-12.42v-28.38c0-4.43-.5-7.85-1.5-10.26-1-2.4-2.4-4.08-4.21-5.04-1.81-.96-3.94-1.44-6.38-1.44-4.14-.07-7.35,1.29-9.65,4.1-2.29,2.81-3.44,6.84-3.44,12.08v28.94h-12.42Z"/>
    <path class="st2" d="M512.96,171.25c-5.84,0-10.29-1.46-13.36-4.38-3.07-2.92-4.6-7.11-4.6-12.58v-29.16h-9.2v-10.64h9.2v-17.3h12.31v17.3h14.97v10.64h-14.97v26.83c0,2.59.61,4.55,1.83,5.88,1.22,1.33,3.01,2,5.38,2,.74,0,1.55-.15,2.44-.44.89-.29,1.88-.85,2.99-1.66l4.55,9.42c-1.92,1.33-3.84,2.35-5.77,3.05-1.92.7-3.84,1.05-5.76,1.05Z"/>
    <path class="st2" d="M534.46,169.92v-55.43h12.42v10.09c2.22-3.47,5.1-6.06,8.65-7.76,3.55-1.7,7.21-2.55,10.98-2.55v11.86c-3.4,0-6.6.46-9.59,1.39-2.99.93-5.42,2.42-7.26,4.49-1.85,2.07-2.77,4.81-2.77,8.2v29.71h-12.42Z"/>
    <path class="st2" d="M592.56,171.25c-6.65,0-11.81-1.48-15.47-4.43-3.66-2.96-5.49-7.13-5.49-12.53,0-5.76,1.94-10.16,5.82-13.19,3.88-3.03,9.29-4.55,16.24-4.55h14.08c-.44-4.06-1.59-7.17-3.44-9.31-1.85-2.14-4.58-3.22-8.2-3.22-2.66,0-4.99.55-6.98,1.66-2,1.11-3.7,2.85-5.1,5.21l-10.86-3.99c1.18-2.44,2.75-4.71,4.71-6.82,1.96-2.11,4.43-3.79,7.43-5.04,2.99-1.26,6.6-1.88,10.81-1.88,5.39,0,9.9,1.05,13.53,3.16,3.62,2.11,6.3,5.12,8.04,9.04,1.74,3.92,2.61,8.65,2.61,14.19l-.33,30.38h-11.42l-.33-6.76c-1.48,2.59-3.53,4.58-6.15,5.99-2.62,1.4-5.78,2.11-9.48,2.11ZM594.11,160.83c2.73,0,5.16-.61,7.26-1.83s3.73-2.86,4.88-4.93c1.14-2.07,1.72-4.36,1.72-6.87v-1.11h-10.31c-4.95,0-8.43.68-10.42,2.05-2,1.37-2.99,3.31-2.99,5.82,0,2.14.87,3.82,2.61,5.04,1.74,1.22,4.16,1.83,7.26,1.83Z"/>
    <path class="st2" d="M672.27,192.1v-30.38c-1.85,2.96-4.27,5.29-7.26,6.98s-6.41,2.55-10.26,2.55c-5.03,0-9.41-1.2-13.14-3.6-3.73-2.4-6.65-5.78-8.76-10.14-2.11-4.36-3.16-9.46-3.16-15.3s1.05-11.03,3.16-15.36,5.03-7.69,8.76-10.09c3.73-2.4,8.11-3.6,13.14-3.6,3.92,0,7.37.87,10.37,2.61,2.99,1.74,5.45,4.16,7.37,7.26l.44-8.54h11.75v77.61h-12.42ZM657.86,159.94c2.81,0,5.3-.76,7.48-2.27,2.18-1.51,3.88-3.6,5.1-6.26,1.22-2.66,1.83-5.73,1.83-9.2s-.61-6.54-1.83-9.2c-1.22-2.66-2.92-4.73-5.1-6.21-2.18-1.48-4.71-2.22-7.59-2.22s-5.58.74-7.87,2.22c-2.29,1.48-4.08,3.55-5.38,6.21-1.29,2.66-1.98,5.73-2.05,9.2.07,3.47.76,6.54,2.05,9.2,1.29,2.66,3.1,4.75,5.43,6.26,2.33,1.52,4.97,2.27,7.93,2.27Z"/>
    <path class="st2" d="M723.71,171.25c-5.69,0-10.72-1.24-15.08-3.71-4.36-2.48-7.78-5.89-10.26-10.25-2.48-4.36-3.71-9.39-3.71-15.08s1.24-10.72,3.71-15.08c2.48-4.36,5.88-7.78,10.2-10.25,4.32-2.48,9.29-3.71,14.91-3.71s10.42,1.31,14.86,3.94c4.43,2.62,7.72,6.38,9.87,11.25l-11.53,4.43c-1.18-2.44-2.99-4.4-5.43-5.88-2.44-1.48-5.21-2.22-8.31-2.22s-5.73.76-8.09,2.27c-2.37,1.52-4.21,3.59-5.54,6.21-1.33,2.62-2,5.64-2,9.04s.68,6.41,2.05,9.04c1.37,2.62,3.25,4.7,5.65,6.21,2.4,1.52,5.12,2.27,8.15,2.27s5.88-.79,8.31-2.38c2.44-1.59,4.25-3.75,5.43-6.49l11.53,4.43c-2.14,5.03-5.42,8.94-9.81,11.75-4.4,2.81-9.37,4.21-14.91,4.21Z"/>
    <path class="st2" d="M780.14,171.25c-5.84,0-10.29-1.46-13.36-4.38-3.07-2.92-4.6-7.11-4.6-12.58v-29.16h-9.2v-10.64h9.2v-17.3h12.31v17.3h14.97v10.64h-14.97v26.83c0,2.59.61,4.55,1.83,5.88,1.22,1.33,3.01,2,5.38,2,.74,0,1.55-.15,2.44-.44.89-.29,1.88-.85,2.99-1.66l4.55,9.42c-1.92,1.33-3.84,2.35-5.77,3.05-1.92.7-3.84,1.05-5.76,1.05Z"/>
    <path class="st2" d="M826.48,171.25c-5.62,0-10.57-1.24-14.86-3.71-4.29-2.48-7.65-5.89-10.09-10.25-2.44-4.36-3.66-9.39-3.66-15.08s1.2-10.72,3.6-15.08c2.4-4.36,5.75-7.78,10.03-10.25,4.29-2.48,9.16-3.71,14.63-3.71s10.57,1.24,14.86,3.71c4.29,2.48,7.63,5.9,10.03,10.25,2.4,4.36,3.6,9.39,3.6,15.08s-1.2,10.72-3.6,15.08c-2.4,4.36-5.73,7.78-9.98,10.25-4.25,2.48-9.11,3.71-14.58,3.71ZM826.48,159.83c3.1,0,5.82-.76,8.15-2.27,2.33-1.51,4.16-3.58,5.49-6.21,1.33-2.62,2-5.67,2-9.15s-.67-6.52-2-9.15c-1.33-2.62-3.2-4.69-5.6-6.21-2.4-1.51-5.16-2.27-8.26-2.27s-5.84.76-8.2,2.27c-2.37,1.52-4.21,3.59-5.54,6.21-1.33,2.62-2,5.67-2,9.15s.68,6.52,2.05,9.15c1.37,2.62,3.25,4.69,5.65,6.21,2.4,1.52,5.16,2.27,8.26,2.27Z"/>
    <path class="st2" d="M865.4,169.92v-55.43h12.42v10.09c2.22-3.47,5.1-6.06,8.65-7.76,3.55-1.7,7.21-2.55,10.98-2.55v11.86c-3.4,0-6.6.46-9.59,1.39-2.99.93-5.42,2.42-7.26,4.49-1.85,2.07-2.77,4.81-2.77,8.2v29.71h-12.42Z"/>
  </g>
  <rect class="st0" width="270" height="270" rx="22.67" ry="22.67"/>
  <g>
    <rect class="st1" x="206.79" y="121.17" width="28.5" height="128.83"/>
    <rect class="st1" x="149.43" y="164.58" width="28.5" height="85.42"/>
    <rect class="st1" x="92.07" y="198.29" width="28.5" height="51.71"/>
    <rect class="st1" x="34.71" y="198.29" width="28.5" height="51.71"/>
  </g>
  <path class="st1" d="M226.33,35.29h0c-5.57-5.57-14.59-5.57-20.16,0l-106.4,106.4-35.94-35.94c-5.57-5.57-14.59-5.57-20.16,0h0c-5.57,5.57-5.57,14.59,0,20.16l45.16,45.16c.26.31.53.62.82.91,2.79,2.79,6.46,4.18,10.12,4.17,3.66.01,7.33-1.38,10.12-4.17h0c.29-.29.56-.6.82-.91l115.61-115.61c5.57-5.57,5.57-14.59,0-20.16Z"/>
</svg>