<?xml version="1.0" encoding="utf-8"?>
<!-- Generator: Adobe Illustrator 24.0.2, SVG Export Plug-In . SVG Version: 6.00 Build 0)  -->
<svg version="1.1" id="Layer_1" xmlns="http://www.w3.org/2000/svg" xmlns:xlink="http://www.w3.org/1999/xlink" x="0px" y="0px"
	 viewBox="0 0 200 200" style="enable-background:new 0 0 200 200;" xml:space="preserve">
<style type="text/css">
	.st0{display:none;fill:#FFFFFF;}
</style>
<g>
	<path class="st0" d="M199.9,100c0,32.1-0.1,64.3,0.1,96.4c0,3-0.6,3.6-3.6,3.6c-64.3-0.1-128.6-0.1-192.8,0c-3,0-3.6-0.6-3.6-3.6
		C0.1,132.1,0.1,67.9,0,3.6C0,0.6,0.6,0,3.6,0c64.3,0.1,128.6,0.1,192.8,0c3,0,3.6,0.6,3.6,3.6C199.9,35.7,199.9,67.9,199.9,100z
		 M83,144c3.5,5,6.1,9.8,3.4,15.7c-0.2,0.5-0.1,1.4,0.2,1.9c3.5,6,3.7,12.4,2.6,19c0,0.2,0,0.3,0.1,0.5c1.1,2.5-0.4,2.7-2.3,2.9
		c-8.3,1.1-16.6,1.4-24.9,1.8c-10.8,0.5-19.2-3.3-24.4-13c-1.2-2.2-2.9-3.6-5.6-3.6c-5.8,0-11.7,0-17.5,0c-3,0-5.3,1.4-5.3,4.7
		c0,3.3,2.4,4.5,5.4,4.6c4,0.1,8,0.1,12,0c2.4-0.1,3.9,0.7,5.4,2.7c6.6,9.4,15.8,13.6,27.3,13.7c19.8,0.3,39.2-4.3,59.1-3.4
		c8.6,0.4,14.2-9.3,11.5-17.7c-0.8-2.4-1.1-4.1,0.7-6.3c3.1-3.7,3.3-8.3,1.7-12.8c-0.6-1.7-0.7-2.9,0.6-4.5
		c4.8-6.2,4.8-11.4,0.4-17.8c-0.9-1.3-1.5-2.2-1.1-4c3.1-12-2.7-19.5-15.1-19.5c-8.7-0.1-17.3-0.3-26,0.1c-4.7,0.2-5.1-1.2-3.9-5.2
		c2.7-9.1,3.3-18.4,0.7-27.6c-2.1-7.3-9.8-12.7-16.5-12.2c-6.2,0.5-10.2,4.4-11.3,13.1c-1.8,13.8-7.6,24.9-18.6,33.5
		c-2.3,1.8-4.5,4-6.5,6.2c-3.3,3.7-7.3,5.6-12.4,5c-3-0.3-6-0.1-9,0c-2.7,0.1-4.5,1.7-4.5,4.4C9.3,129.3,11,131,14,131
		c5.2,0,10.3,0.1,15.5-0.1c2.9-0.1,5.6-1.2,7.8-3.1c15.3-13.3,30.7-26.5,32.3-48.9c0.1-1.7-0.2-4.4,2.5-4.9c2.8-0.4,4.7,1.3,6.2,3.4
		c1.2,1.7,1.5,3.6,1.7,5.6c1,9.5-1.2,18.5-4.3,27.4c-2.1,5.8-0.5,8,5.7,8.2c0.8,0,1.7,0,2.5,0c2-0.1,2.9,0.3,2.4,2.8
		c-2.5,11.8-12.3,20.2-24.4,20.4c-3.5,0-6.4,0.8-6.3,4.6c0,3.7,3,4.7,6.4,4.7C69.7,151,76.6,148.4,83,144z M129.7,5.2
		c-1.7,0-3.3-0.1-5,0c-2.2,0.2-4.3,0.4-6.4,0.9c-24.3,5.4-40.3,20-47.7,43.9c-0.4,1.3-1.4,2.9,0.2,4.1c3,2.1,8.2,0.1,9.4-3.6
		c8.1-25.4,34.6-40.7,60.3-34.9c23.6,5.4,39.6,24.3,41.1,49c1.4,21.8-12.9,42.8-34.6,50.9c-3.6,1.3-5.3,4.8-3.4,9
		c1.4,3.1,4,0.5,5.8-0.1c28.7-9.8,45.5-38.3,40.6-68.6C185.2,27.1,159.2,5.2,129.7,5.2z M164,58.2c0-3.7-2.2-6.5-7.3-6.3
		c-11.2,0.4-18-4.2-20.6-15.1c-0.7-3.1-2.9-5.4-6.3-5.5c-3.7-0.1-5.9,2.4-6.7,5.6c-2.7,10.6-9.2,15.7-20.2,15
		c-3.4-0.2-6.3,1-7.5,4.5c-1.2,3.6,0.6,6.3,3.4,8.1c9.2,5.9,12.1,13.5,7.7,23.9c-1.2,2.8-0.9,6,1.9,8.1c2.8,2.1,5.8,1.7,8.3-0.4
		c8.7-7.4,17.2-7.4,25.8,0c2.4,2.1,5.5,2.5,8.3,0.5c3-2,3.4-5.2,2.1-8c-4.8-10.8-1.7-18.9,8.1-25C162.8,62.5,164.1,60.6,164,58.2z"
		/>
	<path d="M83,144c-6.4,4.5-13.3,7.1-21.1,7.1c-3.4,0-6.4-1-6.4-4.7c0-3.8,2.9-4.5,6.3-4.6c12.2-0.1,21.9-8.6,24.4-20.4
		c0.5-2.5-0.3-2.9-2.4-2.8c-0.8,0-1.7,0-2.5,0c-6.2-0.2-7.8-2.4-5.7-8.2c3.1-8.9,5.4-17.8,4.3-27.4c-0.2-2-0.5-4-1.7-5.6
		c-1.5-2.1-3.5-3.8-6.2-3.4c-2.7,0.4-2.4,3.1-2.5,4.9c-1.7,22.4-17,35.6-32.3,48.9c-2.2,1.9-4.9,3-7.8,3.1
		c-5.2,0.2-10.3,0.2-15.5,0.1c-3,0-4.8-1.8-4.7-4.7c0.1-2.6,1.8-4.3,4.5-4.4c3-0.1,6-0.3,9,0c5.1,0.6,9-1.3,12.4-5
		c2-2.2,4.2-4.4,6.5-6.2c10.9-8.6,16.8-19.7,18.6-33.5c1.1-8.7,5.1-12.6,11.3-13.1c6.7-0.5,14.4,4.9,16.5,12.2
		c2.6,9.2,1.9,18.5-0.7,27.6c-1.2,4-0.8,5.4,3.9,5.2c8.6-0.4,17.3-0.2,26-0.1c12.4,0.1,18.2,7.5,15.1,19.5c-0.5,1.8,0.2,2.7,1.1,4
		c4.4,6.3,4.4,11.6-0.4,17.8c-1.2,1.6-1.2,2.8-0.6,4.5c1.6,4.5,1.4,9-1.7,12.8c-1.8,2.2-1.5,3.9-0.7,6.3c2.8,8.4-2.8,18.1-11.5,17.7
		c-19.9-0.9-39.3,3.7-59.1,3.4c-11.5-0.1-20.7-4.3-27.3-13.7c-1.4-2-3-2.8-5.4-2.7c-4,0.1-8,0.1-12,0c-3,0-5.4-1.3-5.4-4.6
		c0-3.3,2.3-4.6,5.3-4.7c5.8-0.1,11.7,0,17.5,0c2.6,0,4.3,1.3,5.6,3.6c5.3,9.7,13.6,13.5,24.4,13c8.3-0.4,16.6-0.8,24.9-1.8
		c1.9-0.2,3.4-0.5,2.3-2.9c-0.1-0.1-0.1-0.3-0.1-0.5c1.1-6.6,0.9-13-2.6-19c-0.3-0.5-0.4-1.4-0.2-1.9C89.1,153.8,86.5,149,83,144z
		 M109.7,145.8c4.2,0,8.3,0.1,12.5,0c2.8-0.1,4.9-1.3,5-4.4c0.1-3.4-2-4.7-5.1-4.7c-8,0-16,0-24,0c-3.1,0-5.3,1.2-5.3,4.6
		c0.1,3.4,2.4,4.5,5.4,4.6C102,145.9,105.9,145.8,109.7,145.8z M109.9,164C109.9,164,109.9,164,109.9,164c3.1,0,6.3,0,9.4,0
		c2.9,0,4.8-1.4,4.8-4.5c0-3-1.8-4.6-4.7-4.6c-6.3-0.1-12.6-0.1-18.9,0c-2.9,0-4.7,1.7-4.6,4.7c0.1,2.8,1.8,4.2,4.5,4.3
		C103.6,164.1,106.8,164,109.9,164z M109.6,127.2c3.3,0,6.6,0.1,9.9,0c2.7-0.1,4.4-1.5,4.5-4.3c0.1-2.6-1.5-4.3-3.8-4.4
		c-6.8-0.2-13.6-0.3-20.4,0c-2.6,0.1-4.2,2-4,4.8c0.2,2.5,1.9,3.8,4.3,3.9C103.3,127.3,106.4,127.2,109.6,127.2z M110.3,173.7
		c-2.5,0-5-0.1-7.5,0c-2.5,0.1-4.1,1.5-4.3,4c-0.2,2.4,1.1,4.4,3.6,4.6c5.3,0.6,10.6,0.6,15.9,0c2.4-0.3,3.8-2.3,3.7-4.6
		c-0.2-2.4-1.9-3.9-4.4-3.9C115,173.6,112.6,173.7,110.3,173.7z"/>
	<path d="M129.7,5.2c29.5,0,55.5,21.9,60.1,50.5c4.9,30.3-11.9,58.8-40.6,68.6c-1.8,0.6-4.4,3.2-5.8,0.1c-1.9-4.2-0.2-7.6,3.4-9
		c21.7-8,36-29,34.6-50.9C179.9,40,164,21,140.3,15.6c-25.6-5.8-52.1,9.5-60.3,34.9c-1.2,3.7-6.4,5.8-9.4,3.6
		c-1.6-1.1-0.6-2.8-0.2-4.1C78,26.2,93.9,11.6,118.3,6.2c2.1-0.5,4.3-0.7,6.4-0.9C126.3,5.1,128,5.2,129.7,5.2z"/>
	<path d="M164,58.2c0.1,2.4-1.2,4.3-3,5.4c-9.7,6.1-12.9,14.1-8.1,25c1.3,2.9,0.9,6-2.1,8c-2.9,2-5.9,1.5-8.3-0.5
		c-8.7-7.4-17.2-7.4-25.8,0c-2.4,2.1-5.5,2.5-8.3,0.4c-2.8-2.1-3.1-5.3-1.9-8.1c4.4-10.3,1.4-18-7.7-23.9c-2.8-1.8-4.6-4.5-3.4-8.1
		c1.2-3.5,4.2-4.7,7.5-4.5c11,0.7,17.5-4.3,20.2-15c0.8-3.3,3-5.7,6.7-5.6c3.4,0.1,5.6,2.4,6.3,5.5c2.6,10.9,9.4,15.5,20.6,15.1
		C161.8,51.7,164,54.4,164,58.2z M108.2,59.6c3.8,5.2,9,7,10.3,11.6c1.3,4.3-2.1,8.8-1.2,14.6c8.3-8.5,16.5-8.1,24.6-0.1
		c0.6-5.8-2.6-10.2-1.3-14.8c1.3-4.6,7.1-6,9.4-11.4c-11.9,2.3-17.6-3.8-20.7-14.3C126.8,56.4,120.5,61.6,108.2,59.6z"/>
	<path class="st0" d="M109.7,145.8c-3.8,0-7.7,0-11.5,0c-3,0-5.3-1.2-5.4-4.6c-0.1-3.4,2.2-4.6,5.3-4.6c8,0,16,0,24,0
		c3.1,0,5.2,1.4,5.1,4.7c-0.1,3.1-2.2,4.3-5,4.4C118,145.9,113.8,145.8,109.7,145.8z"/>
	<path class="st0" d="M109.9,164c-3.1,0-6.3,0.1-9.4,0c-2.7-0.1-4.4-1.5-4.5-4.3c-0.1-3,1.7-4.7,4.6-4.7c6.3-0.1,12.6-0.1,18.9,0
		c2.9,0,4.7,1.6,4.7,4.6c0,3-1.9,4.4-4.8,4.5C116.2,164.1,113.1,164,109.9,164C109.9,164,109.9,164,109.9,164z"/>
	<path class="st0" d="M109.6,127.2c-3.1,0-6.3,0.1-9.4,0c-2.4-0.1-4.1-1.4-4.3-3.9c-0.2-2.8,1.4-4.7,4-4.8c6.8-0.2,13.6-0.2,20.4,0
		c2.4,0.1,3.9,1.8,3.8,4.4c-0.1,2.8-1.8,4.2-4.5,4.3C116.2,127.3,112.9,127.2,109.6,127.2z"/>
	<path class="st0" d="M110.3,173.7c2.3,0,4.7-0.1,7,0c2.5,0.1,4.2,1.5,4.4,3.9c0.2,2.4-1.2,4.4-3.7,4.6c-5.3,0.6-10.6,0.6-15.9,0
		c-2.5-0.3-3.8-2.2-3.6-4.6c0.2-2.5,1.8-3.9,4.3-4C105.3,173.6,107.8,173.7,110.3,173.7z"/>
	<path class="st0" d="M108.2,59.6c12.3,2,18.6-3.2,21.2-14.4c3.1,10.6,8.8,16.7,20.7,14.3c-2.3,5.4-8.1,6.8-9.4,11.4
		c-1.3,4.5,1.9,8.9,1.3,14.8c-8.2-8-16.3-8.5-24.6,0.1c-0.9-5.8,2.5-10.3,1.2-14.6C117.2,66.7,112,64.9,108.2,59.6z"/>
</g>
</svg>
