<svg version="1.2" xmlns="http://www.w3.org/2000/svg" viewBox="0 0 1024 1024" width="1536" height="1024">
	<title>New Project</title>
	<style>
		.s0 { fill: #be2511 } 
		.s1 { fill: #141414;stroke: #000000;stroke-linejoin: round;stroke-width: 24 } 
		.s2 { fill: #141414;stroke: #cab49c;stroke-linejoin: round;stroke-width: 46 } 
		.s3 { fill: #56210f } 
		.s4 { fill: #56210f;stroke: #be2511;stroke-linejoin: round;stroke-width: 32 } 
		.s5 { fill: #00ff00 } 
	</style>
	<g id="PC">
		<path id="Chassis" fill-rule="evenodd" class="s0" d="m316 0h391c71.8 0 130 58.2 130 130v764c0 71.8-58.2 130-130 130h-391c-71.8 0-130-58.2-130-130v-764c0-71.8 58.2-130 130-130z"/>
		<path id="Screen" fill-rule="evenodd" class="s1" d="m309 79.79h406c25.41 0 46 20.59 46 46v349.42c0 25.41-20.59 46-46 46h-406c-25.41 0-46-20.59-46-46v-349.42c0-25.41 20.59-46 46-46z"/>
		<path id="Keyboard" fill-rule="evenodd" class="s2" d="m309.43 451.86h406c25.4 0 38.62 23.04 30.07 49.73l-38.39 119.83c-5.71 17.83-25.62 31.58-44.75 31.58h-305.72c-19.13 0-38.64-13.75-43.84-31.58l-34.89-119.83c-7.77-26.69 6.11-49.73 31.52-49.73z"/>
	</g>
	<g id="Ball">
		<path id="Ball" fill-rule="evenodd" class="s3" d="m512 992c-77.42 0-140-62.58-140-140 0-77.42 62.58-140 140-140 77.42 0 140 62.58 140 140 0 77.42-62.58 140-140 140z"/>
		<path id="Cut" fill-rule="evenodd" class="s4" d="m308 851.86h417z"/>
		<path id="Button" fill-rule="evenodd" class="s4" d="m512.25 906.5c-30 0-54.25-24.25-54.25-54.25 0-30 24.25-54.25 54.25-54.25 30 0 54.25 24.25 54.25 54.25 0 30-24.25 54.25-54.25 54.25z"/>
	</g>
	<g id="Greentext">
		<path id="Text layer 12" class="s5" aria-label="$ pokemanager --hello

++++++++[&gt;++++
[&gt;++&gt;+++&gt;+++&gt;+&lt;&lt;&lt;&lt;-]
&gt;+&gt;+&gt;-&gt;&gt;+[&lt;]&lt;-]
&gt;&gt;.&gt;---.+++++++..+++.
&gt;&gt;.&lt;-.&lt;.
+++.------.--------.
&gt;&gt;+.&gt;++."  d="m316 136.6c0-2.2-1.2-3.7-4.5-4.4l-1.8-0.4c-1.4-0.3-2-0.7-2-1.5 0-1 1.1-1.7 2.7-1.7 3 0 1.9 2.1 3.6 2.1 0.7 0 1.4-0.3 1.4-1.7v-0.9c0-1-0.4-1.8-1.4-1.8-0.2 0-0.4 0.1-0.7 0.2l-0.6-0.2c-0.7-0.2-0.7-0.2-1.2-0.3v-0.7c0-1.4-0.6-1.8-1.3-1.8-0.8 0-1.4 0.4-1.4 1.8v0.7c-2.3 0.4-3.9 2.1-3.9 4.3 0 2.1 1.4 3.6 4.1 4.1l2 0.4c1.5 0.3 2.2 0.9 2.2 1.8 0 1.2-1.3 2.1-3.1 2.1-1.5 0-2.9-0.7-3.1-1.6-0.4-1.1-0.8-1.3-1.4-1.3-0.7 0-1.4 0.4-1.4 1.8v1.7c0 1.4 0.6 1.8 1.4 1.8 0.4 0 0.6-0.1 1.1-0.5 0.8 0.4 1 0.4 2.1 0.7v2.2c0 1.4 0.6 1.8 1.4 1.8 0.6 0 1.3-0.3 1.3-1.8v-2.2c2.8-0.6 4.5-2.3 4.5-4.7zm33.4-0.6c0-3.5-2.8-6.1-6.6-6.1-1.6 0-2.8 0.4-4.1 1.5v-1.2h-3.1c-1.4 0-1.8 0.6-1.8 1.4 0 0.7 0.3 1.3 1.8 1.3h0.4v11.9h-0.4c-1.4 0-1.8 0.6-1.8 1.4 0 0.8 0.4 1.3 1.8 1.3h4.7c1.4 0 1.7-0.6 1.7-1.3 0-0.7-0.3-1.4-1.7-1.4h-1.6v-3.9c1.4 1 2.6 1.5 4.2 1.5 3.7 0 6.5-3.1 6.5-6.4zm-2.7 0.1c0 1.9-1.7 3.6-4 3.6-2.4 0-4-1.7-4-3.6 0-1.8 1.6-3.5 4-3.5 2.4 0 4 1.7 4 3.5zm19.4 0c0-3.4-3.1-6.2-6.9-6.2-4 0-7.1 2.7-7.1 6.2 0 3.6 3.1 6.3 7 6.3 3.9 0 7-2.7 7-6.3zm-2.7 0c0 2.1-1.9 3.6-4.3 3.6-2.4 0-4.3-1.5-4.3-3.6 0-2 1.9-3.5 4.4-3.5 2.3 0 4.2 1.5 4.2 3.5zm19 4.6c0-0.8-0.3-1.4-1.8-1.4h-0.9l-4.3-3.8 3.2-2.6h0.7c1.4 0 1.8-0.6 1.8-1.3 0-0.8-0.3-1.4-1.8-1.4h-3c-1.4 0-1.8 0.6-1.8 1.4 0 0.3 0.1 0.6 0.4 1l-2.1 1.7v-9.1h-3.1c-1.4 0-1.8 0.5-1.8 1.3 0 0.7 0.3 1.4 1.8 1.4h0.4v11.4h-0.4c-1.4 0-1.8 0.6-1.8 1.4 0 0.8 0.6 1.3 1.8 1.3h3.1v-4.4l0.5-0.4 2.8 2.5c-0.4 0.3-0.5 0.6-0.5 1 0 0.8 0.6 1.3 1.8 1.3h3.2c1.4 0 1.8-0.6 1.8-1.3zm15.5-0.5c0-0.8-0.6-1.4-1.3-1.4-0.3 0-0.6 0.1-0.9 0.2-2.5 0.6-3.2 0.7-4.4 0.7-2.4 0-3.8-0.7-4.5-2.3h11.1v-1.1c0-3.7-3-6.4-7-6.4-4 0-7 2.7-7 6.3 0 3.6 2.9 6.2 7.1 6.2 3.1 0 6.9-0.7 6.9-2.2zm-3-5.2h-8c0.4-1.5 2-2.4 4-2.4 2 0 3.5 0.9 4 2.4zm20.9 5.7c0-0.9-0.6-1.4-1.6-1.4v-5.9c0-2-1.5-3.5-3.5-3.5-1.1 0-2 0.4-2.8 1.3-0.9-0.9-1.7-1.3-2.8-1.3-0.8 0-1.3 0.2-2.3 0.9v-0.6h-2.5c-1.1 0-1.8 0.4-1.8 1.4 0 0.8 0.6 1.3 1.6 1.3v6.4c-1 0-1.6 0.5-1.6 1.4 0 0.7 0.4 1.3 1.8 1.3h2.4c1.3 0 1.8-0.6 1.8-1.3 0-0.9-0.6-1.4-1.7-1.4v-5.5c0.8-1 1.3-1.2 2.1-1.2 0.6 0 0.9 0.2 0.9 1v8.4h2.5c1.4 0 1.8-0.6 1.8-1.3 0-0.9-0.6-1.4-1.6-1.4v-5.5c0.9-1 1.4-1.2 2.1-1.2 0.7 0 0.9 0.2 0.9 1v8.4h2.5c1.2 0 1.8-0.5 1.8-1.3zm14.6 0c0-0.8-0.3-1.4-1.8-1.4h-0.4v-5.5c0-2.5-2-4-5.3-4-1.4 0-3.4 0.4-4.7 0.9-0.5 0.1-0.8 0.5-0.8 1.1 0 0.8 0.6 1.4 1.4 1.4 0.2 0 0.6-0.1 1-0.2 1.3-0.3 2.3-0.5 3.2-0.5 1.7 0 2.5 0.5 2.5 1.4v0.6c-1.1-0.2-2-0.3-2.8-0.3-3.6 0-6.6 1.9-6.6 4.6 0 2 2.2 3.6 4.9 3.6 1.6 0 3.2-0.3 4.5-1v0.6h3.1c1.4 0 1.8-0.6 1.8-1.3zm-4.9-2.3c-1.5 0.9-3 1.3-4.5 1.3-1.1 0-2-0.4-2-1 0-1 1.7-2 3.5-2 0.9 0 1.9 0.1 3 0.3zm21.9 2.3c0-0.9-0.6-1.4-1.6-1.4v-4.9c0-2.8-2.1-4.5-4.8-4.5-1.5 0-2.4 0.4-3.7 1.6v-1.2h-2.6c-1.1 0-1.8 0.4-1.8 1.3 0 0.9 0.6 1.3 1.7 1.4v6.3h-0.2c-1.4 0-1.8 0.6-1.8 1.4 0 0.8 0.5 1.4 1.8 1.4h3c1.4 0 1.8-0.6 1.8-1.4 0-0.7-0.3-1.4-1.8-1.4h-0.1v-4.9c1.2-1.3 2.1-1.8 3.3-1.8 1.7 0 2.5 0.6 2.5 1.9v4.8c-1.1 0-1.7 0.5-1.7 1.4 0 0.9 0.6 1.4 1.8 1.4h2.4c1.4 0 1.8-0.6 1.8-1.4zm16 0c0-0.7-0.3-1.4-1.8-1.4h-0.4v-5.4c0-2.5-2-4-5.3-4-1.4 0-3.4 0.4-4.7 0.8-0.5 0.2-0.8 0.6-0.8 1.1 0 0.8 0.6 1.4 1.4 1.4 0.2 0 0.6 0 1-0.1 1.3-0.4 2.3-0.5 3.2-0.5 1.7 0 2.5 0.4 2.5 1.3v0.6c-1.1-0.1-2-0.2-2.8-0.2-3.6 0-6.6 1.9-6.6 4.5 0 2 2.2 3.7 4.9 3.7 1.6 0 3.2-0.4 4.5-1.1v0.7h3.1c1.4 0 1.8-0.6 1.8-1.4zm-4.9-2.3c-1.5 0.9-3 1.4-4.5 1.4-1.1 0-2-0.5-2-1.1 0-1 1.7-1.9 3.5-1.9 0.9 0 1.9 0.1 3 0.3zm21.5-6.8c0-0.8-0.3-1.4-1.8-1.4h-3.1v1c-1.1-0.9-2.4-1.4-3.8-1.4-3.7 0-6.4 2.7-6.4 6.3 0 3.6 2.7 6.3 6.4 6.3 1.4 0 2.5-0.4 3.8-1.3v1.4c0 1.4-1 2.3-2.6 2.3h-2.9c-1.4 0-1.8 0.6-1.8 1.4 0 0.7 0.4 1.3 1.8 1.3h3c3 0 5.2-2.1 5.2-5v-9.6h0.4c1.4 0 1.8-0.6 1.8-1.3zm-4.9 4.5c0 2-1.7 3.6-3.8 3.6-2 0-3.7-1.6-3.7-3.6 0-2 1.7-3.6 3.7-3.6 2.1 0 3.8 1.6 3.8 3.6zm19.8 4.1c0-0.8-0.6-1.4-1.3-1.4-0.3 0-0.6 0.1-0.9 0.2-2.5 0.6-3.2 0.7-4.4 0.7-2.4 0-3.8-0.7-4.5-2.3h11.1v-1.1c0-3.7-3-6.4-7-6.4-4 0-7 2.7-7 6.3 0 3.6 2.9 6.2 7.1 6.2 3.1 0 6.9-0.7 6.9-2.2zm-3-5.2h-8c0.4-1.5 2-2.4 4-2.4 2 0 3.5 0.9 4 2.4zm19.5-2.8c0-1.3-2.1-2.3-3.4-2.3-1.3 0-2.3 0.4-4.5 2.1v-1.8h-3.6c-1.4 0-1.8 0.6-1.8 1.4 0 0.7 0.4 1.3 1.8 1.3h0.9v6.4h-1.6c-1.4 0-1.7 0.6-1.7 1.4 0 0.7 0.4 1.3 1.7 1.3h8.1c1.4 0 1.8-0.6 1.8-1.3 0-0.8-0.4-1.4-1.8-1.4h-3.8v-4c2.6-2.1 3.6-2.7 4.5-2.7 0.6 0 1.4 0.9 2.1 0.9 0.7 0 1.3-0.6 1.3-1.3zm32.7 2.3c0-0.8-0.4-1.4-1.8-1.4h-10.4c-1.4 0-1.8 0.6-1.8 1.4 0 0.7 0.4 1.3 1.8 1.3h10.4c1.4 0 1.8-0.6 1.8-1.3zm16 0c0-0.8-0.4-1.4-1.8-1.4h-10.4c-1.4 0-1.8 0.6-1.8 1.4 0 0.7 0.4 1.3 1.8 1.3h10.4c1.4 0 1.8-0.6 1.8-1.3zm16.6 6.1c0-0.7-0.3-1.3-1.8-1.3h-0.2v-5c0-2.7-1.9-4.4-4.7-4.4-1.4 0-2.7 0.5-3.7 1.6v-6.3h-3.2c-1.4 0-1.7 0.5-1.7 1.3 0 0.7 0.3 1.4 1.7 1.4h0.5v11.4h-0.2c-1.4 0-1.8 0.6-1.8 1.3 0 0.8 0.4 1.4 1.8 1.4h3c1.4 0 1.8-0.6 1.8-1.4 0-0.7-0.3-1.3-1.8-1.3h-0.1v-4.9c1.5-1.5 2.1-1.8 3.4-1.8 1.5 0 2.3 0.4 2.3 2.1v4.6h-0.1c-1.5 0-1.8 0.6-1.8 1.3 0 0.8 0.3 1.4 1.8 1.4h3c1.4 0 1.8-0.6 1.8-1.4zm15.2-0.4c0-0.8-0.6-1.4-1.3-1.4-0.3 0-0.6 0.1-0.9 0.2-2.5 0.6-3.2 0.7-4.4 0.7-2.4 0-3.8-0.7-4.5-2.3h11.1v-1.1c0-3.7-3-6.4-7-6.4-4 0-7 2.7-7 6.3 0 3.6 2.9 6.2 7.1 6.2 3.1 0 6.9-0.7 6.9-2.2zm-3-5.2h-8c0.4-1.5 2-2.4 4-2.4 2 0 3.5 0.9 4 2.4zm19.6 5.6c0-0.7-0.3-1.3-1.8-1.3h-3.2v-14.1h-4.9c-1.4 0-1.8 0.5-1.8 1.3 0 0.7 0.4 1.4 1.8 1.4h2.2v11.4h-3.3c-1.5 0-1.8 0.6-1.8 1.3 0 0.8 0.4 1.4 1.8 1.4h9.2c1.4 0 1.8-0.6 1.8-1.4zm16 0c0-0.7-0.3-1.3-1.8-1.3h-3.2v-14.1h-4.9c-1.4 0-1.8 0.5-1.8 1.3 0 0.7 0.4 1.4 1.8 1.4h2.2v11.4h-3.3c-1.5 0-1.8 0.6-1.8 1.3 0 0.8 0.4 1.4 1.8 1.4h9.2c1.4 0 1.8-0.6 1.8-1.4zm16.6-4.5c0-3.4-3.1-6.2-6.9-6.2-4 0-7.1 2.7-7.1 6.2 0 3.6 3.1 6.3 7 6.3 3.9 0 7-2.7 7-6.3zm-2.7 0c0 2.1-1.9 3.6-4.3 3.6-2.4 0-4.3-1.5-4.3-3.6 0-2 1.9-3.5 4.4-3.5 2.3 0 4.2 1.5 4.2 3.5zm-320.6 64.2c0-0.8-0.6-1.4-1.4-1.4h-4.9v-5c0-0.8-0.6-1.3-1.4-1.3-0.8 0-1.3 0.5-1.3 1.3v5h-5c-0.8 0-1.4 0.6-1.4 1.4 0 0.7 0.6 1.3 1.4 1.3h5v5c0 0.8 0.5 1.3 1.3 1.3 0.8 0 1.4-0.5 1.4-1.3v-5h4.9c0.8 0 1.4-0.6 1.4-1.3zm16 0c0-0.8-0.6-1.4-1.4-1.4h-4.9v-5c0-0.8-0.6-1.3-1.4-1.3-0.8 0-1.3 0.5-1.3 1.3v5h-5c-0.8 0-1.4 0.6-1.4 1.4 0 0.7 0.6 1.3 1.4 1.3h5v5c0 0.8 0.5 1.3 1.3 1.3 0.8 0 1.4-0.5 1.4-1.3v-5h4.9c0.8 0 1.4-0.6 1.4-1.3zm16 0c0-0.8-0.6-1.4-1.4-1.4h-4.9v-5c0-0.8-0.6-1.3-1.4-1.3-0.8 0-1.3 0.5-1.3 1.3v5h-5c-0.8 0-1.4 0.6-1.4 1.4 0 0.7 0.6 1.3 1.4 1.3h5v5c0 0.8 0.5 1.3 1.3 1.3 0.8 0 1.4-0.5 1.4-1.3v-5h4.9c0.8 0 1.4-0.6 1.4-1.3zm17 0c0-0.8-0.6-1.4-1.4-1.4h-4.9v-5c0-0.8-0.6-1.3-1.4-1.3-0.8 0-1.3 0.5-1.3 1.3v5h-5c-0.8 0-1.4 0.6-1.4 1.4 0 0.7 0.6 1.3 1.4 1.3h5v5c0 0.8 0.5 1.3 1.3 1.3 0.8 0 1.4-0.5 1.4-1.3v-5h4.9c0.8 0 1.4-0.6 1.4-1.3zm16 0c0-0.8-0.6-1.4-1.4-1.4h-4.9v-5c0-0.8-0.6-1.3-1.4-1.3-0.8 0-1.3 0.5-1.3 1.3v5h-5c-0.8 0-1.4 0.6-1.4 1.4 0 0.7 0.6 1.3 1.4 1.3h5v5c0 0.8 0.5 1.3 1.3 1.3 0.8 0 1.4-0.5 1.4-1.3v-5h4.9c0.8 0 1.4-0.6 1.4-1.3zm16 0c0-0.8-0.6-1.4-1.4-1.4h-4.9v-5c0-0.8-0.6-1.3-1.4-1.3-0.8 0-1.3 0.5-1.3 1.3v5h-5c-0.8 0-1.4 0.6-1.4 1.4 0 0.7 0.6 1.3 1.4 1.3h5v5c0 0.8 0.5 1.3 1.3 1.3 0.8 0 1.4-0.5 1.4-1.3v-5h4.9c0.8 0 1.4-0.6 1.4-1.3zm16 0c0-0.8-0.6-1.4-1.4-1.4h-4.9v-5c0-0.8-0.6-1.3-1.4-1.3-0.8 0-1.3 0.5-1.3 1.3v5h-5c-0.8 0-1.4 0.6-1.4 1.4 0 0.7 0.6 1.3 1.4 1.3h5v5c0 0.8 0.5 1.3 1.3 1.3 0.8 0 1.4-0.5 1.4-1.3v-5h4.9c0.8 0 1.4-0.6 1.4-1.3zm16 0c0-0.8-0.6-1.4-1.4-1.4h-4.9v-5c0-0.8-0.6-1.3-1.4-1.3-0.8 0-1.3 0.5-1.3 1.3v5h-5c-0.8 0-1.4 0.6-1.4 1.4 0 0.7 0.6 1.3 1.4 1.3h5v5c0 0.8 0.5 1.3 1.3 1.3 0.8 0 1.4-0.5 1.4-1.3v-5h4.9c0.8 0 1.4-0.6 1.4-1.3zm14 9.3c0-0.7-0.3-1.3-1.8-1.3h-1.5v-15.5h1.5c1.4 0 1.8-0.6 1.8-1.4 0-0.7-0.3-1.3-1.8-1.3h-4.2v20.9h4.2c1.4 0 1.8-0.6 1.8-1.4zm17.2-9.3c0-0.6-0.2-1-0.7-1.2l-9.1-5.1c-0.2-0.1-0.4-0.1-0.7-0.1-0.7 0-1.3 0.5-1.3 1.3 0 0.5 0.2 0.9 0.7 1.2l7 3.9-7 3.8c-0.5 0.3-0.7 0.7-0.7 1.2 0 0.8 0.6 1.3 1.3 1.3 0.3 0 0.5 0 0.7-0.1l9.1-5.1c0.5-0.2 0.7-0.6 0.7-1.1zm17.8 0c0-0.8-0.6-1.4-1.4-1.4h-4.9v-5c0-0.8-0.6-1.3-1.4-1.3-0.8 0-1.3 0.5-1.3 1.3v5h-5c-0.8 0-1.4 0.6-1.4 1.4 0 0.7 0.6 1.3 1.4 1.3h5v5c0 0.8 0.5 1.3 1.3 1.3 0.8 0 1.4-0.5 1.4-1.3v-5h4.9c0.8 0 1.4-0.6 1.4-1.3zm16 0c0-0.8-0.6-1.4-1.4-1.4h-4.9v-5c0-0.8-0.6-1.3-1.4-1.3-0.8 0-1.3 0.5-1.3 1.3v5h-5c-0.8 0-1.4 0.6-1.4 1.4 0 0.7 0.6 1.3 1.4 1.3h5v5c0 0.8 0.5 1.3 1.3 1.3 0.8 0 1.4-0.5 1.4-1.3v-5h4.9c0.8 0 1.4-0.6 1.4-1.3zm16 0c0-0.8-0.6-1.4-1.4-1.4h-4.9v-5c0-0.8-0.6-1.3-1.4-1.3-0.8 0-1.3 0.5-1.3 1.3v5h-5c-0.8 0-1.4 0.6-1.4 1.4 0 0.7 0.6 1.3 1.4 1.3h5v5c0 0.8 0.5 1.3 1.3 1.3 0.8 0 1.4-0.5 1.4-1.3v-5h4.9c0.8 0 1.4-0.6 1.4-1.3zm17 0c0-0.8-0.6-1.4-1.4-1.4h-4.9v-5c0-0.8-0.6-1.3-1.4-1.3-0.8 0-1.3 0.5-1.3 1.3v5h-5c-0.8 0-1.4 0.6-1.4 1.4 0 0.7 0.6 1.3 1.4 1.3h5v5c0 0.8 0.5 1.3 1.3 1.3 0.8 0 1.4-0.5 1.4-1.3v-5h4.9c0.8 0 1.4-0.6 1.4-1.3zm-214 41.3c0-0.7-0.3-1.3-1.8-1.3h-1.5v-15.5h1.5c1.4 0 1.8-0.6 1.8-1.4 0-0.7-0.3-1.3-1.8-1.3h-4.2v20.9h4.2c1.4 0 1.8-0.6 1.8-1.4zm17.2-9.3c0-0.6-0.2-1-0.7-1.2l-9.1-5.1c-0.2-0.1-0.4-0.1-0.7-0.1-0.7 0-1.3 0.5-1.3 1.3 0 0.5 0.2 0.9 0.7 1.2l7 3.9-7 3.8c-0.5 0.3-0.7 0.7-0.7 1.2 0 0.8 0.6 1.3 1.3 1.3 0.3 0 0.5 0 0.7-0.1l9.1-5.1c0.5-0.2 0.7-0.6 0.7-1.1zm17.8 0c0-0.8-0.6-1.4-1.4-1.4h-4.9v-5c0-0.8-0.6-1.3-1.4-1.3-0.8 0-1.3 0.5-1.3 1.3v5h-5c-0.8 0-1.4 0.6-1.4 1.4 0 0.7 0.6 1.3 1.4 1.3h5v5c0 0.8 0.5 1.3 1.3 1.3 0.8 0 1.4-0.5 1.4-1.3v-5h4.9c0.8 0 1.4-0.6 1.4-1.3zm17 0c0-0.8-0.6-1.4-1.4-1.4h-4.9v-5c0-0.8-0.6-1.3-1.4-1.3-0.8 0-1.3 0.5-1.3 1.3v5h-5c-0.8 0-1.4 0.6-1.4 1.4 0 0.7 0.6 1.3 1.4 1.3h5v5c0 0.8 0.5 1.3 1.3 1.3 0.8 0 1.4-0.5 1.4-1.3v-5h4.9c0.8 0 1.4-0.6 1.4-1.3zm14.2 0c0-0.6-0.2-1-0.7-1.2l-9.1-5.1c-0.2-0.1-0.4-0.1-0.7-0.1-0.7 0-1.3 0.5-1.3 1.3 0 0.5 0.2 0.9 0.7 1.2l7 3.9-7 3.8c-0.5 0.3-0.7 0.7-0.7 1.2 0 0.8 0.6 1.3 1.3 1.3 0.3 0 0.5 0 0.7-0.1l9.1-5.1c0.5-0.2 0.7-0.6 0.7-1.1zm17.8 0c0-0.8-0.6-1.4-1.4-1.4h-4.9v-5c0-0.8-0.6-1.3-1.4-1.3-0.8 0-1.3 0.5-1.3 1.3v5h-5c-0.8 0-1.4 0.6-1.4 1.4 0 0.7 0.6 1.3 1.4 1.3h5v5c0 0.8 0.5 1.3 1.3 1.3 0.8 0 1.4-0.5 1.4-1.3v-5h4.9c0.8 0 1.4-0.6 1.4-1.3zm16 0c0-0.8-0.6-1.4-1.4-1.4h-4.9v-5c0-0.8-0.6-1.3-1.4-1.3-0.8 0-1.3 0.5-1.3 1.3v5h-5c-0.8 0-1.4 0.6-1.4 1.4 0 0.7 0.6 1.3 1.4 1.3h5v5c0 0.8 0.5 1.3 1.3 1.3 0.8 0 1.4-0.5 1.4-1.3v-5h4.9c0.8 0 1.4-0.6 1.4-1.3zm16 0c0-0.8-0.6-1.4-1.4-1.4h-4.9v-5c0-0.8-0.6-1.3-1.4-1.3-0.8 0-1.3 0.5-1.3 1.3v5h-5c-0.8 0-1.4 0.6-1.4 1.4 0 0.7 0.6 1.3 1.4 1.3h5v5c0 0.8 0.5 1.3 1.3 1.3 0.8 0 1.4-0.5 1.4-1.3v-5h4.9c0.8 0 1.4-0.6 1.4-1.3zm15.2 0c0-0.6-0.2-1-0.7-1.2l-9.1-5.1c-0.2-0.1-0.4-0.1-0.7-0.1-0.7 0-1.3 0.5-1.3 1.3 0 0.5 0.2 0.9 0.7 1.2l7 3.9-7 3.8c-0.5 0.3-0.7 0.7-0.7 1.2 0 0.8 0.6 1.3 1.3 1.3 0.3 0 0.5 0 0.7-0.1l9.1-5.1c0.5-0.2 0.7-0.6 0.7-1.1zm17.8 0c0-0.8-0.6-1.4-1.4-1.4h-4.9v-5c0-0.8-0.6-1.3-1.4-1.3-0.8 0-1.3 0.5-1.3 1.3v5h-5c-0.8 0-1.4 0.6-1.4 1.4 0 0.7 0.6 1.3 1.4 1.3h5v5c0 0.8 0.5 1.3 1.3 1.3 0.8 0 1.4-0.5 1.4-1.3v-5h4.9c0.8 0 1.4-0.6 1.4-1.3zm16 0c0-0.8-0.6-1.4-1.4-1.4h-4.9v-5c0-0.8-0.6-1.3-1.4-1.3-0.8 0-1.3 0.5-1.3 1.3v5h-5c-0.8 0-1.4 0.6-1.4 1.4 0 0.7 0.6 1.3 1.4 1.3h5v5c0 0.8 0.5 1.3 1.3 1.3 0.8 0 1.4-0.5 1.4-1.3v-5h4.9c0.8 0 1.4-0.6 1.4-1.3zm16 0c0-0.8-0.6-1.4-1.4-1.4h-4.9v-5c0-0.8-0.6-1.3-1.4-1.3-0.8 0-1.3 0.5-1.3 1.3v5h-5c-0.8 0-1.4 0.6-1.4 1.4 0 0.7 0.6 1.3 1.4 1.3h5v5c0 0.8 0.5 1.3 1.3 1.3 0.8 0 1.4-0.5 1.4-1.3v-5h4.9c0.8 0 1.4-0.6 1.4-1.3zm14.2 0c0-0.6-0.2-1-0.7-1.2l-9.1-5.1c-0.2-0.1-0.4-0.1-0.7-0.1-0.7 0-1.3 0.5-1.3 1.3 0 0.5 0.2 0.9 0.7 1.2l7 3.9-7 3.8c-0.5 0.3-0.7 0.7-0.7 1.2 0 0.8 0.6 1.3 1.3 1.3 0.3 0 0.5 0 0.7-0.1l9.1-5.1c0.5-0.2 0.7-0.6 0.7-1.1zm18.8 0c0-0.8-0.6-1.4-1.4-1.4h-4.9v-5c0-0.8-0.6-1.3-1.4-1.3-0.8 0-1.3 0.5-1.3 1.3v5h-5c-0.8 0-1.4 0.6-1.4 1.4 0 0.7 0.6 1.3 1.4 1.3h5v5c0 0.8 0.5 1.3 1.3 1.3 0.8 0 1.4-0.5 1.4-1.3v-5h4.9c0.8 0 1.4-0.6 1.4-1.3zm14.2 5c0-0.5-0.2-0.9-0.7-1.2l-7-3.8 7-3.9c0.5-0.3 0.7-0.7 0.7-1.2 0-0.8-0.6-1.3-1.3-1.3-0.3 0-0.5 0-0.7 0.1l-9.1 5.1c-0.5 0.2-0.7 0.6-0.7 1.2 0 0.5 0.2 0.9 0.7 1.1l9.1 5.1c0.2 0.1 0.4 0.1 0.7 0.1 0.7 0 1.3-0.5 1.3-1.3zm16 0c0-0.5-0.2-0.9-0.7-1.2l-7-3.8 7-3.9c0.5-0.3 0.7-0.7 0.7-1.2 0-0.8-0.6-1.3-1.3-1.3-0.3 0-0.5 0-0.7 0.1l-9.1 5.1c-0.5 0.2-0.7 0.6-0.7 1.2 0 0.5 0.2 0.9 0.7 1.1l9.1 5.1c0.2 0.1 0.4 0.1 0.7 0.1 0.7 0 1.3-0.5 1.3-1.3zm16 0c0-0.5-0.2-0.9-0.7-1.2l-7-3.8 7-3.9c0.5-0.3 0.7-0.7 0.7-1.2 0-0.8-0.6-1.3-1.3-1.3-0.3 0-0.5 0-0.7 0.1l-9.1 5.1c-0.5 0.2-0.7 0.6-0.7 1.2 0 0.5 0.2 0.9 0.7 1.1l9.1 5.1c0.2 0.1 0.4 0.1 0.7 0.1 0.7 0 1.3-0.5 1.3-1.3zm16 0c0-0.5-0.2-0.9-0.7-1.2l-7-3.8 7-3.9c0.5-0.3 0.7-0.7 0.7-1.2 0-0.8-0.6-1.3-1.3-1.3-0.3 0-0.5 0-0.7 0.1l-9.1 5.1c-0.5 0.2-0.7 0.6-0.7 1.2 0 0.5 0.2 0.9 0.7 1.1l9.1 5.1c0.2 0.1 0.4 0.1 0.7 0.1 0.7 0 1.3-0.5 1.3-1.3zm18.1-5.8c0-0.8-0.4-1.4-1.8-1.4h-10.4c-1.4 0-1.8 0.6-1.8 1.4 0 0.7 0.4 1.3 1.8 1.3h10.4c1.4 0 1.8-0.6 1.8-1.3zm10.4 11.5v-20.9h-4.3c-1.4 0-1.8 0.6-1.8 1.3 0 0.7 0.3 1.4 1.8 1.4h1.6v15.5h-1.6c-1.4 0-1.8 0.6-1.8 1.3 0 0.8 0.3 1.4 1.8 1.4zm-303.4 21.3c0-0.6-0.3-1-0.7-1.2l-9.2-5.1c-0.2-0.1-0.4-0.1-0.7-0.1-0.7 0-1.3 0.5-1.3 1.3 0 0.5 0.3 0.9 0.7 1.2l7 3.9-7 3.8c-0.4 0.3-0.7 0.7-0.7 1.2 0 0.8 0.6 1.3 1.3 1.3 0.3 0 0.5 0 0.7-0.1l9.2-5.1c0.4-0.2 0.7-0.6 0.7-1.1zm17.7 0c0-0.8-0.6-1.4-1.3-1.4h-5v-5c0-0.8-0.6-1.3-1.4-1.3-0.7 0-1.3 0.5-1.3 1.3v5h-5c-0.8 0-1.4 0.6-1.4 1.4 0 0.7 0.6 1.3 1.4 1.3h5v5c0 0.8 0.6 1.3 1.3 1.3 0.8 0 1.4-0.5 1.4-1.3v-5h5c0.7 0 1.3-0.6 1.3-1.3zm14.3 0c0-0.6-0.3-1-0.7-1.2l-9.2-5.1c-0.2-0.1-0.4-0.1-0.7-0.1-0.7 0-1.3 0.5-1.3 1.3 0 0.5 0.3 0.9 0.7 1.2l7 3.9-7 3.8c-0.4 0.3-0.7 0.7-0.7 1.2 0 0.8 0.6 1.3 1.3 1.3 0.3 0 0.5 0 0.7-0.1l9.2-5.1c0.4-0.2 0.7-0.6 0.7-1.1zm18.7 0c0-0.8-0.6-1.4-1.3-1.4h-5v-5c0-0.8-0.6-1.3-1.4-1.3-0.7 0-1.3 0.5-1.3 1.3v5h-5c-0.8 0-1.4 0.6-1.4 1.4 0 0.7 0.6 1.3 1.4 1.3h5v5c0 0.8 0.6 1.3 1.3 1.3 0.8 0 1.4-0.5 1.4-1.3v-5h5c0.7 0 1.3-0.6 1.3-1.3zm14.3 0c0-0.6-0.3-1-0.7-1.2l-9.2-5.1c-0.2-0.1-0.4-0.1-0.7-0.1-0.7 0-1.3 0.5-1.3 1.3 0 0.5 0.3 0.9 0.7 1.2l7 3.9-7 3.8c-0.4 0.3-0.7 0.7-0.7 1.2 0 0.8 0.6 1.3 1.3 1.3 0.3 0 0.5 0 0.7-0.1l9.2-5.1c0.4-0.2 0.7-0.6 0.7-1.1zm17-0.8c0-0.8-0.3-1.4-1.8-1.4h-10.4c-1.4 0-1.7 0.6-1.7 1.4 0 0.7 0.3 1.3 1.7 1.3h10.4c1.4 0 1.8-0.6 1.8-1.3zm15 0.8c0-0.6-0.3-1-0.7-1.2l-9.2-5.1c-0.2-0.1-0.4-0.1-0.7-0.1-0.7 0-1.3 0.5-1.3 1.3 0 0.5 0.3 0.9 0.7 1.2l7 3.9-7 3.8c-0.4 0.3-0.7 0.7-0.7 1.2 0 0.8 0.6 1.3 1.3 1.3 0.3 0 0.5 0 0.7-0.1l9.2-5.1c0.4-0.2 0.7-0.6 0.7-1.1zm16 0c0-0.6-0.3-1-0.7-1.2l-9.2-5.1c-0.2-0.1-0.4-0.1-0.7-0.1-0.7 0-1.3 0.5-1.3 1.3 0 0.5 0.3 0.9 0.7 1.2l7 3.9-7 3.8c-0.4 0.3-0.7 0.7-0.7 1.2 0 0.8 0.6 1.3 1.3 1.3 0.3 0 0.5 0 0.7-0.1l9.2-5.1c0.4-0.2 0.7-0.6 0.7-1.1zm18.7 0c0-0.8-0.6-1.4-1.3-1.4h-5v-5c0-0.8-0.6-1.3-1.4-1.3-0.7 0-1.3 0.5-1.3 1.3v5h-5c-0.8 0-1.4 0.6-1.4 1.4 0 0.7 0.6 1.3 1.4 1.3h5v5c0 0.8 0.6 1.3 1.3 1.3 0.8 0 1.4-0.5 1.4-1.3v-5h5c0.7 0 1.3-0.6 1.3-1.3zm13.1 9.3c0-0.7-0.4-1.3-1.8-1.3h-1.6v-15.5h1.5c1.4 0 1.8-0.6 1.8-1.4 0-0.7-0.3-1.3-1.8-1.3h-4.2v20.9h4.3c1.4 0 1.8-0.6 1.8-1.4zm17.2-4.3c0-0.5-0.3-0.9-0.7-1.2l-7-3.8 7-3.9c0.4-0.3 0.7-0.7 0.7-1.2 0-0.8-0.6-1.3-1.4-1.3-0.2 0-0.4 0-0.6 0.1l-9.2 5.1c-0.4 0.2-0.7 0.6-0.7 1.2 0 0.5 0.3 0.9 0.7 1.1l9.2 5.1c0.2 0.1 0.4 0.1 0.6 0.1 0.8 0 1.4-0.5 1.4-1.3zm11.4 5.7v-20.9h-4.3c-1.4 0-1.8 0.6-1.8 1.3 0 0.7 0.3 1.4 1.8 1.4h1.6v15.5h-1.6c-1.4 0-1.8 0.6-1.8 1.3 0 0.8 0.4 1.4 1.8 1.4zm20.6-5.7c0-0.5-0.3-0.9-0.7-1.2l-7-3.8 7-3.9c0.4-0.3 0.7-0.7 0.7-1.2 0-0.8-0.6-1.3-1.3-1.3-0.3 0-0.5 0-0.7 0.1l-9.2 5.1c-0.4 0.2-0.7 0.6-0.7 1.2 0 0.5 0.3 0.9 0.7 1.1l9.2 5.1c0.2 0.1 0.4 0.1 0.7 0.1 0.7 0 1.3-0.5 1.3-1.3zm18-5.8c0-0.8-0.3-1.4-1.7-1.4h-10.4c-1.4 0-1.8 0.6-1.8 1.4 0 0.7 0.4 1.3 1.8 1.3h10.4c1.3 0 1.7-0.6 1.7-1.3zm10.4 11.5v-20.9h-4.3c-1.4 0-1.8 0.6-1.8 1.3 0 0.7 0.4 1.4 1.8 1.4h1.6v15.5h-1.5c-1.5 0-1.8 0.6-1.8 1.3 0 0.8 0.3 1.4 1.8 1.4zm-222.5 22.3c0-0.6-0.2-1-0.7-1.2l-9.1-5.1c-0.2-0.1-0.4-0.1-0.7-0.1-0.7 0-1.3 0.5-1.3 1.3 0 0.5 0.2 0.9 0.7 1.2l7 3.9-7 3.8c-0.5 0.3-0.7 0.7-0.7 1.2 0 0.8 0.6 1.3 1.3 1.3 0.3 0 0.5 0 0.7-0.1l9.1-5.1c0.5-0.2 0.7-0.6 0.7-1.1zm16 0c0-0.6-0.2-1-0.7-1.2l-9.1-5.1c-0.2-0.1-0.4-0.1-0.7-0.1-0.7 0-1.3 0.5-1.3 1.3 0 0.5 0.2 0.9 0.7 1.2l7 3.9-7 3.8c-0.5 0.3-0.7 0.7-0.7 1.2 0 0.8 0.6 1.3 1.3 1.3 0.3 0 0.5 0 0.7-0.1l9.1-5.1c0.5-0.2 0.7-0.6 0.7-1.1zm12.1 5.3c0-1-0.8-1.8-1.8-1.8h-0.4c-1 0-1.8 0.9-1.8 1.8 0 1 0.8 1.8 1.8 1.8h0.4c1 0 1.8-0.8 1.8-1.8zm20.9-5.3c0-0.6-0.2-1-0.7-1.2l-9.1-5.1c-0.2-0.1-0.4-0.1-0.7-0.1-0.7 0-1.3 0.5-1.3 1.3 0 0.5 0.2 0.9 0.7 1.2l7 3.9-7 3.8c-0.5 0.3-0.7 0.7-0.7 1.2 0 0.8 0.6 1.3 1.3 1.3 0.3 0 0.5 0 0.7-0.1l9.1-5.1c0.5-0.2 0.7-0.6 0.7-1.1zm17.1-0.8c0-0.8-0.4-1.4-1.8-1.4h-10.4c-1.4 0-1.8 0.6-1.8 1.4 0 0.7 0.4 1.3 1.8 1.3h10.4c1.4 0 1.8-0.6 1.8-1.3zm16 0c0-0.8-0.4-1.4-1.8-1.4h-10.4c-1.4 0-1.8 0.6-1.8 1.4 0 0.7 0.4 1.3 1.8 1.3h10.4c1.4 0 1.8-0.6 1.8-1.3zm16 0c0-0.8-0.4-1.4-1.8-1.4h-10.4c-1.4 0-1.8 0.6-1.8 1.4 0 0.7 0.4 1.3 1.8 1.3h10.4c1.4 0 1.8-0.6 1.8-1.3zm11 6.1c0-1-0.8-1.8-1.8-1.8h-0.4c-1 0-1.8 0.9-1.8 1.8 0 1 0.8 1.8 1.8 1.8h0.4c1 0 1.8-0.8 1.8-1.8zm22.7-5.3c0-0.8-0.6-1.4-1.4-1.4h-4.9v-5c0-0.8-0.6-1.3-1.4-1.3-0.8 0-1.3 0.5-1.3 1.3v5h-5c-0.8 0-1.4 0.6-1.4 1.4 0 0.7 0.6 1.3 1.4 1.3h5v5c0 0.8 0.5 1.3 1.3 1.3 0.8 0 1.4-0.5 1.4-1.3v-5h4.9c0.8 0 1.4-0.6 1.4-1.3zm16 0c0-0.8-0.6-1.4-1.4-1.4h-4.9v-5c0-0.8-0.6-1.3-1.4-1.3-0.8 0-1.3 0.5-1.3 1.3v5h-5c-0.8 0-1.4 0.6-1.4 1.4 0 0.7 0.6 1.3 1.4 1.3h5v5c0 0.8 0.5 1.3 1.3 1.3 0.8 0 1.4-0.5 1.4-1.3v-5h4.9c0.8 0 1.4-0.6 1.4-1.3zm16 0c0-0.8-0.6-1.4-1.4-1.4h-4.9v-5c0-0.8-0.6-1.3-1.4-1.3-0.8 0-1.3 0.5-1.3 1.3v5h-5c-0.8 0-1.4 0.6-1.4 1.4 0 0.7 0.6 1.3 1.4 1.3h5v5c0 0.8 0.5 1.3 1.3 1.3 0.8 0 1.4-0.5 1.4-1.3v-5h4.9c0.8 0 1.4-0.6 1.4-1.3zm16 0c0-0.8-0.6-1.4-1.4-1.4h-4.9v-5c0-0.8-0.6-1.3-1.4-1.3-0.8 0-1.3 0.5-1.3 1.3v5h-5c-0.8 0-1.4 0.6-1.4 1.4 0 0.7 0.6 1.3 1.4 1.3h5v5c0 0.8 0.5 1.3 1.3 1.3 0.8 0 1.4-0.5 1.4-1.3v-5h4.9c0.8 0 1.4-0.6 1.4-1.3zm16 0c0-0.8-0.6-1.4-1.4-1.4h-4.9v-5c0-0.8-0.6-1.3-1.4-1.3-0.8 0-1.3 0.5-1.3 1.3v5h-5c-0.8 0-1.4 0.6-1.4 1.4 0 0.7 0.6 1.3 1.4 1.3h5v5c0 0.8 0.5 1.3 1.3 1.3 0.8 0 1.4-0.5 1.4-1.3v-5h4.9c0.8 0 1.4-0.6 1.4-1.3zm17 0c0-0.8-0.6-1.4-1.4-1.4h-4.9v-5c0-0.8-0.6-1.3-1.4-1.3-0.8 0-1.3 0.5-1.3 1.3v5h-5c-0.8 0-1.4 0.6-1.4 1.4 0 0.7 0.6 1.3 1.4 1.3h5v5c0 0.8 0.5 1.3 1.3 1.3 0.8 0 1.4-0.5 1.4-1.3v-5h4.9c0.8 0 1.4-0.6 1.4-1.3zm16 0c0-0.8-0.6-1.4-1.4-1.4h-4.9v-5c0-0.8-0.6-1.3-1.4-1.3-0.8 0-1.3 0.5-1.3 1.3v5h-5c-0.8 0-1.4 0.6-1.4 1.4 0 0.7 0.6 1.3 1.4 1.3h5v5c0 0.8 0.5 1.3 1.3 1.3 0.8 0 1.4-0.5 1.4-1.3v-5h4.9c0.8 0 1.4-0.6 1.4-1.3zm10.3 5.3c0-1-0.8-1.8-1.8-1.8h-0.4c-1 0-1.8 0.9-1.8 1.8 0 1 0.8 1.8 1.8 1.8h0.4c1 0 1.8-0.8 1.8-1.8zm16 0c0-1-0.8-1.8-1.8-1.8h-0.4c-1 0-1.8 0.9-1.8 1.8 0 1 0.8 1.8 1.8 1.8h0.4c1 0 1.8-0.8 1.8-1.8zm21.7-5.3c0-0.8-0.6-1.4-1.4-1.4h-4.9v-5c0-0.8-0.6-1.3-1.4-1.3-0.8 0-1.3 0.5-1.3 1.3v5h-5c-0.8 0-1.4 0.6-1.4 1.4 0 0.7 0.6 1.3 1.4 1.3h5v5c0 0.8 0.5 1.3 1.3 1.3 0.8 0 1.4-0.5 1.4-1.3v-5h4.9c0.8 0 1.4-0.6 1.4-1.3zm17 0c0-0.8-0.6-1.4-1.4-1.4h-4.9v-5c0-0.8-0.6-1.3-1.4-1.3-0.8 0-1.3 0.5-1.3 1.3v5h-5c-0.8 0-1.4 0.6-1.4 1.4 0 0.7 0.6 1.3 1.4 1.3h5v5c0 0.8 0.5 1.3 1.3 1.3 0.8 0 1.4-0.5 1.4-1.3v-5h4.9c0.8 0 1.4-0.6 1.4-1.3zm16 0c0-0.8-0.6-1.4-1.4-1.4h-4.9v-5c0-0.8-0.6-1.3-1.4-1.3-0.8 0-1.3 0.5-1.3 1.3v5h-5c-0.8 0-1.4 0.6-1.4 1.4 0 0.7 0.6 1.3 1.4 1.3h5v5c0 0.8 0.5 1.3 1.3 1.3 0.8 0 1.4-0.5 1.4-1.3v-5h4.9c0.8 0 1.4-0.6 1.4-1.3zm10.3 5.3c0-1-0.8-1.8-1.8-1.8h-0.4c-1 0-1.8 0.9-1.8 1.8 0 1 0.8 1.8 1.8 1.8h0.4c1 0 1.8-0.8 1.8-1.8zm-320.1 26.7c0-0.6-0.2-1-0.7-1.2l-9.1-5.1c-0.2-0.1-0.4-0.1-0.7-0.1-0.7 0-1.3 0.5-1.3 1.3 0 0.5 0.2 0.9 0.7 1.2l7 3.9-7 3.8c-0.5 0.3-0.7 0.7-0.7 1.2 0 0.8 0.6 1.3 1.3 1.3 0.3 0 0.5 0 0.7-0.1l9.1-5.1c0.5-0.2 0.7-0.6 0.7-1.1zm16 0c0-0.6-0.2-1-0.7-1.2l-9.1-5.1c-0.2-0.1-0.4-0.1-0.7-0.1-0.7 0-1.3 0.5-1.3 1.3 0 0.5 0.2 0.9 0.7 1.2l7 3.9-7 3.8c-0.5 0.3-0.7 0.7-0.7 1.2 0 0.8 0.6 1.3 1.3 1.3 0.3 0 0.5 0 0.7-0.1l9.1-5.1c0.5-0.2 0.7-0.6 0.7-1.1zm12.1 5.3c0-1-0.8-1.8-1.8-1.8h-0.4c-1 0-1.8 0.9-1.8 1.8 0 1 0.8 1.8 1.8 1.8h0.4c1 0 1.8-0.8 1.8-1.8zm20.9-0.3c0-0.5-0.2-0.9-0.7-1.2l-7-3.8 7-3.9c0.5-0.3 0.7-0.7 0.7-1.2 0-0.8-0.6-1.3-1.3-1.3-0.3 0-0.5 0-0.7 0.1l-9.1 5.1c-0.5 0.2-0.7 0.6-0.7 1.2 0 0.5 0.2 0.9 0.7 1.1l9.1 5.1c0.2 0.1 0.4 0.1 0.7 0.1 0.7 0 1.3-0.5 1.3-1.3zm17.1-5.8c0-0.8-0.4-1.4-1.8-1.4h-10.4c-1.4 0-1.8 0.6-1.8 1.4 0 0.7 0.4 1.3 1.8 1.3h10.4c1.4 0 1.8-0.6 1.8-1.3zm11 6.1c0-1-0.8-1.8-1.8-1.8h-0.4c-1 0-1.8 0.9-1.8 1.8 0 1 0.8 1.8 1.8 1.8h0.4c1 0 1.8-0.8 1.8-1.8zm19.9-0.3c0-0.5-0.2-0.9-0.7-1.2l-7-3.8 7-3.9c0.5-0.3 0.7-0.7 0.7-1.2 0-0.8-0.6-1.3-1.3-1.3-0.3 0-0.5 0-0.7 0.1l-9.1 5.1c-0.5 0.2-0.7 0.6-0.7 1.2 0 0.5 0.2 0.9 0.7 1.1l9.1 5.1c0.2 0.1 0.4 0.1 0.7 0.1 0.7 0 1.3-0.5 1.3-1.3zm12.1 0.3c0-1-0.8-1.8-1.8-1.8h-0.4c-1 0-1.8 0.9-1.8 1.8 0 1 0.8 1.8 1.8 1.8h0.4c1 0 1.8-0.8 1.8-1.8zm-107.3 27.7c0-0.8-0.6-1.4-1.4-1.4h-4.9v-5c0-0.8-0.6-1.3-1.4-1.3-0.8 0-1.3 0.5-1.3 1.3v5h-5c-0.8 0-1.4 0.6-1.4 1.4 0 0.7 0.6 1.3 1.4 1.3h5v5c0 0.8 0.5 1.3 1.3 1.3 0.8 0 1.4-0.5 1.4-1.3v-5h4.9c0.8 0 1.4-0.6 1.4-1.3zm16 0c0-0.8-0.6-1.4-1.4-1.4h-4.9v-5c0-0.8-0.6-1.3-1.4-1.3-0.8 0-1.3 0.5-1.3 1.3v5h-5c-0.8 0-1.4 0.6-1.4 1.4 0 0.7 0.6 1.3 1.4 1.3h5v5c0 0.8 0.5 1.3 1.3 1.3 0.8 0 1.4-0.5 1.4-1.3v-5h4.9c0.8 0 1.4-0.6 1.4-1.3zm16 0c0-0.8-0.6-1.4-1.4-1.4h-4.9v-5c0-0.8-0.6-1.3-1.4-1.3-0.8 0-1.3 0.5-1.3 1.3v5h-5c-0.8 0-1.4 0.6-1.4 1.4 0 0.7 0.6 1.3 1.4 1.3h5v5c0 0.8 0.5 1.3 1.3 1.3 0.8 0 1.4-0.5 1.4-1.3v-5h4.9c0.8 0 1.4-0.6 1.4-1.3zm11.3 5.3c0-1-0.8-1.8-1.8-1.8h-0.4c-1 0-1.8 0.9-1.8 1.8 0 1 0.8 1.8 1.8 1.8h0.4c1 0 1.8-0.8 1.8-1.8zm21-6.1c0-0.8-0.4-1.4-1.8-1.4h-10.4c-1.4 0-1.8 0.6-1.8 1.4 0 0.7 0.4 1.3 1.8 1.3h10.4c1.4 0 1.8-0.6 1.8-1.3zm16 0c0-0.8-0.4-1.4-1.8-1.4h-10.4c-1.4 0-1.8 0.6-1.8 1.4 0 0.7 0.4 1.3 1.8 1.3h10.4c1.4 0 1.8-0.6 1.8-1.3zm16 0c0-0.8-0.4-1.4-1.8-1.4h-10.4c-1.4 0-1.8 0.6-1.8 1.4 0 0.7 0.4 1.3 1.8 1.3h10.4c1.4 0 1.8-0.6 1.8-1.3zm16 0c0-0.8-0.4-1.4-1.8-1.4h-10.4c-1.4 0-1.8 0.6-1.8 1.4 0 0.7 0.4 1.3 1.8 1.3h10.4c1.4 0 1.8-0.6 1.8-1.3zm17 0c0-0.8-0.4-1.4-1.8-1.4h-10.4c-1.4 0-1.8 0.6-1.8 1.4 0 0.7 0.4 1.3 1.8 1.3h10.4c1.4 0 1.8-0.6 1.8-1.3zm16 0c0-0.8-0.4-1.4-1.8-1.4h-10.4c-1.4 0-1.8 0.6-1.8 1.4 0 0.7 0.4 1.3 1.8 1.3h10.4c1.4 0 1.8-0.6 1.8-1.3zm11 6.1c0-1-0.8-1.8-1.8-1.8h-0.4c-1 0-1.8 0.9-1.8 1.8 0 1 0.8 1.8 1.8 1.8h0.4c1 0 1.8-0.8 1.8-1.8zm21-6.1c0-0.8-0.4-1.4-1.8-1.4h-10.4c-1.4 0-1.8 0.6-1.8 1.4 0 0.7 0.4 1.3 1.8 1.3h10.4c1.4 0 1.8-0.6 1.8-1.3zm16 0c0-0.8-0.4-1.4-1.8-1.4h-10.4c-1.4 0-1.8 0.6-1.8 1.4 0 0.7 0.4 1.3 1.8 1.3h10.4c1.4 0 1.8-0.6 1.8-1.3zm17 0c0-0.8-0.4-1.4-1.8-1.4h-10.4c-1.4 0-1.8 0.6-1.8 1.4 0 0.7 0.4 1.3 1.8 1.3h10.4c1.4 0 1.8-0.6 1.8-1.3zm16 0c0-0.8-0.4-1.4-1.8-1.4h-10.4c-1.4 0-1.8 0.6-1.8 1.4 0 0.7 0.4 1.3 1.8 1.3h10.4c1.4 0 1.8-0.6 1.8-1.3zm16 0c0-0.8-0.4-1.4-1.8-1.4h-10.4c-1.4 0-1.8 0.6-1.8 1.4 0 0.7 0.4 1.3 1.8 1.3h10.4c1.4 0 1.8-0.6 1.8-1.3zm16 0c0-0.8-0.4-1.4-1.8-1.4h-10.4c-1.4 0-1.8 0.6-1.8 1.4 0 0.7 0.4 1.3 1.8 1.3h10.4c1.4 0 1.8-0.6 1.8-1.3zm16 0c0-0.8-0.4-1.4-1.8-1.4h-10.4c-1.4 0-1.8 0.6-1.8 1.4 0 0.7 0.4 1.3 1.8 1.3h10.4c1.4 0 1.8-0.6 1.8-1.3zm17 0c0-0.8-0.4-1.4-1.8-1.4h-10.4c-1.4 0-1.8 0.6-1.8 1.4 0 0.7 0.4 1.3 1.8 1.3h10.4c1.4 0 1.8-0.6 1.8-1.3zm11 6.1c0-1-0.8-1.8-1.8-1.8h-0.4c-1 0-1.8 0.9-1.8 1.8 0 1 0.8 1.8 1.8 1.8h0.4c1 0 1.8-0.8 1.8-1.8zm-304.1 26.7c0-0.6-0.2-1-0.7-1.2l-9.1-5.1c-0.2-0.1-0.4-0.1-0.7-0.1-0.7 0-1.3 0.5-1.3 1.3 0 0.5 0.2 0.9 0.7 1.2l7 3.9-7 3.8c-0.5 0.3-0.7 0.7-0.7 1.2 0 0.8 0.6 1.3 1.3 1.3 0.3 0 0.5 0 0.7-0.1l9.1-5.1c0.5-0.2 0.7-0.6 0.7-1.1zm16 0c0-0.6-0.2-1-0.7-1.2l-9.1-5.1c-0.2-0.1-0.4-0.1-0.7-0.1-0.7 0-1.3 0.5-1.3 1.3 0 0.5 0.2 0.9 0.7 1.2l7 3.9-7 3.8c-0.5 0.3-0.7 0.7-0.7 1.2 0 0.8 0.6 1.3 1.3 1.3 0.3 0 0.5 0 0.7-0.1l9.1-5.1c0.5-0.2 0.7-0.6 0.7-1.1zm17.8 0c0-0.8-0.6-1.4-1.4-1.4h-4.9v-5c0-0.8-0.6-1.3-1.4-1.3-0.8 0-1.3 0.5-1.3 1.3v5h-5c-0.8 0-1.4 0.6-1.4 1.4 0 0.7 0.6 1.3 1.4 1.3h5v5c0 0.8 0.5 1.3 1.3 1.3 0.8 0 1.4-0.5 1.4-1.3v-5h4.9c0.8 0 1.4-0.6 1.4-1.3zm11.3 5.3c0-1-0.8-1.8-1.8-1.8h-0.4c-1 0-1.8 0.9-1.8 1.8 0 1 0.8 1.8 1.8 1.8h0.4c1 0 1.8-0.8 1.8-1.8zm19.9-5.3c0-0.6-0.2-1-0.7-1.2l-9.1-5.1c-0.2-0.1-0.4-0.1-0.7-0.1-0.7 0-1.3 0.5-1.3 1.3 0 0.5 0.2 0.9 0.7 1.2l7 3.9-7 3.8c-0.5 0.3-0.7 0.7-0.7 1.2 0 0.8 0.6 1.3 1.3 1.3 0.3 0 0.5 0 0.7-0.1l9.1-5.1c0.5-0.2 0.7-0.6 0.7-1.1zm17.8 0c0-0.8-0.6-1.4-1.4-1.4h-4.9v-5c0-0.8-0.6-1.3-1.4-1.3-0.8 0-1.3 0.5-1.3 1.3v5h-5c-0.8 0-1.4 0.6-1.4 1.4 0 0.7 0.6 1.3 1.4 1.3h5v5c0 0.8 0.5 1.3 1.3 1.3 0.8 0 1.4-0.5 1.4-1.3v-5h4.9c0.8 0 1.4-0.6 1.4-1.3zm16 0c0-0.8-0.6-1.4-1.4-1.4h-4.9v-5c0-0.8-0.6-1.3-1.4-1.3-0.8 0-1.3 0.5-1.3 1.3v5h-5c-0.8 0-1.4 0.6-1.4 1.4 0 0.7 0.6 1.3 1.4 1.3h5v5c0 0.8 0.5 1.3 1.3 1.3 0.8 0 1.4-0.5 1.4-1.3v-5h4.9c0.8 0 1.4-0.6 1.4-1.3zm10.3 5.3c0-1-0.8-1.8-1.8-1.8h-0.4c-1 0-1.8 0.9-1.8 1.8 0 1 0.8 1.8 1.8 1.8h0.4c1 0 1.8-0.8 1.8-1.8z"/>
	</g>
</svg>