<svg width="116" height="116" viewBox="0 0 116 116" fill="none" xmlns="http://www.w3.org/2000/svg">
<rect width="116" height="116" fill="white"/>
<path d="M78 32C82.9706 32 87 27.9706 87 23C87 18.0294 82.9706 14 78 14C73.0294 14 69 18.0294 69 23C69 27.9706 73.0294 32 78 32Z" fill="black"/>
<path d="M57.6466 32.9696V43.8175L66.0745 46.41C68.1264 47.2393 69.4676 49.2114 69.4676 51.405V77.39C69.4676 79.1879 68.6353 80.8877 67.2076 82.0051L58 88C57.2253 88.6046 57 89.5 57 89.9598V92.8562C57 95.6956 59.3304 98 62.2018 98H92.8203C97.2442 98 100.967 94.727 101.482 90.384L107.968 35.9325C108.384 32.4252 104.671 29.877 101.498 31.5009C93.7006 35.4956 82.8233 40.9908 76.0562 40.8294C68.5752 40.6489 62.4803 35.3342 59.5449 32.2257C58.8662 31.5072 57.6466 31.9883 57.6466 32.9728V32.9696Z" fill="#040000"/>
<path d="M12.4012 43.8684L8.04217 81.0085C7.6479 84.3562 10.0687 87.3174 13.2008 87.3174H41.7536L39.8457 97.6104C39.7519 98.1188 40.2813 98.4934 40.6756 98.1931L63.9072 80.4941C65.3547 79.3911 66.2149 77.5983 66.2149 75.6866V53.1266C66.2149 50.4181 64.42 48.0991 61.9496 47.6115L18.4945 39.0579C15.5609 38.4811 12.7789 40.6782 12.404 43.8684H12.4012Z" fill="#040000"/>
<path d="M22.7223 54.4377C21.6172 56.0586 20.07 60.494 22.7223 65.2682" stroke="white" stroke-width="1.5" stroke-linecap="square"/>
<rect x="19.0515" y="58.7377" width="2.69498" height="4.4206" rx="1.34749" transform="rotate(-3.56167 19.0515 58.7377)" fill="white"/>
<rect x="37.176" y="57.9746" width="2.65236" height="6.18884" rx="1.32618" fill="white"/>
<path d="M56.6267 55.764C57.7319 57.3849 59.2791 61.8202 56.6267 66.5944" stroke="white" stroke-width="1.5" stroke-linecap="square"/>
<rect width="2.69498" height="4.4206" rx="1.34749" transform="matrix(-0.998069 -0.0621229 -0.0621229 0.998069 60.2975 60.0639)" fill="white"/>
<rect width="2.65236" height="6.18884" rx="1.32618" transform="matrix(-1 0 0 1 48.2275 57.9746)" fill="white"/>
<path d="M18.5067 28.8623C23.4562 22.1012 30.0448 16.741 37.6384 13.2972C45.232 9.85341 53.5751 8.44203 61.8648 9.19884L61.5058 13.2135C53.8979 12.5189 46.2412 13.8142 39.2723 16.9747C32.3034 20.1352 26.2569 25.0545 21.7145 31.2593L18.5067 28.8623Z" fill="black"/>
</svg>
