<svg width="48" height="48" viewBox="0 0 48 48" xmlns="http://www.w3.org/2000/svg">
  <!-- DNA/Gene helix symbol -->
  <g transform="translate(12, 12)">
    <!-- Left strand -->
    <path d="M4 4 Q8 8 4 12 Q8 16 4 20" stroke="#333333" stroke-width="2.5" fill="none"/>
    <!-- Right strand -->
    <path d="M20 4 Q16 8 20 12 Q16 16 20 20" stroke="#333333" stroke-width="2.5" fill="none"/>
    <!-- Connecting lines -->
    <line x1="8" y1="6" x2="16" y2="6" stroke="#333333" stroke-width="1.5"/>
    <line x1="8" y1="10" x2="16" y2="10" stroke="#333333" stroke-width="1.5"/>
    <line x1="8" y1="14" x2="16" y2="14" stroke="#333333" stroke-width="1.5"/>
    <line x1="8" y1="18" x2="16" y2="18" stroke="#333333" stroke-width="1.5"/>
  </g>
  
  <!-- File/Data symbol in corner -->
  <g transform="translate(30, 30)">
    <rect x="0" y="0" width="14" height="16" rx="2" fill="#F0F0F0" stroke="#666666" stroke-width="1"/>
    <!-- Data lines -->
    <line x1="2" y1="4" x2="12" y2="4" stroke="#999999" stroke-width="1"/>
    <line x1="2" y1="7" x2="12" y2="7" stroke="#999999" stroke-width="1"/>
    <line x1="2" y1="10" x2="12" y2="10" stroke="#999999" stroke-width="1"/>
    <line x1="2" y1="13" x2="8" y2="13" stroke="#999999" stroke-width="1"/>
  </g>
  
  <!-- Small "GEO" and "SOFT" text -->
  <text x="24" y="35" font-family="Arial, sans-serif" font-size="7" font-weight="bold" text-anchor="middle" fill="#333333">GEO</text>
  <text x="24" y="43" font-family="Arial, sans-serif" font-size="6" font-weight="bold" text-anchor="middle" fill="#666666">SOFT</text>
</svg>