<?xml version="1.0" encoding="utf-8"?>
<svg version="1.0" xmlns="http://www.w3.org/2000/svg" viewBox="0 0 660 660">
  <path d="M 660 330 C 660 512.21 512.307 660 330 660 C 147.693 660 0 512.21 0 330 C 0 147.693 147.693 0 330 0 C 512.307 0 660 147.693 660 330 Z M 399.52 581.924 C 408.368 579.493 415.854 577.451 416.049 577.257 C 416.243 576.965 414.59 569.965 412.354 561.603 C 410.118 553.241 408.368 546.338 408.562 546.143 C 413.521 542.837 420.133 536.031 423.925 530.489 C 435.398 513.279 437.537 495 430.245 475.651 L 427.814 469.331 L 449.107 448.038 L 470.401 426.744 L 477.304 429.272 C 491.597 434.425 507.154 434.328 520.183 428.981 C 528.933 425.383 538.851 418.285 543.421 412.354 C 545.365 409.729 547.504 407.59 548.185 407.59 C 548.866 407.493 555.769 409.243 563.645 411.382 C 571.618 413.521 578.229 415.077 578.424 414.882 C 579.007 414.202 588.438 379.004 588.05 378.712 C 587.855 378.518 580.854 376.573 572.493 374.337 C 558.103 370.448 557.227 370.059 557.227 367.823 C 557.227 361.114 552.366 348.377 546.532 339.918 C 537.49 326.694 521.349 317.068 505.598 315.415 C 499.959 314.832 499.862 314.735 498.986 311.332 C 498.403 309.387 495.097 296.942 491.597 283.718 C 488.097 270.398 485.277 259.216 485.471 258.73 C 485.666 258.341 488.097 256.105 490.916 253.869 C 496.847 249.299 503.945 240.062 507.348 232.77 C 512.988 220.519 513.765 203.017 509.196 189.502 L 506.765 182.404 L 518.141 170.931 L 529.517 159.555 L 515.905 145.943 L 502.292 132.331 L 491.014 143.609 L 479.832 154.791 L 472.054 152.166 C 465.636 150.027 462.622 149.638 453.677 149.638 C 441.523 149.54 437.245 150.513 427.036 155.374 C 421.591 157.999 417.799 160.819 411.576 166.945 C 407.006 171.417 403.02 175.112 402.728 175.112 C 402.437 175.112 389.408 171.806 373.754 167.625 L 345.362 160.138 L 344.779 155.18 C 343.612 147.11 339.626 135.928 335.737 129.803 C 327.18 116.676 311.332 106.078 296.747 103.842 C 292.08 103.064 289.747 102.286 289.455 101.217 C 289.163 100.439 287.413 93.633 285.371 86.146 C 283.427 78.659 281.677 72.339 281.482 72.242 C 280.801 71.367 245.118 81.382 245.118 82.451 C 245.118 83.035 246.868 89.938 249.007 97.814 L 252.799 112.009 L 246.382 118.038 C 238.506 125.33 233.547 132.817 229.95 142.734 C 227.422 149.443 227.13 151.582 227.13 161.5 C 227.227 171.417 227.519 173.654 230.242 181.14 L 233.159 189.599 L 212.643 210.504 L 192.127 231.506 L 183.377 228.491 C 167.139 222.755 151.971 223.63 136.317 231.214 C 130.775 233.839 127.08 236.659 121.052 242.687 L 112.982 250.66 L 98.397 246.771 C 90.327 244.632 83.424 243.173 83.035 243.465 C 82.062 244.437 73.02 278.565 73.603 279.149 C 73.895 279.44 80.701 281.385 88.869 283.621 L 103.55 287.608 L 104.717 293.83 C 106.37 302.192 108.315 307.443 112.496 314.346 C 121.441 329.125 136.414 339.14 154.207 342.251 C 157.319 342.834 160.236 343.612 160.625 344.098 C 161.014 344.487 164.806 357.905 169.084 373.948 L 176.862 403.117 L 172.876 406.52 C 162.958 414.688 156.444 423.633 152.555 434.328 C 150.707 439.19 150.415 442.107 150.318 453.191 C 150.318 464.567 150.61 467.289 152.652 473.415 L 155.083 480.513 L 143.998 491.597 L 132.817 502.778 L 146.235 516.099 L 159.555 529.517 L 170.737 518.335 L 181.821 507.251 L 188.919 509.682 C 195.044 511.724 197.864 512.015 208.656 512.015 C 223.338 512.015 230.533 510.071 240.062 503.751 C 245.507 500.056 254.646 491.208 258.05 486.347 L 259.702 483.916 L 284.691 490.625 C 298.497 494.222 311.137 497.625 312.79 498.111 C 315.61 498.792 315.902 499.375 316.485 503.848 C 318.43 518.141 325.43 531.85 335.348 540.698 C 342.543 547.116 356.349 554.019 364.906 555.477 L 371.42 556.547 L 373.365 563.936 C 374.434 568.02 376.282 574.923 377.448 579.396 C 379.296 586.397 379.879 587.369 381.435 586.786 C 382.504 586.494 390.575 584.258 399.52 581.924 Z"/>
  <path d="M 396.019 497.139 C 396.019 508.612 386.783 517.849 375.309 517.849 C 363.836 517.849 354.502 508.612 354.502 497.139 C 354.502 485.666 363.836 476.332 375.309 476.332 C 386.783 476.332 396.019 485.666 396.019 497.139 Z M 367.142 516.099"/>
  <path d="M 229.367 453.677 C 229.367 465.15 220.13 474.484 208.559 474.484 C 197.086 474.484 187.752 465.15 187.752 453.677 C 187.752 442.204 197.086 432.87 208.559 432.87 C 220.13 432.87 229.367 442.204 229.367 453.677 Z M 201.85 473.512"/>
  <path d="M 296.358 454.163 C 280.899 449.982 268.161 446.385 267.87 446.19 C 267.675 445.899 266.606 442.398 265.536 438.217 C 264.467 434.037 262.425 428.397 260.966 425.675 C 257.369 418.966 246.965 408.076 239.867 403.409 C 234.131 399.714 220.907 394.853 216.435 394.853 C 214.49 394.853 213.907 394.172 213.129 391.255 C 212.643 389.213 208.851 375.212 204.864 360.141 L 197.572 332.625 L 204.573 325.625 C 216.24 313.86 221.88 300.345 221.88 284.01 C 221.88 278.273 221.296 272.634 220.324 268.939 C 219.352 265.731 218.477 262.23 218.185 261.161 C 217.893 259.702 222.949 254.16 239.576 237.437 L 261.453 215.754 L 267.092 217.893 C 275.065 220.907 289.844 221.588 299.081 219.449 C 310.262 216.824 319.499 211.671 327.375 203.698 L 334.375 196.794 L 363.35 204.476 C 379.393 208.754 393.005 212.74 393.686 213.226 C 394.269 213.81 394.853 215.56 394.853 217.116 C 394.853 221.588 399.423 234.034 403.312 240.062 C 410.798 251.827 424.411 262.036 436.467 265.05 C 440.065 265.925 444.051 266.897 445.413 267.286 C 447.649 267.967 448.329 269.814 455.524 296.942 L 463.303 325.819 L 457.372 331.556 C 440.94 347.599 434.912 372.295 442.398 393.103 L 444.246 398.256 L 421.883 420.716 L 399.423 443.273 L 395.436 441.426 C 389.699 438.898 378.032 437.342 370.837 438.023 C 356.349 439.481 343.321 445.607 333.403 455.33 C 329.708 459.025 326.208 461.942 325.527 461.844 C 324.847 461.844 311.721 458.344 296.358 454.163 Z"/>
  <path d="M 519.016 374.143 C 519.016 385.616 509.779 394.853 498.306 394.853 C 486.833 394.853 477.596 385.616 477.596 374.143 C 477.596 362.669 486.833 353.433 498.306 353.433 C 509.779 353.433 519.016 362.669 519.016 374.143 Z M 489.652 393.005"/>
  <path d="M 183.765 283.718 C 183.765 295.192 174.529 304.526 163.055 304.526 C 151.582 304.526 142.248 295.192 142.248 283.718 C 142.248 272.245 151.582 263.008 163.055 263.008 C 174.529 263.008 183.765 272.245 183.765 283.718 Z M 154.11 302.581"/>
  <path d="M 473.998 208.462 C 473.998 219.935 464.761 229.172 453.288 229.172 C 441.815 229.172 432.481 219.935 432.481 208.462 C 432.481 196.989 441.815 187.752 453.288 187.752 C 464.761 187.752 473.998 196.989 473.998 208.462 Z M 447.552 228.686"/>
  <path d="M 306.567 161.791 C 306.567 173.265 297.331 182.599 285.857 182.599 C 274.384 182.599 265.05 173.265 265.05 161.791 C 265.05 150.318 274.384 141.081 285.857 141.081 C 297.331 141.081 306.567 150.318 306.567 161.791 Z M 278.468 181.237"/>
</svg>
