<?xml version="1.0" encoding="UTF-8" standalone="no"?>
<!DOCTYPE svg PUBLIC "-//W3C//DTD SVG 1.1//EN" "http://www.w3.org/Graphics/SVG/1.1/DTD/svg11.dtd">
<!-- Created with Vectornator (http://vectornator.io/) -->
<svg height="100%" stroke-miterlimit="10" style="fill-rule:nonzero;clip-rule:evenodd;stroke-linecap:round;stroke-linejoin:round;" version="1.1" viewBox="0 0 527.878 104.6" width="100%" xml:space="preserve" xmlns="http://www.w3.org/2000/svg" xmlns:xlink="http://www.w3.org/1999/xlink">
<defs/>
<clipPath id="ArtboardFrame">
<rect height="104.6" width="527.878" x="0" y="0"/>
</clipPath>
<g clip-path="url(#ArtboardFrame)" id="buchstaben_vorn">
<path d="M423.583 103.213C367.737 103.213 290.28 62.8528 252.632 43.3313C249.447 41.6546 246.603 40.2174 244.101 38.9C158.341-11.9996 79.405-6.25093 2.74399 56.146C1.9478 56.7449 0.924141 56.6251 0.355439 55.7868C-0.213263 54.9484-0.0995229 53.8705 0.69666 53.2717C37.4348 23.3307 73.9455 6.68356 112.162 2.2523C155.042-2.77778 199.97 8.48002 245.807 35.6664C248.196 36.8641 251.153 38.421 254.338 40.0977C301.54 64.6493 412.209 122.256 461.004 90.2787C476.587 80.0988 484.435 61.1761 484.435 34.1095C484.435 33.1514 485.231 32.313 486.141 32.313L486.141 32.313C487.051 32.313 487.847 33.1514 487.847 34.1095C487.961 44.7685 490.122 97.8239 524.926 97.8239C525.836 97.8239 526.632 98.6622 526.632 99.6203C526.632 100.578 525.836 101.417 524.926 101.417C510.254 101.417 499.221 93.1531 492.169 76.985C489.098 69.7991 487.164 62.0145 486.027 54.8286C482.729 72.4339 474.994 85.3684 462.71 93.2728C452.019 100.339 438.597 103.213 423.583 103.213Z" fill="#07a9ff" fill-rule="nonzero" opacity="1" stroke="none"/>
<g fill="#1a2a5b" opacity="1" stroke="none">
<path d="M66.8838 82.6965L66.8838 76.6665C66.8838 75.5865 66.4338 74.7765 65.0838 74.7765C65.0838 74.7765 64.9938 74.7765 64.9038 74.7765C61.7538 75.0465 55.6338 75.4965 50.8638 75.4965C43.3038 75.4965 37.8138 71.1765 37.8138 58.6665L37.8138 45.4365C37.8138 32.6565 43.3038 28.6065 50.8638 28.6065C55.6338 28.6065 61.7538 29.0565 64.9038 29.3265C64.9938 29.3265 65.0838 29.3265 65.0838 29.3265C66.4338 29.3265 66.8838 28.5165 66.8838 27.4365L66.8838 21.4065C66.8838 20.1465 66.0738 19.6965 64.9038 19.3365C63.5538 18.9765 57.6138 17.8965 50.6838 17.8965C39.8838 17.8965 25.2138 22.8465 25.2138 45.4365L25.2138 58.6665C25.2138 80.8965 39.8838 86.2065 50.6838 86.2065C57.6138 86.2065 63.5538 85.1265 64.9038 84.7665C66.0738 84.4065 66.8838 83.9565 66.8838 82.6965Z"/>
<path d="M114.404 83.6865L114.404 51.2865C114.404 39.7665 107.384 34.0965 94.6038 34.0965C88.3938 34.0965 83.1738 34.8165 79.5738 35.5365C78.4038 35.8065 77.8638 36.4365 77.8638 37.4265L77.8638 43.1865C77.8638 44.4465 78.5838 44.7165 79.4838 44.7165C79.5738 44.7165 79.7538 44.7165 79.9338 44.7165C82.9038 44.3565 88.8438 43.9965 94.6038 43.9965C99.9138 43.9965 102.524 45.4365 102.524 51.2865L102.524 55.2465L96.8538 55.2465C81.1938 55.2465 74.8938 60.5565 74.8938 70.8165L74.8938 71.1765C74.8938 83.3265 82.9938 86.2065 90.4638 86.2065C94.7838 86.2065 99.0138 84.7665 103.154 82.2465L103.154 83.6865C103.154 84.6765 103.964 85.4865 104.954 85.4865L112.604 85.4865C113.594 85.4865 114.404 84.6765 114.404 83.6865ZM102.524 74.2365C99.9138 75.6765 96.5838 76.7565 93.3438 76.7565C88.8438 76.7565 86.8638 75.5865 86.8638 71.1765L86.8638 70.8165C86.8638 65.7765 88.6638 63.1665 96.8538 63.1665L102.524 63.1665L102.524 74.2365Z"/>
<path d="M138.434 83.5965L138.434 18.7965C138.434 17.8065 137.714 16.9965 136.724 16.9965L128.354 16.9965C127.364 16.9965 126.554 17.8065 126.554 18.7965L126.554 83.5965C126.554 84.5865 127.364 85.4865 128.354 85.4865L136.724 85.4865C137.714 85.4865 138.434 84.5865 138.434 83.5965Z"/>
<path d="M163.004 26.1765L163.004 18.2565C163.004 17.2665 162.194 16.4565 161.204 16.4565L152.474 16.4565C151.484 16.4565 150.584 17.2665 150.584 18.2565L150.584 26.1765C150.584 27.1665 151.484 27.9765 152.474 27.9765L161.204 27.9765C162.194 27.9765 163.004 27.1665 163.004 26.1765ZM162.734 83.5965L162.734 36.5265C162.734 35.5365 161.924 34.7265 160.934 34.7265L152.654 34.7265C151.664 34.7265 150.854 35.5365 150.854 36.5265L150.854 83.5965C150.854 84.5865 151.664 85.4865 152.654 85.4865L160.934 85.4865C161.924 85.4865 162.734 84.5865 162.734 83.5965Z"/>
<path d="M216.734 63.6165L216.734 56.6865C216.734 42.6465 209.714 34.0965 195.224 34.0965C193.064 34.0965 189.914 34.2765 186.584 34.7265L186.584 18.7965C186.584 17.8065 185.774 16.9965 184.784 16.9965L176.504 16.9965C175.514 16.9965 174.704 17.8065 174.704 18.7965L174.704 81.4365C174.704 82.7865 175.064 83.3265 177.134 83.8665C182.714 85.3065 189.464 86.2065 195.224 86.2065C209.714 86.2065 216.734 77.6565 216.734 63.6165ZM204.854 63.6165C204.854 70.9965 202.964 76.4865 195.224 76.4865C191.984 76.4865 188.294 76.2165 186.584 75.8565L186.584 44.4465C189.104 44.0865 193.064 43.8165 195.224 43.8165C202.964 43.8165 204.854 49.3065 204.854 56.6865L204.854 63.6165Z"/>
<path d="M252.734 42.3765L252.734 35.8965C252.734 34.9065 251.924 34.0965 250.934 34.0965C247.334 34.0965 242.474 34.9965 238.064 38.4165L238.064 36.5265C238.064 35.5365 237.254 34.7265 236.264 34.7265L228.434 34.7265C227.444 34.7265 226.634 35.5365 226.634 36.5265L226.634 83.5965C226.634 84.5865 227.444 85.4865 228.434 85.4865L236.714 85.4865C237.704 85.4865 238.514 84.5865 238.514 83.5965L238.514 47.4165C242.294 45.4365 246.074 44.1765 250.934 44.1765C251.924 44.1765 252.734 43.3665 252.734 42.3765Z"/>
<path d="M295.844 83.6865L295.844 51.2865C295.844 39.7665 288.824 34.0965 276.044 34.0965C269.834 34.0965 264.614 34.8165 261.014 35.5365C259.844 35.8065 259.304 36.4365 259.304 37.4265L259.304 43.1865C259.304 44.4465 260.024 44.7165 260.924 44.7165C261.014 44.7165 261.194 44.7165 261.374 44.7165C264.344 44.3565 270.284 43.9965 276.044 43.9965C281.354 43.9965 283.964 45.4365 283.964 51.2865L283.964 55.2465L278.294 55.2465C262.634 55.2465 256.334 60.5565 256.334 70.8165L256.334 71.1765C256.334 83.3265 264.434 86.2065 271.904 86.2065C276.224 86.2065 280.454 84.7665 284.594 82.2465L284.594 83.6865C284.594 84.6765 285.404 85.4865 286.394 85.4865L294.044 85.4865C295.034 85.4865 295.844 84.6765 295.844 83.6865ZM283.964 74.2365C281.354 75.6765 278.024 76.7565 274.784 76.7565C270.284 76.7565 268.304 75.5865 268.304 71.1765L268.304 70.8165C268.304 65.7765 270.104 63.1665 278.294 63.1665L283.964 63.1665L283.964 74.2365Z"/>
<path d="M333.374 83.9565L333.374 78.2865C333.374 77.3865 332.654 76.9365 331.484 76.9365L326.714 76.9365C323.474 76.9365 323.204 76.3965 323.204 71.8965L323.204 43.6365L331.304 43.6365C332.294 43.6365 333.104 42.8265 333.104 41.8365L333.104 36.5265C333.104 35.5365 332.294 34.7265 331.304 34.7265L323.204 34.7265L323.204 25.4565C323.204 24.5565 322.574 24.1065 321.764 24.1065C321.674 24.1065 321.494 24.1065 321.404 24.1065L313.034 25.5465C312.044 25.7265 311.234 26.3565 311.234 27.3465L311.234 34.7265L302.774 34.7265C301.784 34.7265 300.974 35.5365 300.974 36.5265L300.974 40.5765C300.974 41.5665 301.784 42.1965 302.774 42.3765L311.234 43.6365L311.234 71.8965C311.234 83.9565 315.374 86.2065 325.544 86.2065C327.524 86.2065 329.504 85.9365 331.664 85.5765C332.834 85.3965 333.374 84.8565 333.374 83.9565Z"/>
<path d="M353.894 26.1765L353.894 18.2565C353.894 17.2665 353.084 16.4565 352.094 16.4565L343.364 16.4565C342.374 16.4565 341.474 17.2665 341.474 18.2565L341.474 26.1765C341.474 27.1665 342.374 27.9765 343.364 27.9765L352.094 27.9765C353.084 27.9765 353.894 27.1665 353.894 26.1765ZM353.624 83.5965L353.624 36.5265C353.624 35.5365 352.814 34.7265 351.824 34.7265L343.544 34.7265C342.554 34.7265 341.744 35.5365 341.744 36.5265L341.744 83.5965C341.744 84.5865 342.554 85.4865 343.544 85.4865L351.824 85.4865C352.814 85.4865 353.624 84.5865 353.624 83.5965Z"/>
<path d="M407.084 63.7965L407.084 56.5065C407.084 43.6365 399.704 34.0965 385.574 34.0965C371.444 34.0965 364.064 43.6365 364.064 56.5065L364.064 63.7965C364.064 76.6665 371.444 86.2065 385.574 86.2065C399.704 86.2065 407.084 76.6665 407.084 63.7965ZM395.204 63.7965C395.204 71.1765 391.874 75.9465 385.574 75.9465C379.274 75.9465 375.944 71.1765 375.944 63.7965L375.944 56.5065C375.944 49.1265 379.274 44.3565 385.574 44.3565C391.874 44.3565 395.204 49.1265 395.204 56.5065L395.204 63.7965Z"/>
<path d="M458.834 83.5965L458.834 54.2565C458.834 42.8265 456.224 34.0965 443.264 34.0965C437.324 34.0965 433.904 35.0865 428.684 38.4165L428.684 36.5265C428.684 35.5365 427.874 34.7265 426.884 34.7265L419.054 34.7265C418.064 34.7265 417.254 35.5365 417.254 36.5265L417.254 83.5965C417.254 84.5865 418.064 85.4865 419.054 85.4865L427.334 85.4865C428.324 85.4865 429.134 84.5865 429.134 83.5965L429.134 47.4165C432.914 45.4365 436.244 44.1765 439.304 44.1765C446.234 44.1765 446.954 46.4265 446.954 54.2565L446.954 83.5965C446.954 84.5865 447.764 85.4865 448.754 85.4865L457.034 85.4865C458.024 85.4865 458.834 84.5865 458.834 83.5965Z"/>
</g>
</g>
</svg>
