<?xml version="1.0" encoding="UTF-8" standalone="no"?>
<!DOCTYPE svg PUBLIC "-//W3C//DTD SVG 1.1//EN" "http://www.w3.org/Graphics/SVG/1.1/DTD/svg11.dtd">
<!-- Created with Vectornator (http://vectornator.io/) -->
<svg height="100%" stroke-miterlimit="10" style="fill-rule:nonzero;clip-rule:evenodd;stroke-linecap:round;stroke-linejoin:round;" version="1.1" viewBox="0 0 527.88 104.6" width="100%" xml:space="preserve" xmlns="http://www.w3.org/2000/svg" xmlns:xlink="http://www.w3.org/1999/xlink">
<defs/>
<clipPath id="ArtboardFrame">
<rect height="104.6" width="527.88" x="0" y="0"/>
</clipPath>
<g clip-path="url(#ArtboardFrame)" id="buchstaben_vorn">
<path d="M373.077 103.213C323.889 103.213 255.668 62.8528 222.509 43.3313C219.704 41.6546 217.199 40.2174 214.995 38.9C139.461-11.9996 69.937-6.25093 2.4168 56.146C1.71555 56.7449 0.813949 56.6251 0.313057 55.7868C-0.187834 54.9484-0.087656 53.8705 0.613592 53.2717C32.9712 23.3307 65.1284 6.68356 98.7883 2.2523C136.556-2.77778 176.126 8.48002 216.498 35.6664C218.602 36.8641 221.206 38.421 224.011 40.0977C265.585 64.6493 363.059 122.256 406.035 90.2787C419.76 80.0988 426.672 61.1761 426.672 34.1095C426.672 33.1514 427.373 32.313 428.175 32.313L428.175 32.313C428.976 32.313 429.677 33.1514 429.677 34.1095C429.777 44.7685 431.681 97.8239 462.335 97.8239C463.137 97.8239 463.838 98.6622 463.838 99.6203C463.838 100.578 463.137 101.417 462.335 101.417C449.412 101.417 439.695 93.1531 433.484 76.985C430.779 69.7991 429.076 62.0145 428.074 54.8286C425.169 72.4339 418.357 85.3684 407.538 93.2728C398.121 100.339 386.3 103.213 373.077 103.213Z" fill="#07a9ff" fill-rule="nonzero" opacity="1" stroke="none"/>
<g fill="#1a2a5b" opacity="1" stroke="none">
<path d="M84.7938 84.1365L84.7938 22.2165C84.7938 20.2365 83.1738 18.6165 81.1938 18.6165L73.8138 18.6165C72.3738 18.6165 71.1138 19.5165 70.4838 20.7765L56.8938 48.3165C56.4438 49.1265 56.2638 49.5765 55.9038 49.5765C55.5438 49.5765 55.3638 49.1265 54.9138 48.3165L41.3238 20.7765C40.6938 19.5165 39.4338 18.6165 37.9938 18.6165L30.6138 18.6165C28.6338 18.6165 27.0138 20.2365 27.0138 22.2165L27.0138 84.1365C27.0138 85.0365 27.7338 85.4865 28.5438 85.4865L37.6338 85.4865C38.4438 85.4865 39.0738 84.5865 39.0738 83.6865L39.0738 41.8365C39.0738 41.2065 39.1638 40.9365 39.3438 40.9365C39.4338 40.9365 39.6138 41.2065 39.7938 41.4765L48.5238 58.6665C49.0638 59.6565 50.2338 60.1965 51.4038 60.1965L60.4938 60.1965C61.6638 60.1965 62.8338 59.6565 63.3738 58.6665L72.0138 41.4765C72.1938 41.2065 72.3738 40.9365 72.4638 40.9365C72.6438 40.9365 72.7338 41.2065 72.7338 41.8365L72.7338 83.6865C72.7338 84.5865 73.3638 85.4865 74.1738 85.4865L83.2638 85.4865C84.0738 85.4865 84.7938 85.0365 84.7938 84.1365Z"/>
<path d="M138.884 61.9965L138.884 56.9565C138.884 43.5465 131.324 34.0965 117.464 34.0965C103.694 34.0965 95.8638 42.9165 95.8638 56.9565L95.8638 63.6165C95.8638 81.3465 108.644 86.2065 117.644 86.2065C125.744 86.2065 129.254 85.7565 135.104 84.6765C136.724 84.4065 136.994 83.7765 136.994 82.3365L136.994 76.3965C136.994 75.4965 136.274 75.0465 135.374 75.0465C135.284 75.0465 135.194 75.0465 135.104 75.0465C131.324 75.4065 125.114 75.9465 118.544 75.9465C109.904 75.9465 107.744 69.7365 107.744 64.5165L107.744 64.2465L137.084 64.2465C138.344 64.2465 138.884 63.4365 138.884 61.9965ZM126.914 55.7865L107.834 55.7865L107.834 55.4265C107.834 48.3165 111.884 44.3565 117.464 44.3565C123.044 44.3565 126.914 48.4065 126.914 55.4265L126.914 55.7865Z"/>
<path d="M175.604 83.9565L175.604 78.2865C175.604 77.3865 174.884 76.9365 173.714 76.9365L168.944 76.9365C165.704 76.9365 165.434 76.3965 165.434 71.8965L165.434 43.6365L173.534 43.6365C174.524 43.6365 175.334 42.8265 175.334 41.8365L175.334 36.5265C175.334 35.5365 174.524 34.7265 173.534 34.7265L165.434 34.7265L165.434 25.4565C165.434 24.5565 164.804 24.1065 163.994 24.1065C163.904 24.1065 163.724 24.1065 163.634 24.1065L155.264 25.5465C154.274 25.7265 153.464 26.3565 153.464 27.3465L153.464 34.7265L145.004 34.7265C144.014 34.7265 143.204 35.5365 143.204 36.5265L143.204 40.5765C143.204 41.5665 144.014 42.1965 145.004 42.3765L153.464 43.6365L153.464 71.8965C153.464 83.9565 157.604 86.2065 167.774 86.2065C169.754 86.2065 171.734 85.9365 173.894 85.5765C175.064 85.3965 175.604 84.8565 175.604 83.9565Z"/>
<path d="M221.324 83.6865L221.324 51.2865C221.324 39.7665 214.304 34.0965 201.524 34.0965C195.314 34.0965 190.094 34.8165 186.494 35.5365C185.324 35.8065 184.784 36.4365 184.784 37.4265L184.784 43.1865C184.784 44.4465 185.504 44.7165 186.404 44.7165C186.494 44.7165 186.674 44.7165 186.854 44.7165C189.824 44.3565 195.764 43.9965 201.524 43.9965C206.834 43.9965 209.444 45.4365 209.444 51.2865L209.444 55.2465L203.774 55.2465C188.114 55.2465 181.814 60.5565 181.814 70.8165L181.814 71.1765C181.814 83.3265 189.914 86.2065 197.384 86.2065C201.704 86.2065 205.934 84.7665 210.074 82.2465L210.074 83.6865C210.074 84.6765 210.884 85.4865 211.874 85.4865L219.524 85.4865C220.514 85.4865 221.324 84.6765 221.324 83.6865ZM209.444 74.2365C206.834 75.6765 203.504 76.7565 200.264 76.7565C195.764 76.7565 193.784 75.5865 193.784 71.1765L193.784 70.8165C193.784 65.7765 195.584 63.1665 203.774 63.1665L209.444 63.1665L209.444 74.2365Z"/>
<path d="M273.254 81.4365L273.254 18.7965C273.254 17.8065 272.444 16.9965 271.454 16.9965L263.174 16.9965C262.184 16.9965 261.374 17.8065 261.374 18.7965L261.374 34.7265C258.044 34.2765 254.894 34.0965 252.734 34.0965C238.244 34.0965 231.224 42.6465 231.224 56.6865L231.224 63.6165C231.224 77.6565 238.244 86.2065 252.734 86.2065C258.494 86.2065 265.244 85.3065 270.824 83.8665C272.894 83.3265 273.254 82.7865 273.254 81.4365ZM261.374 75.8565C259.664 76.2165 255.974 76.4865 252.734 76.4865C244.994 76.4865 243.104 70.9965 243.104 63.6165L243.104 56.6865C243.104 49.3065 244.994 43.8165 252.734 43.8165C254.894 43.8165 258.854 44.0865 261.374 44.4465L261.374 75.8565Z"/>
<path d="M322.574 83.6865L322.574 51.2865C322.574 39.7665 315.554 34.0965 302.774 34.0965C296.564 34.0965 291.344 34.8165 287.744 35.5365C286.574 35.8065 286.034 36.4365 286.034 37.4265L286.034 43.1865C286.034 44.4465 286.754 44.7165 287.654 44.7165C287.744 44.7165 287.924 44.7165 288.104 44.7165C291.074 44.3565 297.014 43.9965 302.774 43.9965C308.084 43.9965 310.694 45.4365 310.694 51.2865L310.694 55.2465L305.024 55.2465C289.364 55.2465 283.064 60.5565 283.064 70.8165L283.064 71.1765C283.064 83.3265 291.164 86.2065 298.634 86.2065C302.954 86.2065 307.184 84.7665 311.324 82.2465L311.324 83.6865C311.324 84.6765 312.134 85.4865 313.124 85.4865L320.774 85.4865C321.764 85.4865 322.574 84.6765 322.574 83.6865ZM310.694 74.2365C308.084 75.6765 304.754 76.7565 301.514 76.7565C297.014 76.7565 295.034 75.5865 295.034 71.1765L295.034 70.8165C295.034 65.7765 296.834 63.1665 305.024 63.1665L310.694 63.1665L310.694 74.2365Z"/>
<path d="M360.104 83.9565L360.104 78.2865C360.104 77.3865 359.384 76.9365 358.214 76.9365L353.444 76.9365C350.204 76.9365 349.934 76.3965 349.934 71.8965L349.934 43.6365L358.034 43.6365C359.024 43.6365 359.834 42.8265 359.834 41.8365L359.834 36.5265C359.834 35.5365 359.024 34.7265 358.034 34.7265L349.934 34.7265L349.934 25.4565C349.934 24.5565 349.304 24.1065 348.494 24.1065C348.404 24.1065 348.224 24.1065 348.134 24.1065L339.764 25.5465C338.774 25.7265 337.964 26.3565 337.964 27.3465L337.964 34.7265L329.504 34.7265C328.514 34.7265 327.704 35.5365 327.704 36.5265L327.704 40.5765C327.704 41.5665 328.514 42.1965 329.504 42.3765L337.964 43.6365L337.964 71.8965C337.964 83.9565 342.104 86.2065 352.274 86.2065C354.254 86.2065 356.234 85.9365 358.394 85.5765C359.564 85.3965 360.104 84.8565 360.104 83.9565Z"/>
<path d="M405.824 83.6865L405.824 51.2865C405.824 39.7665 398.804 34.0965 386.024 34.0965C379.814 34.0965 374.594 34.8165 370.994 35.5365C369.824 35.8065 369.284 36.4365 369.284 37.4265L369.284 43.1865C369.284 44.4465 370.004 44.7165 370.904 44.7165C370.994 44.7165 371.174 44.7165 371.354 44.7165C374.324 44.3565 380.264 43.9965 386.024 43.9965C391.334 43.9965 393.944 45.4365 393.944 51.2865L393.944 55.2465L388.274 55.2465C372.614 55.2465 366.314 60.5565 366.314 70.8165L366.314 71.1765C366.314 83.3265 374.414 86.2065 381.884 86.2065C386.204 86.2065 390.434 84.7665 394.574 82.2465L394.574 83.6865C394.574 84.6765 395.384 85.4865 396.374 85.4865L404.024 85.4865C405.014 85.4865 405.824 84.6765 405.824 83.6865ZM393.944 74.2365C391.334 75.6765 388.004 76.7565 384.764 76.7565C380.264 76.7565 378.284 75.5865 378.284 71.1765L378.284 70.8165C378.284 65.7765 380.084 63.1665 388.274 63.1665L393.944 63.1665L393.944 74.2365Z"/>
</g>
</g>
</svg>
