<?xml version="1.0" encoding="UTF-8" standalone="no"?>
<!DOCTYPE svg PUBLIC "-//W3C//DTD SVG 1.1//EN" "http://www.w3.org/Graphics/SVG/1.1/DTD/svg11.dtd">
<!-- Created with Vectornator (http://vectornator.io/) -->
<svg height="100%" stroke-miterlimit="10" style="fill-rule:nonzero;clip-rule:evenodd;stroke-linecap:round;stroke-linejoin:round;" version="1.1" viewBox="0 0 527.88 104.6" width="100%" xml:space="preserve" xmlns="http://www.w3.org/2000/svg" xmlns:xlink="http://www.w3.org/1999/xlink">
<defs/>
<clipPath id="ArtboardFrame">
<rect height="104.6" width="527.88" x="0" y="0"/>
</clipPath>
<g clip-path="url(#ArtboardFrame)" id="buchstaben_vorn">
<path d="M225.438 103.213C195.715 103.213 154.491 62.8528 134.455 43.3313C132.76 41.6546 131.246 40.2174 129.914 38.9C84.2715-11.9996 42.2606-6.25093 1.46039 56.146C1.03665 56.7449 0.491842 56.6251 0.18917 55.7868C-0.113502 54.9484-0.0529676 53.8705 0.370773 53.2717C19.9234 23.3307 39.355 6.68356 59.6945 2.2523C82.516-2.77778 106.427 8.48002 130.823 35.6664C132.094 36.8641 133.668 38.421 135.363 40.0977C160.484 64.6493 219.384 122.256 245.354 90.2787C253.647 80.0988 257.824 61.1761 257.824 34.1095C257.824 33.1514 258.248 32.313 258.732 32.313L258.732 32.313C259.216 32.313 259.64 33.1514 259.64 34.1095C259.7 44.7685 260.85 97.8239 279.374 97.8239C279.858 97.8239 280.282 98.6622 280.282 99.6203C280.282 100.578 279.858 101.417 279.374 101.417C271.565 101.417 265.693 93.1531 261.94 76.985C260.306 69.7991 259.277 62.0145 258.671 54.8286C256.916 72.4339 252.799 85.3684 246.262 93.2728C240.571 100.339 233.428 103.213 225.438 103.213Z" fill="#07a9ff" fill-rule="nonzero" opacity="1" stroke="none"/>
<g fill="#1a2a5b" opacity="1" stroke="none">
<path d="M84.7938 84.1365L84.7938 22.2165C84.7938 20.2365 83.1738 18.6165 81.1938 18.6165L73.8138 18.6165C72.3738 18.6165 71.1138 19.5165 70.4838 20.7765L56.8938 48.3165C56.4438 49.1265 56.2638 49.5765 55.9038 49.5765C55.5438 49.5765 55.3638 49.1265 54.9138 48.3165L41.3238 20.7765C40.6938 19.5165 39.4338 18.6165 37.9938 18.6165L30.6138 18.6165C28.6338 18.6165 27.0138 20.2365 27.0138 22.2165L27.0138 84.1365C27.0138 85.0365 27.7338 85.4865 28.5438 85.4865L37.6338 85.4865C38.4438 85.4865 39.0738 84.5865 39.0738 83.6865L39.0738 41.8365C39.0738 41.2065 39.1638 40.9365 39.3438 40.9365C39.4338 40.9365 39.6138 41.2065 39.7938 41.4765L48.5238 58.6665C49.0638 59.6565 50.2338 60.1965 51.4038 60.1965L60.4938 60.1965C61.6638 60.1965 62.8338 59.6565 63.3738 58.6665L72.0138 41.4765C72.1938 41.2065 72.3738 40.9365 72.4638 40.9365C72.6438 40.9365 72.7338 41.2065 72.7338 41.8365L72.7338 83.6865C72.7338 84.5865 73.3638 85.4865 74.1738 85.4865L83.2638 85.4865C84.0738 85.4865 84.7938 85.0365 84.7938 84.1365Z"/>
<path d="M138.974 83.6865L138.974 36.6165C138.974 35.6265 138.164 34.7265 137.174 34.7265L128.894 34.7265C127.904 34.7265 127.094 35.6265 127.094 36.6165L127.094 72.6165C124.574 73.9665 120.254 76.2165 116.924 76.2165C114.134 76.2165 112.604 75.6765 111.344 74.5965C109.634 73.0665 109.274 70.4565 109.274 65.9565L109.274 36.6165C109.274 35.6265 108.464 34.7265 107.474 34.7265L99.1938 34.7265C98.2038 34.7265 97.3938 35.6265 97.3938 36.6165L97.3938 65.9565C97.3938 73.4265 98.5638 79.0065 101.894 82.3365C104.504 84.9465 108.464 86.1165 112.964 86.1165C118.724 86.1165 122.414 84.6765 127.094 81.6165L127.094 83.6865C127.094 84.6765 127.904 85.4865 128.894 85.4865L137.174 85.4865C138.164 85.4865 138.974 84.6765 138.974 83.6865Z"/>
<path d="M192.164 63.7965L192.164 56.5065C192.164 43.6365 184.784 34.0965 170.654 34.0965C156.524 34.0965 149.144 43.6365 149.144 56.5065L149.144 63.7965C149.144 76.6665 156.524 86.2065 170.654 86.2065C184.784 86.2065 192.164 76.6665 192.164 63.7965ZM180.284 63.7965C180.284 71.1765 176.954 75.9465 170.654 75.9465C164.354 75.9465 161.024 71.1765 161.024 63.7965L161.024 56.5065C161.024 49.1265 164.354 44.3565 170.654 44.3565C176.954 44.3565 180.284 49.1265 180.284 56.5065L180.284 63.7965Z"/>
<path d="M243.914 83.5965L243.914 54.2565C243.914 42.8265 241.304 34.0965 228.344 34.0965C222.404 34.0965 218.984 35.0865 213.764 38.4165L213.764 36.5265C213.764 35.5365 212.954 34.7265 211.964 34.7265L204.134 34.7265C203.144 34.7265 202.334 35.5365 202.334 36.5265L202.334 83.5965C202.334 84.5865 203.144 85.4865 204.134 85.4865L212.414 85.4865C213.404 85.4865 214.214 84.5865 214.214 83.5965L214.214 47.4165C217.994 45.4365 221.324 44.1765 224.384 44.1765C231.314 44.1765 232.034 46.4265 232.034 54.2565L232.034 83.5965C232.034 84.5865 232.844 85.4865 233.834 85.4865L242.114 85.4865C243.104 85.4865 243.914 84.5865 243.914 83.5965Z"/>
</g>
</g>
</svg>
