<?xml version="1.0" encoding="UTF-8" standalone="no"?>
<!DOCTYPE svg PUBLIC "-//W3C//DTD SVG 1.1//EN" "http://www.w3.org/Graphics/SVG/1.1/DTD/svg11.dtd">
<!-- Created with Vectornator (http://vectornator.io/) -->
<svg height="100%" stroke-miterlimit="10" style="fill-rule:nonzero;clip-rule:evenodd;stroke-linecap:round;stroke-linejoin:round;" version="1.1" viewBox="0 0 527.88 104.6" width="100%" xml:space="preserve" xmlns="http://www.w3.org/2000/svg" xmlns:xlink="http://www.w3.org/1999/xlink">
<defs/>
<clipPath id="ArtboardFrame">
<rect height="104.6" width="527.88" x="0" y="0"/>
</clipPath>
<g clip-path="url(#ArtboardFrame)" id="buchstaben_vorn">
<path d="M282.693 101.629C245.422 101.629 193.728 61.8946 168.602 42.6759C166.477 41.0252 164.579 39.6104 162.909 38.3134C105.674-11.7966 52.9936-6.13711 1.83129 55.2918C1.29993 55.8814 0.616756 55.7635 0.237214 54.9381C-0.142328 54.1128-0.0664199 53.0516 0.464939 52.4621C24.9834 22.9856 49.35 6.59672 74.8553 2.23421C103.473-2.71784 133.457 8.36531 164.048 35.1299C165.642 36.309 167.615 37.8418 169.741 39.4925C201.243 63.6632 275.102 120.376 307.667 88.895C318.066 78.873 323.304 60.2439 323.304 33.5972C323.304 32.6539 323.835 31.8286 324.442 31.8286L324.442 31.8286C325.05 31.8286 325.581 32.6539 325.581 33.5972C325.657 44.0908 327.099 96.3231 350.327 96.3231C350.934 96.3231 351.466 97.1484 351.466 98.0917C351.466 99.0349 350.934 99.8602 350.327 99.8602C340.535 99.8602 333.172 91.7247 328.465 75.8075C326.416 68.7331 325.126 61.0692 324.366 53.9949C322.165 71.327 317.003 84.0609 308.805 91.8427C301.67 98.7991 292.713 101.629 282.693 101.629Z" fill="#07a9ff" fill-rule="nonzero" opacity="1" stroke="none"/>
<g fill="#1a2a5b" opacity="1" stroke="none">
<path d="M67.5138 67.3965C67.5138 60.2865 64.9038 54.5265 55.0038 49.0365L44.2038 43.0065C38.3538 39.7665 36.8238 37.9665 36.8238 34.9965C36.8238 30.9465 39.6138 28.6065 46.2738 28.6065C52.1238 28.6065 58.0638 28.9665 64.0038 29.5065C64.0938 29.5065 64.0938 29.5065 64.1838 29.5065C65.0838 29.5065 65.7138 28.7865 65.7138 27.8865L65.7138 21.2265C65.7138 20.3265 64.9938 19.6965 64.0938 19.5165C61.0338 18.7965 52.7538 17.8965 46.8138 17.8965C30.0738 17.8965 24.3138 25.0965 24.3138 34.9965C24.3138 41.2965 26.5638 46.5165 34.9338 51.4665L46.8138 58.5765C52.7538 62.0865 54.4638 63.8865 54.4638 67.3965C54.4638 72.6165 52.0338 75.4965 44.0238 75.4965C40.6938 75.4965 31.6938 75.0465 28.0938 74.5965C28.0038 74.5965 28.0038 74.5965 27.9138 74.5965C27.0138 74.5965 26.2038 75.3165 26.2038 76.3065L26.2038 82.7865C26.2038 83.7765 27.0138 84.4065 27.9138 84.5865C32.2338 85.5765 37.0938 86.2065 43.8438 86.2065C61.8438 86.2065 67.5138 76.4865 67.5138 67.3965Z"/>
<path d="M118.904 63.7965L118.904 56.5065C118.904 43.6365 111.524 34.0965 97.3938 34.0965C83.2638 34.0965 75.8838 43.6365 75.8838 56.5065L75.8838 63.7965C75.8838 76.6665 83.2638 86.2065 97.3938 86.2065C111.524 86.2065 118.904 76.6665 118.904 63.7965ZM107.024 63.7965C107.024 71.1765 103.694 75.9465 97.3938 75.9465C91.0938 75.9465 87.7638 71.1765 87.7638 63.7965L87.7638 56.5065C87.7638 49.1265 91.0938 44.3565 97.3938 44.3565C103.694 44.3565 107.024 49.1265 107.024 56.5065L107.024 63.7965Z"/>
<path d="M155.174 42.3765L155.174 35.8965C155.174 34.9065 154.364 34.0965 153.374 34.0965C149.774 34.0965 144.914 34.9965 140.504 38.4165L140.504 36.5265C140.504 35.5365 139.694 34.7265 138.704 34.7265L130.874 34.7265C129.884 34.7265 129.074 35.5365 129.074 36.5265L129.074 83.5965C129.074 84.5865 129.884 85.4865 130.874 85.4865L139.154 85.4865C140.144 85.4865 140.954 84.5865 140.954 83.5965L140.954 47.4165C144.734 45.4365 148.514 44.1765 153.374 44.1765C154.364 44.1765 155.174 43.3665 155.174 42.3765Z"/>
<path d="M191.174 83.9565L191.174 78.2865C191.174 77.3865 190.454 76.9365 189.284 76.9365L184.514 76.9365C181.274 76.9365 181.004 76.3965 181.004 71.8965L181.004 43.6365L189.104 43.6365C190.094 43.6365 190.904 42.8265 190.904 41.8365L190.904 36.5265C190.904 35.5365 190.094 34.7265 189.104 34.7265L181.004 34.7265L181.004 25.4565C181.004 24.5565 180.374 24.1065 179.564 24.1065C179.474 24.1065 179.294 24.1065 179.204 24.1065L170.834 25.5465C169.844 25.7265 169.034 26.3565 169.034 27.3465L169.034 34.7265L160.574 34.7265C159.584 34.7265 158.774 35.5365 158.774 36.5265L158.774 40.5765C158.774 41.5665 159.584 42.1965 160.574 42.3765L169.034 43.6365L169.034 71.8965C169.034 83.9565 173.174 86.2065 183.344 86.2065C185.324 86.2065 187.304 85.9365 189.464 85.5765C190.634 85.3965 191.174 84.8565 191.174 83.9565Z"/>
<path d="M263.804 63.6165L263.804 56.6865C263.804 42.6465 256.784 34.0965 242.294 34.0965C240.134 34.0965 236.984 34.2765 233.654 34.7265L233.654 18.7965C233.654 17.8065 232.844 16.9965 231.854 16.9965L223.574 16.9965C222.584 16.9965 221.774 17.8065 221.774 18.7965L221.774 81.4365C221.774 82.7865 222.134 83.3265 224.204 83.8665C229.784 85.3065 236.534 86.2065 242.294 86.2065C256.784 86.2065 263.804 77.6565 263.804 63.6165ZM251.924 63.6165C251.924 70.9965 250.034 76.4865 242.294 76.4865C239.054 76.4865 235.364 76.2165 233.654 75.8565L233.654 44.4465C236.174 44.0865 240.134 43.8165 242.294 43.8165C250.034 43.8165 251.924 49.3065 251.924 56.6865L251.924 63.6165Z"/>
<path d="M314.204 36.2565C314.204 35.4465 313.484 34.7265 312.584 34.7265L303.404 34.7265C302.504 34.7265 301.784 35.4465 301.604 36.2565L291.884 74.9565C291.884 74.9565 291.884 74.9565 291.614 74.9565C291.524 74.9565 291.344 74.9565 291.164 74.9565L291.074 74.9565C290.534 74.9565 290.174 74.5065 289.814 72.9765L280.724 36.3465C280.544 35.5365 279.824 34.7265 279.014 34.7265L269.924 34.7265C268.754 34.7265 268.214 35.2665 268.214 36.1665C268.214 36.3465 268.214 36.5265 268.304 36.7965L280.094 78.0165C282.074 84.8565 285.314 85.4865 287.924 85.4865L289.274 85.4865L288.554 88.1865C287.294 92.8665 285.314 93.9465 281.444 93.9465C278.924 93.9465 273.794 93.4965 271.274 93.4065C271.184 93.4065 271.184 93.4065 271.094 93.4065C270.104 93.4065 269.294 94.0365 269.294 95.0265L269.294 100.787C269.294 101.687 270.194 102.047 271.184 102.317C273.254 102.947 277.754 103.487 280.724 103.487C292.964 103.487 296.294 99.1665 299.084 89.3565L314.114 36.7965C314.204 36.6165 314.204 36.4365 314.204 36.2565Z"/>
</g>
</g>
</svg>
