<svg width="733" height="184" viewBox="0 0 733 184" fill="none" xmlns="http://www.w3.org/2000/svg">
<rect width="733" height="184" rx="60" fill="white"/>
<path d="M135 70C139.971 70 144 65.9706 144 61C144 56.0294 139.971 52 135 52C130.029 52 126 56.0294 126 61C126 65.9706 130.029 70 135 70Z" fill="black"/>
<path d="M114.647 70.9696V81.8175L123.074 84.41C125.126 85.2393 126.468 87.2114 126.468 89.405V115.39C126.468 117.188 125.635 118.888 124.208 120.005L115 126C114.225 126.605 114 127.5 114 127.96V130.856C114 133.696 116.33 136 119.202 136H149.82C154.244 136 157.967 132.727 158.482 128.384L164.968 73.9325C165.384 70.4252 161.671 67.877 158.498 69.5009C150.701 73.4956 139.823 78.9908 133.056 78.8294C125.575 78.6489 119.48 73.3342 116.545 70.2257C115.866 69.5072 114.647 69.9883 114.647 70.9728V70.9696Z" fill="#040000"/>
<path d="M69.4012 81.8684L65.0422 119.009C64.6479 122.356 67.0687 125.317 70.2008 125.317H98.7536L96.8457 135.61C96.7519 136.119 97.2813 136.493 97.6756 136.193L120.907 118.494C122.355 117.391 123.215 115.598 123.215 113.687V91.1266C123.215 88.4181 121.42 86.0991 118.95 85.6115L75.4945 77.0579C72.5609 76.4811 69.7789 78.6782 69.404 81.8684H69.4012Z" fill="#040000"/>
<path d="M79.7223 92.4377C78.6172 94.0586 77.07 98.494 79.7223 103.268" stroke="white" stroke-width="1.5" stroke-linecap="square"/>
<rect x="76.0515" y="96.7377" width="2.69498" height="4.4206" rx="1.34749" transform="rotate(-3.56167 76.0515 96.7377)" fill="white"/>
<rect x="94.176" y="95.9746" width="2.65236" height="6.18884" rx="1.32618" fill="white"/>
<path d="M113.627 93.764C114.732 95.3849 116.279 99.8202 113.627 104.594" stroke="white" stroke-width="1.5" stroke-linecap="square"/>
<rect width="2.69498" height="4.4206" rx="1.34749" transform="matrix(-0.998069 -0.0621229 -0.0621229 0.998069 117.298 98.0639)" fill="white"/>
<rect width="2.65236" height="6.18884" rx="1.32618" transform="matrix(-1 0 0 1 105.228 95.9746)" fill="white"/>
<path d="M75.5067 66.8623C80.4562 60.1012 87.0448 54.741 94.6384 51.2972C102.232 47.8534 110.575 46.442 118.865 47.1988L118.506 51.2135C110.898 50.5189 103.241 51.8142 96.2723 54.9747C89.3034 58.1352 83.2569 63.0545 78.7145 69.2593L75.5067 66.8623Z" fill="black"/>
<path d="M215.028 115.85C211.974 115.85 209.094 115.283 206.386 114.15C203.71 112.985 201.349 111.395 199.303 109.381C197.288 107.366 195.698 105.02 194.533 102.344C193.4 99.6685 192.833 96.8037 192.833 93.75C192.833 90.6963 193.4 87.8315 194.533 85.1556C195.698 82.4796 197.288 80.1343 199.303 78.1194C201.349 76.1046 203.71 74.5306 206.386 73.3972C209.094 72.2324 211.974 71.65 215.028 71.65C218.05 71.65 220.883 72.2167 223.528 73.35C226.172 74.4519 228.502 75.9787 230.517 77.9306L228.958 84.4472C227.51 82.1176 225.558 80.2602 223.103 78.875C220.679 77.4583 217.987 76.75 215.028 76.75C211.911 76.75 209.094 77.5213 206.575 79.0639C204.088 80.575 202.105 82.6213 200.625 85.2028C199.145 87.7528 198.406 90.6019 198.406 93.75C198.406 96.8667 199.145 99.7157 200.625 102.297C202.105 104.879 204.088 106.941 206.575 108.483C209.094 109.994 211.911 110.75 215.028 110.75C218.019 110.75 220.726 110.042 223.15 108.625C225.574 107.208 227.51 105.351 228.958 103.053L230.517 109.569C228.502 111.49 226.172 113.017 223.528 114.15C220.883 115.283 218.05 115.85 215.028 115.85ZM248.612 115.567C245.873 115.567 243.371 114.906 241.104 113.583C238.837 112.261 237.027 110.482 235.673 108.247C234.351 106.012 233.69 103.541 233.69 100.833C233.69 98.0944 234.351 95.6231 235.673 93.4194C237.027 91.1843 238.837 89.4056 241.104 88.0833C243.371 86.7611 245.873 86.1 248.612 86.1C251.383 86.1 253.885 86.7611 256.121 88.0833C258.387 89.4056 260.182 91.1843 261.504 93.4194C262.858 95.6231 263.534 98.0944 263.534 100.833C263.534 103.541 262.858 106.012 261.504 108.247C260.182 110.482 258.387 112.261 256.121 113.583C253.885 114.906 251.383 115.567 248.612 115.567ZM248.612 110.75C250.438 110.75 252.091 110.309 253.571 109.428C255.05 108.515 256.231 107.319 257.112 105.839C257.994 104.328 258.434 102.659 258.434 100.833C258.434 99.0074 257.994 97.3546 257.112 95.875C256.231 94.3639 255.05 93.1676 253.571 92.2861C252.091 91.3731 250.438 90.9167 248.612 90.9167C246.786 90.9167 245.134 91.3731 243.654 92.2861C242.174 93.1676 240.994 94.3639 240.112 95.875C239.231 97.3546 238.79 99.0074 238.79 100.833C238.79 102.659 239.231 104.328 240.112 105.839C240.994 107.319 242.174 108.515 243.654 109.428C245.134 110.309 246.786 110.75 248.612 110.75ZM269.243 115V69.6667H274.343V115H269.243ZM282.028 115V69.6667H287.128V115H282.028ZM306.948 115.378C304.367 115.378 302.006 114.732 299.865 113.442C297.724 112.119 296.008 110.356 294.718 108.153C293.458 105.949 292.829 103.509 292.829 100.833C292.829 98.1574 293.458 95.7176 294.718 93.5139C296.008 91.3102 297.724 89.563 299.865 88.2722C302.006 86.95 304.367 86.2889 306.948 86.2889C308.9 86.2889 310.726 86.6509 312.426 87.375C314.157 88.0991 315.653 89.1065 316.912 90.3972V86.6667H321.634V115H316.912V111.269C315.653 112.529 314.157 113.536 312.426 114.292C310.726 115.016 308.9 115.378 306.948 115.378ZM307.609 110.75C309.404 110.75 311.025 110.309 312.473 109.428C313.953 108.515 315.118 107.319 315.968 105.839C316.849 104.328 317.29 102.659 317.29 100.833C317.29 99.0074 316.849 97.3546 315.968 95.875C315.118 94.3639 313.953 93.1676 312.473 92.2861C311.025 91.3731 309.404 90.9167 307.609 90.9167C305.815 90.9167 304.178 91.3731 302.698 92.2861C301.25 93.1676 300.085 94.3639 299.204 95.875C298.354 97.3546 297.929 99.0074 297.929 100.833C297.929 102.659 298.354 104.328 299.204 105.839C300.085 107.319 301.25 108.515 302.698 109.428C304.178 110.309 305.815 110.75 307.609 110.75ZM343.998 115.378C342.046 115.378 340.22 115.016 338.52 114.292C336.82 113.536 335.324 112.529 334.034 111.269V115H329.311V69.6667H334.411V90.0194C335.671 88.8546 337.119 87.9417 338.756 87.2806C340.393 86.6194 342.14 86.2889 343.998 86.2889C346.611 86.2889 348.972 86.95 351.081 88.2722C353.222 89.563 354.922 91.3102 356.181 93.5139C357.472 95.7176 358.117 98.1574 358.117 100.833C358.117 103.509 357.472 105.949 356.181 108.153C354.922 110.356 353.222 112.119 351.081 113.442C348.972 114.732 346.611 115.378 343.998 115.378ZM343.336 110.75C345.131 110.75 346.752 110.309 348.2 109.428C349.68 108.515 350.845 107.319 351.695 105.839C352.576 104.328 353.017 102.659 353.017 100.833C353.017 99.0074 352.576 97.3546 351.695 95.875C350.845 94.3639 349.68 93.1676 348.2 92.2861C346.752 91.3731 345.131 90.9167 343.336 90.9167C341.542 90.9167 339.905 91.3731 338.425 92.2861C336.977 93.1676 335.812 94.3639 334.931 95.875C334.081 97.3546 333.656 99.0074 333.656 100.833C333.656 102.659 334.081 104.328 334.931 105.839C335.812 107.319 336.977 108.515 338.425 109.428C339.905 110.309 341.542 110.75 343.336 110.75ZM376.75 115.567C374.011 115.567 371.508 114.906 369.241 113.583C366.975 112.261 365.165 110.482 363.811 108.247C362.489 106.012 361.827 103.541 361.827 100.833C361.827 98.0944 362.489 95.6231 363.811 93.4194C365.165 91.1843 366.975 89.4056 369.241 88.0833C371.508 86.7611 374.011 86.1 376.75 86.1C379.52 86.1 382.023 86.7611 384.258 88.0833C386.525 89.4056 388.319 91.1843 389.641 93.4194C390.995 95.6231 391.672 98.0944 391.672 100.833C391.672 103.541 390.995 106.012 389.641 108.247C388.319 110.482 386.525 112.261 384.258 113.583C382.023 114.906 379.52 115.567 376.75 115.567ZM376.75 110.75C378.576 110.75 380.228 110.309 381.708 109.428C383.188 108.515 384.368 107.319 385.25 105.839C386.131 104.328 386.572 102.659 386.572 100.833C386.572 99.0074 386.131 97.3546 385.25 95.875C384.368 94.3639 383.188 93.1676 381.708 92.2861C380.228 91.3731 378.576 90.9167 376.75 90.9167C374.924 90.9167 373.271 91.3731 371.791 92.2861C370.312 93.1676 369.131 94.3639 368.25 95.875C367.368 97.3546 366.927 99.0074 366.927 100.833C366.927 102.659 367.368 104.328 368.25 105.839C369.131 107.319 370.312 108.515 371.791 109.428C373.271 110.309 374.924 110.75 376.75 110.75ZM397.381 115V86.6667H402.103V91.8611C403.11 90.1926 404.448 88.8704 406.117 87.8944C407.785 86.887 409.768 86.3833 412.067 86.3833L413.342 91.4833C412.743 91.2944 412.051 91.2 411.264 91.2C408.619 91.2 406.494 92.05 404.889 93.75C403.283 95.4185 402.481 97.8111 402.481 100.928V115H397.381ZM428.477 115.378C425.895 115.378 423.534 114.732 421.394 113.442C419.253 112.119 417.537 110.356 416.246 108.153C414.987 105.949 414.357 103.509 414.357 100.833C414.357 98.1574 414.987 95.7176 416.246 93.5139C417.537 91.3102 419.253 89.563 421.394 88.2722C423.534 86.95 425.895 86.2889 428.477 86.2889C430.429 86.2889 432.255 86.6509 433.955 87.375C435.686 88.0991 437.182 89.1065 438.441 90.3972V86.6667H443.163V115H438.441V111.269C437.182 112.529 435.686 113.536 433.955 114.292C432.255 115.016 430.429 115.378 428.477 115.378ZM429.138 110.75C430.932 110.75 432.554 110.309 434.002 109.428C435.482 108.515 436.646 107.319 437.496 105.839C438.378 104.328 438.819 102.659 438.819 100.833C438.819 99.0074 438.378 97.3546 437.496 95.875C436.646 94.3639 435.482 93.1676 434.002 92.2861C432.554 91.3731 430.932 90.9167 429.138 90.9167C427.344 90.9167 425.707 91.3731 424.227 92.2861C422.779 93.1676 421.614 94.3639 420.732 95.875C419.882 97.3546 419.457 99.0074 419.457 100.833C419.457 102.659 419.882 104.328 420.732 105.839C421.614 107.319 422.779 108.515 424.227 109.428C425.707 110.309 427.344 110.75 429.138 110.75ZM454.146 115V90.9167H447.724V86.6667H454.287V77.2222H459.104V86.6667H466.14V90.9167H459.246V115H454.146ZM470.73 115V86.6667H475.83V115H470.73ZM473.28 81.5667C472.336 81.5667 471.533 81.2361 470.872 80.575C470.211 79.9139 469.88 79.1111 469.88 78.1667C469.88 77.1907 470.211 76.388 470.872 75.7583C471.533 75.0972 472.336 74.7667 473.28 74.7667C474.256 74.7667 475.059 75.0972 475.689 75.7583C476.35 76.388 476.68 77.1907 476.68 78.1667C476.68 79.1111 476.35 79.9139 475.689 80.575C475.059 81.2361 474.256 81.5667 473.28 81.5667ZM493.856 116.417L479.548 86.6667H485.356L491.118 98.9444C491.653 100.046 492.156 101.132 492.629 102.203C493.101 103.273 493.557 104.58 493.998 106.122C494.47 104.58 494.943 103.273 495.415 102.203C495.918 101.101 496.422 100.015 496.926 98.9444L502.734 86.6667H508.165L493.856 116.417ZM524.016 115.567C521.056 115.567 518.396 114.906 516.035 113.583C513.706 112.261 511.864 110.467 510.51 108.2C509.188 105.902 508.527 103.352 508.527 100.55C508.527 97.8741 509.172 95.45 510.463 93.2778C511.754 91.0741 513.485 89.3269 515.657 88.0361C517.861 86.7454 520.285 86.1 522.93 86.1C525.543 86.1 527.935 86.7296 530.107 87.9889C532.28 89.2167 534.011 90.8852 535.302 92.9944C536.593 95.1037 537.238 97.4963 537.238 100.172V102.25H518.727C517.908 102.25 517.074 102.219 516.224 102.156C515.374 102.093 514.54 101.998 513.721 101.872C514.068 104.391 515.201 106.5 517.121 108.2C519.073 109.9 521.387 110.75 524.063 110.75C525.857 110.75 527.526 110.341 529.069 109.522C530.611 108.704 531.855 107.618 532.799 106.264L534.216 112.072C532.862 113.174 531.304 114.04 529.541 114.669C527.809 115.268 525.968 115.567 524.016 115.567ZM513.58 98.425C515.28 98.1417 516.995 98 518.727 98H528.124C528.817 98 529.494 98.0315 530.155 98.0944C530.847 98.1259 531.54 98.1731 532.232 98.2361C531.792 96.0324 530.69 94.2222 528.927 92.8056C527.164 91.3574 525.165 90.6333 522.93 90.6333C520.631 90.6333 518.617 91.4046 516.885 92.9472C515.154 94.4583 514.052 96.2843 513.58 98.425ZM575.917 115.85C572.832 115.85 569.951 115.283 567.275 114.15C564.6 112.985 562.238 111.395 560.192 109.381C558.177 107.334 556.603 104.989 555.47 102.344C554.337 99.6685 553.77 96.8037 553.77 93.75C553.77 90.6963 554.337 87.8472 555.47 85.2028C556.635 82.5269 558.225 80.1815 560.239 78.1667C562.286 76.1204 564.647 74.5306 567.323 73.3972C569.999 72.2324 572.879 71.65 575.964 71.65C578.987 71.65 581.82 72.2167 584.464 73.35C587.109 74.4519 589.438 75.9787 591.453 77.9306L589.895 84.4472C588.447 82.1176 586.495 80.2602 584.039 78.875C581.615 77.4583 578.924 76.75 575.964 76.75C572.848 76.75 570.03 77.5213 567.512 79.0639C565.025 80.575 563.041 82.6213 561.562 85.2028C560.082 87.7528 559.342 90.6019 559.342 93.75C559.342 96.8352 560.066 99.6685 561.514 102.25C562.994 104.831 564.977 106.894 567.464 108.436C569.983 109.979 572.8 110.75 575.917 110.75C577.68 110.75 579.349 110.545 580.923 110.136C582.528 109.695 583.992 109.081 585.314 108.294V97.15H573.603V92.3333H590.509V111.033C588.588 112.639 586.353 113.851 583.803 114.669C581.285 115.456 578.656 115.85 575.917 115.85ZM595.894 129.167L605.103 110.844L593.108 86.6667H598.869L604.914 98.9444C605.449 100.046 605.968 101.132 606.472 102.203C606.976 103.273 607.479 104.564 607.983 106.075C608.518 104.564 609.022 103.273 609.494 102.203C609.998 101.101 610.533 100.015 611.1 98.9444L617.239 86.6667H622.669L601.419 129.167H595.894ZM626.394 115V86.6667H631.117V90.7278C632.156 89.1852 633.462 88.0361 635.036 87.2806C636.642 86.4935 638.326 86.1 640.089 86.1C642.009 86.1 643.772 86.5565 645.378 87.4694C646.983 88.3509 648.274 89.5944 649.25 91.2C650.352 89.5 651.768 88.225 653.5 87.375C655.263 86.525 657.12 86.1 659.072 86.1C661.213 86.1 663.165 86.6037 664.928 87.6111C666.722 88.6185 668.139 90.0352 669.178 91.8611C670.248 93.6556 670.783 95.7806 670.783 98.2361V115H665.683V98.85C665.683 96.2685 664.943 94.3167 663.464 92.9944C662.016 91.6407 660.331 90.9639 658.411 90.9639C657.215 90.9639 656.05 91.2315 654.917 91.7667C653.815 92.3019 652.902 93.1361 652.178 94.2694C651.485 95.4028 651.139 96.8824 651.139 98.7083V115H646.039V98.85C646.039 97.0556 645.677 95.5759 644.953 94.4111C644.26 93.2463 643.347 92.3806 642.214 91.8139C641.112 91.2157 639.963 90.9167 638.767 90.9167C637.602 90.9167 636.453 91.1843 635.319 91.7194C634.218 92.2546 633.305 93.0889 632.581 94.2222C631.856 95.3556 631.494 96.8509 631.494 98.7083V115H626.394Z" fill="black"/>
</svg>
