<?xml version="1.0" encoding="UTF-8" standalone="no"?>
<!DOCTYPE svg PUBLIC "-//W3C//DTD SVG 1.1//EN" "http://www.w3.org/Graphics/SVG/1.1/DTD/svg11.dtd">
<svg width="100%" height="100%" viewBox="0 0 12840 14215" version="1.1" xmlns="http://www.w3.org/2000/svg" xmlns:xlink="http://www.w3.org/1999/xlink" xml:space="preserve" xmlns:serif="http://www.serif.com/" style="fill-rule:evenodd;clip-rule:evenodd;stroke-linejoin:round;stroke-miterlimit:2;">
    <g id="path3225" transform="matrix(0.80913,0,0,0.80913,-2488.25,-4938.48)">
        <path d="M10880,10820C10880,12487.7 10085.5,13860 9120,13860C8154.49,13860 7360,12487.7 7360,10820C7360,9152.31 8154.49,7780 9120,7780C10085.5,7780 10880,9152.31 10880,10820Z" style="fill-rule:nonzero;"/>
    </g>
    <g id="path3995" transform="matrix(0.80913,0,0,0.80913,570.262,-4812.83)">
        <path d="M10880,10820C10880,12487.7 10085.5,13860 9120,13860C8154.49,13860 7360,12487.7 7360,10820C7360,9152.31 8154.49,7780 9120,7780C10085.5,7780 10880,9152.31 10880,10820Z" style="fill-rule:nonzero;"/>
    </g>
    <g id="path3997" transform="matrix(0.647789,-0.11539,0.11539,0.647789,-4737.87,683.172)">
        <path d="M10880,10820C10880,12487.7 10085.5,13860 9120,13860C8154.49,13860 7360,12487.7 7360,10820C7360,9152.31 8154.49,7780 9120,7780C10085.5,7780 10880,9152.31 10880,10820Z" style="fill-rule:nonzero;"/>
    </g>
    <g id="path3999" transform="matrix(-0.675712,-0.120358,-0.120358,0.675712,17834.3,373.453)">
        <path d="M10880,10820C10880,12487.7 10085.5,13860 9120,13860C8154.49,13860 7360,12487.7 7360,10820C7360,9152.31 8154.49,7780 9120,7780C10085.5,7780 10880,9152.31 10880,10820Z" style="fill-rule:nonzero;"/>
    </g>
    <g id="path4007" transform="matrix(0.80913,0,0,0.80913,1225.33,1356.55)">
        <path d="M6370.4,6612.2C5626.55,6612.2 4875.9,6863.93 4685.6,7437.73C4495.3,8011.53 4344.92,8713.63 3858.41,9200.13C3371.9,9686.63 3037.37,9653.22 2394.71,9870.66C1752.06,10088.1 1070.41,10934.1 1070.41,11962.2C1070.41,12990.3 2282.01,14154.9 2877.21,14154.9C3472.45,14154.9 3869.03,14123.9 3969.41,13882.9C4069.75,13641.8 4270.33,13441.2 4517.75,13441.2C4765.17,13441.2 4965.75,13641.8 5135.39,13862.2C5305.03,14082.5 5697.61,14180 6157.19,14180C6616.77,14180 7143.84,14120.9 7350.79,13874.1C7557.79,13627.4 7632.81,13441.2 7877.7,13441.2C8122.6,13441.2 8325.7,13641.8 8543.19,13957.6C8760.68,14273.4 9251.58,14216.5 9747.69,14198.8C10243.8,14181.1 11395.4,13071.8 11395.4,12112.2C11395.4,11152.6 11040.9,10410.2 10478.2,10166.9C9915.54,9923.6 9455.73,10073.6 8932.43,9550.21C8409.07,9026.85 8373.62,7871.31 8064.55,7438.01C7755.49,7004.75 7114.25,6612.2 6370.35,6612.2L6370.4,6612.2Z" style="fill-rule:nonzero;"/>
    </g>
</svg>
