<?xml version="1.0" encoding="UTF-8" standalone="no"?>
<!DOCTYPE svg PUBLIC "-//W3C//DTD SVG 1.1//EN" "http://www.w3.org/Graphics/SVG/1.1/DTD/svg11.dtd">
<svg width="100%" height="100%" viewBox="0 0 200 200" version="1.1" xmlns="http://www.w3.org/2000/svg" xmlns:xlink="http://www.w3.org/1999/xlink" xml:space="preserve" xmlns:serif="http://www.serif.com/" style="fill-rule:evenodd;clip-rule:evenodd;stroke-linejoin:round;stroke-miterlimit:2;">
    <g>
        <g id="g2299" transform="matrix(0.280307,0,0,0.280307,83.4745,-22.3166)">
            <path d="M274.96,416.44L82.127,416.44L82.127,447.21C82.127,484.64 28.528,485.08 28.528,447.21L28.528,416.44L0,416.44L0,320.2C0,294.36 20.577,280.7 32.197,279.22L61.532,203.55C67.054,189.14 79.019,176.82 101.57,176.82L255.49,176.82C278.04,176.82 290.01,189.14 295.53,203.55L324.86,279.22C336.48,280.7 357.08,294.36 357.08,320.2L357.08,416.44L328.55,416.44L328.55,447.21C328.55,485.08 274.96,484.64 274.96,447.21L274.96,416.44ZM294.49,278.44L272.41,218.88C269.64,210.52 265.5,204.48 255.84,204.39L101.22,204.39C91.559,204.48 87.416,210.52 84.655,218.88L62.57,278.44L294.49,278.44ZM56.18,358.44C69.853,358.44 80.937,347.02 80.937,332.93C80.937,318.83 69.853,307.41 56.18,307.41C42.508,307.41 31.422,318.83 31.422,332.93C31.422,347.02 42.508,358.44 56.18,358.44ZM300.88,358.44C314.55,358.44 325.64,347.02 325.64,332.93C325.64,318.83 314.55,307.41 300.88,307.41C287.21,307.41 276.12,318.83 276.12,332.93C276.12,347.02 287.21,358.44 300.88,358.44Z" style="stroke:white;stroke-width:3.57px;"/>
        </g>
        <g id="g22991" serif:id="g2299" transform="matrix(0.280307,0,0,0.280307,25.9419,37.9714)">
            <path d="M274.96,416.44L82.127,416.44L82.127,447.21C82.127,484.64 28.528,485.08 28.528,447.21L28.528,416.44L0,416.44L0,320.2C0,294.36 20.577,280.7 32.197,279.22L61.532,203.55C67.054,189.14 79.019,176.82 101.57,176.82L255.49,176.82C278.04,176.82 290.01,189.14 295.53,203.55L324.86,279.22C336.48,280.7 357.08,294.36 357.08,320.2L357.08,416.44L328.55,416.44L328.55,447.21C328.55,485.08 274.96,484.64 274.96,447.21L274.96,416.44ZM294.49,278.44L272.41,218.88C269.64,210.52 265.5,204.48 255.84,204.39L101.22,204.39C91.559,204.48 87.416,210.52 84.655,218.88L62.57,278.44L294.49,278.44ZM56.18,358.44C69.853,358.44 80.937,347.02 80.937,332.93C80.937,318.83 69.853,307.41 56.18,307.41C42.508,307.41 31.422,318.83 31.422,332.93C31.422,347.02 42.508,358.44 56.18,358.44ZM300.88,358.44C314.55,358.44 325.64,347.02 325.64,332.93C325.64,318.83 314.55,307.41 300.88,307.41C287.21,307.41 276.12,318.83 276.12,332.93C276.12,347.02 287.21,358.44 300.88,358.44Z" style="stroke:white;stroke-width:3.57px;"/>
        </g>
    </g>
</svg>
