<?xml version="1.0" encoding="UTF-8" standalone="no"?>
<svg
   width="16"
   height="16"
   fill="currentColor"
   class="bi bi-folder2"
   viewBox="0 0 16 16"
   version="1.1"
   id="svg4"
   xmlns="http://www.w3.org/2000/svg"
   xmlns:svg="http://www.w3.org/2000/svg">
  <defs
     id="defs8" />
  <path
     d="M 1,3.5 C 1,2.6715729 1.6715729,2 2.5,2 H 5.264 C 6.222,2 7.024,2.56 7.575,3.184 7.985,3.648 8.48,4 9,4 h 4.5 C 14.328427,4 15,4.6715729 15,5.5 v 7 C 15,13.328427 14.328427,14 13.5,14 H 2.5 C 1.6715729,14 1,13.328427 1,12.5 Z"
     id="path2-3"
     style="fill:#86c4de;fill-opacity:1" />
  <path
     d="M1 3.5A1.5 1.5 0 0 1 2.5 2h2.764c.958 0 1.76.56 2.311 1.184C7.985 3.648 8.48 4 9 4h4.5A1.5 1.5 0 0 1 15 5.5v7a1.5 1.5 0 0 1-1.5 1.5h-11A1.5 1.5 0 0 1 1 12.5v-9zM2.5 3a.5.5 0 0 0-.5.5V6h12v-.5a.5.5 0 0 0-.5-.5H9c-.964 0-1.71-.629-2.174-1.154C6.374 3.334 5.82 3 5.264 3H2.5zM14 7H2v5.5a.5.5 0 0 0 .5.5h11a.5.5 0 0 0 .5-.5V7z"
     id="path2"
     style="fill:#000000;fill-opacity:1" />
</svg>
