<?xml version="1.0" encoding="UTF-8" standalone="no"?>
<!DOCTYPE svg PUBLIC "-//W3C//DTD SVG 1.1//EN" "http://www.w3.org/Graphics/SVG/1.1/DTD/svg11.dtd">
<!-- Created with Vectornator (http://vectornator.io/) -->
<svg height="100%" stroke-miterlimit="10" style="fill-rule:nonzero;clip-rule:evenodd;stroke-linecap:round;stroke-linejoin:round;" version="1.1" viewBox="0 0 527.88 104.6" width="100%" xml:space="preserve" xmlns="http://www.w3.org/2000/svg" xmlns:xlink="http://www.w3.org/1999/xlink">
<defs/>
<clipPath id="ArtboardFrame">
<rect height="104.6" width="527.88" x="0" y="0"/>
</clipPath>
<g clip-path="url(#ArtboardFrame)" id="buchstaben_vorn">
<path d="M258.376 102.662C224.311 102.662 177.064 62.5195 154.099 43.1033C152.157 41.4357 150.422 40.0063 148.896 38.696C96.5842-11.929 48.4352-6.21134 1.67377 55.8489C1.18812 56.4445 0.563704 56.3254 0.216809 55.4916C-0.130086 54.6578-0.0607066 53.5857 0.424946 52.9901C22.8344 23.2107 45.105 6.65336 68.4163 2.24601C94.5722-2.75693 121.977 8.44012 149.937 35.4798C151.394 36.671 153.197 38.2195 155.14 39.8872C183.932 64.3063 251.438 121.602 281.202 89.7974C290.707 79.6724 295.494 60.8519 295.494 33.9313C295.494 32.9783 295.979 32.1445 296.534 32.1445L296.534 32.1445C297.089 32.1445 297.575 32.9783 297.575 33.9313C297.645 44.5328 298.963 97.3019 320.193 97.3019C320.748 97.3019 321.233 98.1357 321.233 99.0886C321.233 100.042 320.748 100.875 320.193 100.875C311.243 100.875 304.513 92.6563 300.212 76.5754C298.338 69.4283 297.159 61.6857 296.465 54.5386C294.453 72.0489 289.735 84.9136 282.242 92.7754C275.721 99.8033 267.534 102.662 258.376 102.662Z" fill="#07a9ff" fill-rule="nonzero" opacity="1" stroke="none"/>
<g fill="#1a2a5b" opacity="1" stroke="none">
<path d="M73.4538 39.4965L73.4538 38.6865C73.4538 22.7565 61.3938 17.8965 47.5338 17.8965C40.9638 17.8965 34.5738 18.3465 29.8938 19.0665C28.0938 19.3365 27.0138 19.9665 27.0138 21.7665L27.0138 83.6865C27.0138 84.6765 27.8238 85.4865 28.8138 85.4865L37.8138 85.4865C38.8038 85.4865 39.5238 84.6765 39.5238 83.6865L39.5238 60.1965C41.5938 60.2865 45.1938 60.5565 47.5338 60.5565C61.3938 60.5565 73.4538 55.4265 73.4538 39.4965ZM61.0338 39.4965C61.0338 46.6965 57.2538 50.2965 47.5338 50.2965C46.0038 50.2965 40.9638 50.1165 39.5238 50.0265L39.5238 28.6065C41.1438 28.4265 45.6438 28.2465 47.5338 28.2465C56.5338 28.2465 61.0338 31.1265 61.0338 38.6865L61.0338 39.4965Z"/>
<path d="M122.954 61.9965L122.954 56.9565C122.954 43.5465 115.394 34.0965 101.534 34.0965C87.7638 34.0965 79.9338 42.9165 79.9338 56.9565L79.9338 63.6165C79.9338 81.3465 92.7138 86.2065 101.714 86.2065C109.814 86.2065 113.324 85.7565 119.174 84.6765C120.794 84.4065 121.064 83.7765 121.064 82.3365L121.064 76.3965C121.064 75.4965 120.344 75.0465 119.444 75.0465C119.354 75.0465 119.264 75.0465 119.174 75.0465C115.394 75.4065 109.184 75.9465 102.614 75.9465C93.9738 75.9465 91.8138 69.7365 91.8138 64.5165L91.8138 64.2465L121.154 64.2465C122.414 64.2465 122.954 63.4365 122.954 61.9965ZM110.984 55.7865L91.9038 55.7865L91.9038 55.4265C91.9038 48.3165 95.9538 44.3565 101.534 44.3565C107.114 44.3565 110.984 48.4065 110.984 55.4265L110.984 55.7865Z"/>
<path d="M159.224 42.3765L159.224 35.8965C159.224 34.9065 158.414 34.0965 157.424 34.0965C153.824 34.0965 148.964 34.9965 144.554 38.4165L144.554 36.5265C144.554 35.5365 143.744 34.7265 142.754 34.7265L134.924 34.7265C133.934 34.7265 133.124 35.5365 133.124 36.5265L133.124 83.5965C133.124 84.5865 133.934 85.4865 134.924 85.4865L143.204 85.4865C144.194 85.4865 145.004 84.5865 145.004 83.5965L145.004 47.4165C148.784 45.4365 152.564 44.1765 157.424 44.1765C158.414 44.1765 159.224 43.3665 159.224 42.3765Z"/>
<path d="M179.294 26.1765L179.294 18.2565C179.294 17.2665 178.484 16.4565 177.494 16.4565L168.764 16.4565C167.774 16.4565 166.874 17.2665 166.874 18.2565L166.874 26.1765C166.874 27.1665 167.774 27.9765 168.764 27.9765L177.494 27.9765C178.484 27.9765 179.294 27.1665 179.294 26.1765ZM179.024 83.5965L179.024 36.5265C179.024 35.5365 178.214 34.7265 177.224 34.7265L168.944 34.7265C167.954 34.7265 167.144 35.5365 167.144 36.5265L167.144 83.5965C167.144 84.5865 167.954 85.4865 168.944 85.4865L177.224 85.4865C178.214 85.4865 179.024 84.5865 179.024 83.5965Z"/>
<path d="M232.484 63.7965L232.484 56.5065C232.484 43.6365 225.104 34.0965 210.974 34.0965C196.844 34.0965 189.464 43.6365 189.464 56.5065L189.464 63.7965C189.464 76.6665 196.844 86.2065 210.974 86.2065C225.104 86.2065 232.484 76.6665 232.484 63.7965ZM220.604 63.7965C220.604 71.1765 217.274 75.9465 210.974 75.9465C204.674 75.9465 201.344 71.1765 201.344 63.7965L201.344 56.5065C201.344 49.1265 204.674 44.3565 210.974 44.3565C217.274 44.3565 220.604 49.1265 220.604 56.5065L220.604 63.7965Z"/>
<path d="M282.884 81.4365L282.884 18.7965C282.884 17.8065 282.074 16.9965 281.084 16.9965L272.804 16.9965C271.814 16.9965 271.004 17.8065 271.004 18.7965L271.004 34.7265C267.674 34.2765 264.524 34.0965 262.364 34.0965C247.874 34.0965 240.854 42.6465 240.854 56.6865L240.854 63.6165C240.854 77.6565 247.874 86.2065 262.364 86.2065C268.124 86.2065 274.874 85.3065 280.454 83.8665C282.524 83.3265 282.884 82.7865 282.884 81.4365ZM271.004 75.8565C269.294 76.2165 265.604 76.4865 262.364 76.4865C254.624 76.4865 252.734 70.9965 252.734 63.6165L252.734 56.6865C252.734 49.3065 254.624 43.8165 262.364 43.8165C264.524 43.8165 268.484 44.0865 271.004 44.4465L271.004 75.8565Z"/>
</g>
</g>
</svg>
