<?xml version="1.0" encoding="UTF-8" standalone="no"?>
<!DOCTYPE svg PUBLIC "-//W3C//DTD SVG 1.1//EN" "http://www.w3.org/Graphics/SVG/1.1/DTD/svg11.dtd">
<!-- Created with Vectornator (http://vectornator.io/) -->
<svg height="100%" stroke-miterlimit="10" style="fill-rule:nonzero;clip-rule:evenodd;stroke-linecap:round;stroke-linejoin:round;" version="1.1" viewBox="0 0 527.88 104.6" width="100%" xml:space="preserve" xmlns="http://www.w3.org/2000/svg" xmlns:xlink="http://www.w3.org/1999/xlink">
<defs/>
<clipPath id="ArtboardFrame">
<rect height="104.6" width="527.88" x="0" y="0"/>
</clipPath>
<g clip-path="url(#ArtboardFrame)" id="buchstaben_vorn">
<path d="M301.096 103.213C261.398 103.213 206.34 62.8528 179.578 43.3313C177.314 41.6546 175.293 40.2174 173.514 38.9C112.553-11.9996 56.4435-6.25093 1.95051 56.146C1.38456 56.7449 0.656907 56.6251 0.252657 55.7868C-0.151594 54.9484-0.0707438 53.8705 0.495207 53.2717C26.6098 23.3307 52.5627 6.68356 79.7283 2.2523C110.209-2.77778 142.145 8.48002 174.727 35.6664C176.425 36.8641 178.527 38.421 180.791 40.0977C214.344 64.6493 293.011 122.256 327.696 90.2787C338.772 80.0988 344.351 61.1761 344.351 34.1095C344.351 33.1514 344.917 32.313 345.563 32.313L345.563 32.313C346.21 32.313 346.776 33.1514 346.776 34.1095C346.857 44.7685 348.393 97.8239 373.133 97.8239C373.78 97.8239 374.346 98.6622 374.346 99.6203C374.346 100.578 373.78 101.417 373.133 101.417C362.704 101.417 354.861 93.1531 349.849 76.985C347.666 69.7991 346.291 62.0145 345.483 54.8286C343.138 72.4339 337.64 85.3684 328.908 93.2728C321.308 100.339 311.768 103.213 301.096 103.213Z" fill="#07a9ff" fill-rule="nonzero" opacity="1" stroke="none"/>
<g fill="#1a2a5b" opacity="1" stroke="none">
<path d="M73.4538 39.4965L73.4538 38.6865C73.4538 22.7565 61.3938 17.8965 47.5338 17.8965C40.9638 17.8965 34.5738 18.3465 29.8938 19.0665C28.0938 19.3365 27.0138 19.9665 27.0138 21.7665L27.0138 83.6865C27.0138 84.6765 27.8238 85.4865 28.8138 85.4865L37.8138 85.4865C38.8038 85.4865 39.5238 84.6765 39.5238 83.6865L39.5238 60.1965C41.5938 60.2865 45.1938 60.5565 47.5338 60.5565C61.3938 60.5565 73.4538 55.4265 73.4538 39.4965ZM61.0338 39.4965C61.0338 46.6965 57.2538 50.2965 47.5338 50.2965C46.0038 50.2965 40.9638 50.1165 39.5238 50.0265L39.5238 28.6065C41.1438 28.4265 45.6438 28.2465 47.5338 28.2465C56.5338 28.2465 61.0338 31.1265 61.0338 38.6865L61.0338 39.4965Z"/>
<path d="M124.034 83.5965L124.034 53.9865C124.034 42.9165 120.344 34.0965 107.924 34.0965C101.534 34.0965 97.7538 35.3565 94.3338 37.4265L94.3338 18.7965C94.3338 17.8065 93.5238 16.9965 92.5338 16.9965L84.2538 16.9965C83.2638 16.9965 82.4538 17.8065 82.4538 18.7965L82.4538 83.5965C82.4538 84.5865 83.2638 85.4865 84.2538 85.4865L92.5338 85.4865C93.5238 85.4865 94.3338 84.5865 94.3338 83.5965L94.3338 47.2365C98.1138 45.2565 101.714 44.1765 104.774 44.1765C110.804 44.1765 112.154 46.1565 112.154 53.9865L112.154 83.5965C112.154 84.5865 112.964 85.4865 113.954 85.4865L122.234 85.4865C123.224 85.4865 124.034 84.5865 124.034 83.5965Z"/>
<path d="M176.234 36.2565C176.234 35.4465 175.514 34.7265 174.614 34.7265L165.434 34.7265C164.534 34.7265 163.814 35.4465 163.634 36.2565L153.914 74.9565C153.914 74.9565 153.914 74.9565 153.644 74.9565C153.554 74.9565 153.374 74.9565 153.194 74.9565L153.104 74.9565C152.564 74.9565 152.204 74.5065 151.844 72.9765L142.754 36.3465C142.574 35.5365 141.854 34.7265 141.044 34.7265L131.954 34.7265C130.784 34.7265 130.244 35.2665 130.244 36.1665C130.244 36.3465 130.244 36.5265 130.334 36.7965L142.124 78.0165C144.104 84.8565 147.344 85.4865 149.954 85.4865L151.304 85.4865L150.584 88.1865C149.324 92.8665 147.344 93.9465 143.474 93.9465C140.954 93.9465 135.824 93.4965 133.304 93.4065C133.214 93.4065 133.214 93.4065 133.124 93.4065C132.134 93.4065 131.324 94.0365 131.324 95.0265L131.324 100.787C131.324 101.687 132.224 102.047 133.214 102.317C135.284 102.947 139.784 103.487 142.754 103.487C154.994 103.487 158.324 99.1665 161.114 89.3565L176.144 36.7965C176.234 36.6165 176.234 36.4365 176.234 36.2565Z"/>
<path d="M218.444 72.1665C218.444 67.5765 217.364 63.0765 209.804 58.4865L198.014 51.2865C195.764 49.9365 194.414 49.0365 194.414 47.5965C194.414 44.8065 196.304 43.8165 200.624 43.8165C205.754 43.8165 212.954 44.5365 215.474 44.8965C215.564 44.8965 215.654 44.8965 215.834 44.8965C216.734 44.8965 217.274 44.2665 217.274 43.1865L217.274 37.9665C217.274 36.8865 216.734 36.1665 215.654 35.8965C211.064 34.9065 206.924 34.0965 199.634 34.0965C188.204 34.0965 182.534 38.5965 182.534 47.5965C182.534 52.8165 185.684 57.3165 190.094 60.0165L202.424 67.5765C205.304 69.3765 206.384 70.4565 206.384 72.1665C206.384 74.5965 205.574 76.4865 199.994 76.4865C197.294 76.4865 189.194 76.0365 184.874 75.4965C184.784 75.4965 184.694 75.4965 184.514 75.4965C183.614 75.4965 182.984 76.2165 182.984 76.9365L182.984 82.3365C182.984 83.4165 183.614 84.1365 184.694 84.4065C189.734 85.7565 197.294 86.2065 200.804 86.2065C212.594 86.2065 218.444 79.9965 218.444 72.1665Z"/>
<path d="M240.764 26.1765L240.764 18.2565C240.764 17.2665 239.954 16.4565 238.964 16.4565L230.234 16.4565C229.244 16.4565 228.344 17.2665 228.344 18.2565L228.344 26.1765C228.344 27.1665 229.244 27.9765 230.234 27.9765L238.964 27.9765C239.954 27.9765 240.764 27.1665 240.764 26.1765ZM240.494 83.5965L240.494 36.5265C240.494 35.5365 239.684 34.7265 238.694 34.7265L230.414 34.7265C229.424 34.7265 228.614 35.5365 228.614 36.5265L228.614 83.5965C228.614 84.5865 229.424 85.4865 230.414 85.4865L238.694 85.4865C239.684 85.4865 240.494 84.5865 240.494 83.5965Z"/>
<path d="M284.684 82.6965L284.684 76.8465C284.684 75.9465 283.964 75.4965 283.064 75.4965C282.974 75.4965 282.884 75.4965 282.794 75.4965C279.194 75.9465 277.034 76.1265 271.184 76.1265C266.954 76.1265 262.544 73.6965 262.544 64.3365L262.544 55.9665C262.544 46.6065 266.954 44.1765 271.184 44.1765C277.034 44.1765 279.194 44.3565 282.794 44.8065C282.884 44.8065 282.974 44.8065 283.064 44.8065C283.964 44.8065 284.684 44.3565 284.684 43.4565L284.684 37.6065C284.684 36.1665 284.324 35.6265 282.794 35.2665C280.724 34.7265 276.674 34.0965 271.184 34.0965C259.484 34.0965 250.664 41.2965 250.664 55.9665L250.664 64.3365C250.664 79.0065 259.484 86.2065 271.184 86.2065C276.674 86.2065 280.724 85.5765 282.794 85.0365C284.324 84.6765 284.684 84.1365 284.684 82.6965Z"/>
<path d="M327.344 72.1665C327.344 67.5765 326.264 63.0765 318.704 58.4865L306.914 51.2865C304.664 49.9365 303.314 49.0365 303.314 47.5965C303.314 44.8065 305.204 43.8165 309.524 43.8165C314.654 43.8165 321.854 44.5365 324.374 44.8965C324.464 44.8965 324.554 44.8965 324.734 44.8965C325.634 44.8965 326.174 44.2665 326.174 43.1865L326.174 37.9665C326.174 36.8865 325.634 36.1665 324.554 35.8965C319.964 34.9065 315.824 34.0965 308.534 34.0965C297.104 34.0965 291.434 38.5965 291.434 47.5965C291.434 52.8165 294.584 57.3165 298.994 60.0165L311.324 67.5765C314.204 69.3765 315.284 70.4565 315.284 72.1665C315.284 74.5965 314.474 76.4865 308.894 76.4865C306.194 76.4865 298.094 76.0365 293.774 75.4965C293.684 75.4965 293.594 75.4965 293.414 75.4965C292.514 75.4965 291.884 76.2165 291.884 76.9365L291.884 82.3365C291.884 83.4165 292.514 84.1365 293.594 84.4065C298.634 85.7565 306.194 86.2065 309.704 86.2065C321.494 86.2065 327.344 79.9965 327.344 72.1665Z"/>
</g>
</g>
</svg>
