<?xml version="1.0" encoding="UTF-8" standalone="no"?>
<!DOCTYPE svg PUBLIC "-//W3C//DTD SVG 1.1//EN" "http://www.w3.org/Graphics/SVG/1.1/DTD/svg11.dtd">
<!-- Created with Vectornator (http://vectornator.io/) -->
<svg height="100%" stroke-miterlimit="10" style="fill-rule:nonzero;clip-rule:evenodd;stroke-linecap:round;stroke-linejoin:round;" version="1.1" viewBox="0 0 527.88 104.6" width="100%" xml:space="preserve" xmlns="http://www.w3.org/2000/svg" xmlns:xlink="http://www.w3.org/1999/xlink">
<defs/>
<clipPath id="ArtboardFrame">
<rect height="104.6" width="527.88" x="0" y="0"/>
</clipPath>
<g clip-path="url(#ArtboardFrame)" id="buchstaben_vorn">
<path d="M169.72 101.629C147.343 101.629 116.308 61.8946 101.223 42.6759C99.9474 41.0252 98.808 39.6104 97.8054 38.3134C63.4434-11.7966 31.8157-6.13711 1.09945 55.2918C0.780438 55.8814 0.370281 55.7635 0.142416 54.9381C-0.0854494 54.1128-0.0398764 53.0516 0.279135 52.4621C14.9992 22.9856 29.6282 6.59672 44.9407 2.23421C62.1217-2.71784 80.1231 8.36531 98.489 35.1299C99.446 36.309 100.631 37.8418 101.907 39.4925C120.82 63.6632 165.162 120.376 184.713 88.895C190.957 78.873 194.101 60.2439 194.101 33.5972C194.101 32.6539 194.42 31.8286 194.785 31.8286L194.785 31.8286C195.149 31.8286 195.468 32.6539 195.468 33.5972C195.514 44.0908 196.38 96.3231 210.325 96.3231C210.69 96.3231 211.009 97.1484 211.009 98.0917C211.009 99.0349 210.69 99.8602 210.325 99.8602C204.446 99.8602 200.026 91.7247 197.2 75.8075C195.97 68.7331 195.195 61.0692 194.739 53.9949C193.418 71.327 190.319 84.0609 185.397 91.8427C181.113 98.7991 175.735 101.629 169.72 101.629Z" fill="#07a9ff" fill-rule="nonzero" opacity="1" stroke="none"/>
<g fill="#1a2a5b" opacity="1" stroke="none">
<path d="M75.6138 84.4065C75.6138 84.2265 75.6138 83.9565 75.4338 83.6865L61.3038 57.4065C68.6838 54.5265 73.4538 48.5865 73.4538 39.0465L73.4538 38.2365C73.4538 22.8465 61.3938 17.8965 47.5338 17.8965C40.9638 17.8965 34.5738 18.3465 29.8938 19.0665C28.0938 19.3365 27.0138 19.9665 27.0138 21.7665L27.0138 83.6865C27.0138 84.6765 27.8238 85.4865 28.8138 85.4865L37.8138 85.4865C38.8038 85.4865 39.5238 84.6765 39.5238 83.6865L39.5238 59.2965C41.5938 59.3865 45.1938 59.6565 47.5338 59.6565L48.7938 59.6565L61.7538 83.6865C62.2038 84.5865 62.5638 85.4865 63.5538 85.4865L74.5338 85.4865C75.2538 85.4865 75.6138 85.0365 75.6138 84.4065ZM61.0338 39.0465C61.0338 46.9665 56.8038 49.4865 47.5338 49.4865C46.0038 49.4865 40.9638 49.3065 39.5238 49.2165L39.5238 28.9665C41.1438 28.7865 45.6438 28.6065 47.5338 28.6065C56.5338 28.6065 61.0338 31.4865 61.0338 38.2365L61.0338 39.0465Z"/>
<path d="M126.464 83.6865L126.464 36.6165C126.464 35.6265 125.654 34.7265 124.664 34.7265L116.384 34.7265C115.394 34.7265 114.584 35.6265 114.584 36.6165L114.584 72.6165C112.064 73.9665 107.744 76.2165 104.414 76.2165C101.624 76.2165 100.094 75.6765 98.8338 74.5965C97.1238 73.0665 96.7638 70.4565 96.7638 65.9565L96.7638 36.6165C96.7638 35.6265 95.9538 34.7265 94.9638 34.7265L86.6838 34.7265C85.6938 34.7265 84.8838 35.6265 84.8838 36.6165L84.8838 65.9565C84.8838 73.4265 86.0538 79.0065 89.3838 82.3365C91.9938 84.9465 95.9538 86.1165 100.454 86.1165C106.214 86.1165 109.904 84.6765 114.584 81.6165L114.584 83.6865C114.584 84.6765 115.394 85.4865 116.384 85.4865L124.664 85.4865C125.654 85.4865 126.464 84.6765 126.464 83.6865Z"/>
<path d="M179.744 83.5965L179.744 54.2565C179.744 42.8265 177.134 34.0965 164.174 34.0965C158.234 34.0965 154.814 35.0865 149.594 38.4165L149.594 36.5265C149.594 35.5365 148.784 34.7265 147.794 34.7265L139.964 34.7265C138.974 34.7265 138.164 35.5365 138.164 36.5265L138.164 83.5965C138.164 84.5865 138.974 85.4865 139.964 85.4865L148.244 85.4865C149.234 85.4865 150.044 84.5865 150.044 83.5965L150.044 47.4165C153.824 45.4365 157.154 44.1765 160.214 44.1765C167.144 44.1765 167.864 46.4265 167.864 54.2565L167.864 83.5965C167.864 84.5865 168.674 85.4865 169.664 85.4865L177.944 85.4865C178.934 85.4865 179.744 84.5865 179.744 83.5965Z"/>
</g>
</g>
</svg>
