<?xml version="1.0" encoding="UTF-8" standalone="no"?>
<!DOCTYPE svg PUBLIC "-//W3C//DTD SVG 1.1//EN" "http://www.w3.org/Graphics/SVG/1.1/DTD/svg11.dtd">
<!-- Created with Vectornator (http://vectornator.io/) -->
<svg height="100%" stroke-miterlimit="10" style="fill-rule:nonzero;clip-rule:evenodd;stroke-linecap:round;stroke-linejoin:round;" version="1.1" viewBox="0 0 527.88 104.6" width="100%" xml:space="preserve" xmlns="http://www.w3.org/2000/svg" xmlns:xlink="http://www.w3.org/1999/xlink">
<defs/>
<clipPath id="ArtboardFrame">
<rect height="104.6" width="527.88" x="0" y="0"/>
</clipPath>
<g clip-path="url(#ArtboardFrame)" id="buchstaben_vorn">
<path d="M247.932 101.629C215.244 101.629 169.906 61.8946 147.87 42.6759C146.006 41.0252 144.342 39.6104 142.877 38.3134C92.68-11.7966 46.4773-6.13711 1.60611 55.2918C1.14009 55.8814 0.540917 55.7635 0.208045 54.9381C-0.124827 54.1128-0.0582527 53.0516 0.407769 52.4621C21.9113 22.9856 43.2817 6.59672 65.6507 2.23421C90.7493-2.71784 117.046 8.36531 143.876 35.1299C145.274 36.309 147.005 37.8418 148.869 39.4925C176.497 63.6632 241.274 120.376 269.835 88.895C278.955 78.873 283.549 60.2439 283.549 33.5972C283.549 32.6539 284.015 31.8286 284.548 31.8286L284.548 31.8286C285.08 31.8286 285.546 32.6539 285.546 33.5972C285.613 44.0908 286.878 96.3231 307.249 96.3231C307.782 96.3231 308.248 97.1484 308.248 98.0917C308.248 99.0349 307.782 99.8602 307.249 99.8602C298.661 99.8602 292.204 91.7247 288.076 75.8075C286.278 68.7331 285.147 61.0692 284.481 53.9949C282.55 71.327 278.023 84.0609 270.833 91.8427C264.575 98.7991 256.719 101.629 247.932 101.629Z" fill="#07a9ff" fill-rule="nonzero" opacity="1" stroke="none"/>
<g fill="#1a2a5b" opacity="1" stroke="none">
<path d="M67.5138 67.3965C67.5138 60.2865 64.9038 54.5265 55.0038 49.0365L44.2038 43.0065C38.3538 39.7665 36.8238 37.9665 36.8238 34.9965C36.8238 30.9465 39.6138 28.6065 46.2738 28.6065C52.1238 28.6065 58.0638 28.9665 64.0038 29.5065C64.0938 29.5065 64.0938 29.5065 64.1838 29.5065C65.0838 29.5065 65.7138 28.7865 65.7138 27.8865L65.7138 21.2265C65.7138 20.3265 64.9938 19.6965 64.0938 19.5165C61.0338 18.7965 52.7538 17.8965 46.8138 17.8965C30.0738 17.8965 24.3138 25.0965 24.3138 34.9965C24.3138 41.2965 26.5638 46.5165 34.9338 51.4665L46.8138 58.5765C52.7538 62.0865 54.4638 63.8865 54.4638 67.3965C54.4638 72.6165 52.0338 75.4965 44.0238 75.4965C40.6938 75.4965 31.6938 75.0465 28.0938 74.5965C28.0038 74.5965 28.0038 74.5965 27.9138 74.5965C27.0138 74.5965 26.2038 75.3165 26.2038 76.3065L26.2038 82.7865C26.2038 83.7765 27.0138 84.4065 27.9138 84.5865C32.2338 85.5765 37.0938 86.2065 43.8438 86.2065C61.8438 86.2065 67.5138 76.4865 67.5138 67.3965Z"/>
<path d="M102.614 83.9565L102.614 78.2865C102.614 77.3865 101.894 76.9365 100.724 76.9365L95.9538 76.9365C92.7138 76.9365 92.4438 76.3965 92.4438 71.8965L92.4438 43.6365L100.544 43.6365C101.534 43.6365 102.344 42.8265 102.344 41.8365L102.344 36.5265C102.344 35.5365 101.534 34.7265 100.544 34.7265L92.4438 34.7265L92.4438 25.4565C92.4438 24.5565 91.8138 24.1065 91.0038 24.1065C90.9138 24.1065 90.7338 24.1065 90.6438 24.1065L82.2738 25.5465C81.2838 25.7265 80.4738 26.3565 80.4738 27.3465L80.4738 34.7265L72.0138 34.7265C71.0238 34.7265 70.2138 35.5365 70.2138 36.5265L70.2138 40.5765C70.2138 41.5665 71.0238 42.1965 72.0138 42.3765L80.4738 43.6365L80.4738 71.8965C80.4738 83.9565 84.6138 86.2065 94.7838 86.2065C96.7638 86.2065 98.7438 85.9365 100.904 85.5765C102.074 85.3965 102.614 84.8565 102.614 83.9565Z"/>
<path d="M136.814 42.3765L136.814 35.8965C136.814 34.9065 136.004 34.0965 135.014 34.0965C131.414 34.0965 126.554 34.9965 122.144 38.4165L122.144 36.5265C122.144 35.5365 121.334 34.7265 120.344 34.7265L112.514 34.7265C111.524 34.7265 110.714 35.5365 110.714 36.5265L110.714 83.5965C110.714 84.5865 111.524 85.4865 112.514 85.4865L120.794 85.4865C121.784 85.4865 122.594 84.5865 122.594 83.5965L122.594 47.4165C126.374 45.4365 130.154 44.1765 135.014 44.1765C136.004 44.1765 136.814 43.3665 136.814 42.3765Z"/>
<path d="M156.884 26.1765L156.884 18.2565C156.884 17.2665 156.074 16.4565 155.084 16.4565L146.354 16.4565C145.364 16.4565 144.464 17.2665 144.464 18.2565L144.464 26.1765C144.464 27.1665 145.364 27.9765 146.354 27.9765L155.084 27.9765C156.074 27.9765 156.884 27.1665 156.884 26.1765ZM156.614 83.5965L156.614 36.5265C156.614 35.5365 155.804 34.7265 154.814 34.7265L146.534 34.7265C145.544 34.7265 144.734 35.5365 144.734 36.5265L144.734 83.5965C144.734 84.5865 145.544 85.4865 146.534 85.4865L154.814 85.4865C155.804 85.4865 156.614 84.5865 156.614 83.5965Z"/>
<path d="M210.164 83.5965L210.164 54.2565C210.164 42.8265 207.554 34.0965 194.594 34.0965C188.654 34.0965 185.234 35.0865 180.014 38.4165L180.014 36.5265C180.014 35.5365 179.204 34.7265 178.214 34.7265L170.384 34.7265C169.394 34.7265 168.584 35.5365 168.584 36.5265L168.584 83.5965C168.584 84.5865 169.394 85.4865 170.384 85.4865L178.664 85.4865C179.654 85.4865 180.464 84.5865 180.464 83.5965L180.464 47.4165C184.244 45.4365 187.574 44.1765 190.634 44.1765C197.564 44.1765 198.284 46.4265 198.284 54.2565L198.284 83.5965C198.284 84.5865 199.094 85.4865 200.084 85.4865L208.364 85.4865C209.354 85.4865 210.164 84.5865 210.164 83.5965Z"/>
<path d="M266.054 40.9365L266.054 37.1565C266.054 35.8065 264.974 34.7265 263.624 34.7265L242.564 34.7265C226.994 34.7265 221.144 42.2865 221.144 51.2865L221.144 51.9165C221.144 56.4165 222.134 59.6565 224.834 62.4465C222.404 64.1565 221.234 66.9465 221.234 69.7365L221.234 69.8265C221.234 73.0665 222.764 76.2165 225.284 78.1065C222.404 80.7165 220.694 84.3165 220.694 88.0065L220.694 88.8165C220.694 98.2665 228.434 103.757 243.014 103.757C258.314 103.757 265.064 98.8065 265.064 89.6265L265.064 88.9965C265.064 79.3665 257.144 77.4765 244.904 74.5965L234.284 72.0765C232.214 71.6265 231.224 70.9065 231.224 69.1065C231.224 68.2965 231.674 67.4865 232.754 66.7665C234.554 67.4865 237.794 68.2965 242.564 68.2965C256.154 68.2965 263.894 63.1665 263.894 51.9165L263.894 51.2865C263.894 48.1365 263.084 46.1565 261.644 44.0865L264.614 42.9165C265.694 42.4665 266.054 42.2865 266.054 40.9365ZM252.194 52.1865C252.194 56.6865 250.034 59.2965 242.564 59.2965C234.194 59.2965 232.844 55.5165 232.844 52.1865L232.844 51.4665C232.844 47.2365 234.914 43.8165 242.564 43.8165C250.304 43.8165 252.194 47.1465 252.194 51.4665L252.194 52.1865ZM253.184 89.6265C253.184 92.8665 251.654 94.7565 243.014 94.7565C234.554 94.7565 232.304 92.5065 232.304 88.8165L232.304 88.0065C232.304 84.7665 233.204 83.5965 234.554 81.7065L242.564 83.5965C252.014 85.8465 253.184 87.0165 253.184 88.9965L253.184 89.6265Z"/>
</g>
</g>
</svg>
