<svg xmlns="http://www.w3.org/2000/svg" xmlns:xlink="http://www.w3.org/1999/xlink" contentStyleType="text/css" data-diagram-type="SEQUENCE" height="499px" preserveAspectRatio="none" style="width:479px;height:499px;" version="1.1" viewBox="0 0 479 499" width="479px" zoomAndPan="magnify"><defs/><g><g><title>User TTY</title><rect fill="#000000" fill-opacity="0.00000" height="337.5938" width="8" x="41.0078" y="81.2969"/><line style="stroke:#2D74BA;stroke-width:0.5;stroke-dasharray:5.0,5.0;" x1="45" x2="45" y1="81.2969" y2="418.8906"/></g><g><title>Items Process (IP)</title><rect fill="#000000" fill-opacity="0.00000" height="337.5938" width="8" x="154.626" y="81.2969"/><line style="stroke:#2D74BA;stroke-width:0.5;stroke-dasharray:5.0,5.0;" x1="158.0156" x2="158.0156" y1="81.2969" y2="418.8906"/></g><g><title>FZF</title><rect fill="#000000" fill-opacity="0.00000" height="337.5938" width="8" x="254.0845" y="81.2969"/><line style="stroke:#2D74BA;stroke-width:0.5;stroke-dasharray:5.0,5.0;" x1="257.2363" x2="257.2363" y1="81.2969" y2="418.8906"/></g><g><title>FZF.STDOUT</title><rect fill="#000000" fill-opacity="0.00000" height="337.5938" width="8" x="417.9995" y="81.2969"/><line style="stroke:#2D74BA;stroke-width:0.5;stroke-dasharray:5.0,5.0;" x1="421.9077" x2="421.9077" y1="81.2969" y2="418.8906"/></g><g class="participant participant-head" data-participant="u"><text fill="#AAAAAA" font-family="Arial" font-size="14" lengthAdjust="spacing" textLength="62.0156" x="11" y="77.9951">User TTY</text><ellipse cx="45.0078" cy="13.5" fill="#1E2029" rx="8" ry="8" style="stroke:#2D74BA;stroke-width:0.5;"/><path d="M45.0078,21.5 L45.0078,48.5 M32.0078,29.5 L58.0078,29.5 M45.0078,48.5 L32.0078,63.5 M45.0078,48.5 L58.0078,63.5" fill="none" style="stroke:#2D74BA;stroke-width:0.5;"/></g><g class="participant participant-tail" data-participant="u"><text fill="#AAAAAA" font-family="Arial" font-size="14" lengthAdjust="spacing" textLength="62.0156" x="11" y="430.8857">User TTY</text><ellipse cx="45.0078" cy="442.6875" fill="#1E2029" rx="8" ry="8" style="stroke:#2D74BA;stroke-width:0.5;"/><path d="M45.0078,450.6875 L45.0078,477.6875 M32.0078,458.6875 L58.0078,458.6875 M45.0078,477.6875 L32.0078,492.6875 M45.0078,477.6875 L58.0078,492.6875" fill="none" style="stroke:#2D74BA;stroke-width:0.5;"/></g><g class="participant participant-head" data-participant="ip"><rect fill="#1E2029" height="30.2969" rx="2.5" ry="2.5" style="stroke:#2D74BA;stroke-width:0.5;" width="139.2207" x="89.0156" y="50"/><text fill="#AAAAAA" font-family="Arial" font-size="14" lengthAdjust="spacing" textLength="125.2207" x="96.0156" y="69.9951">Items Process (IP)</text></g><g class="participant participant-tail" data-participant="ip"><rect fill="#1E2029" height="30.2969" rx="2.5" ry="2.5" style="stroke:#2D74BA;stroke-width:0.5;" width="139.2207" x="89.0156" y="417.8906"/><text fill="#AAAAAA" font-family="Arial" font-size="14" lengthAdjust="spacing" textLength="125.2207" x="96.0156" y="437.8857">Items Process (IP)</text></g><g class="participant participant-head" data-participant="f"><rect fill="#1E2029" height="30.2969" rx="2.5" ry="2.5" style="stroke:#2D74BA;stroke-width:0.5;" width="39.6963" x="238.2363" y="50"/><text fill="#AAAAAA" font-family="Arial" font-size="14" lengthAdjust="spacing" textLength="25.6963" x="245.2363" y="69.9951">FZF</text></g><g class="participant participant-tail" data-participant="f"><rect fill="#1E2029" height="30.2969" rx="2.5" ry="2.5" style="stroke:#2D74BA;stroke-width:0.5;" width="39.6963" x="238.2363" y="417.8906"/><text fill="#AAAAAA" font-family="Arial" font-size="14" lengthAdjust="spacing" textLength="25.6963" x="245.2363" y="437.8857">FZF</text></g><g class="participant participant-head" data-participant="soi"><rect fill="#1E2029" height="30.2969" rx="2.5" ry="2.5" style="stroke:#2D74BA;stroke-width:0.5;" width="102.1836" x="370.9077" y="50"/><text fill="#AAAAAA" font-family="Arial" font-size="14" lengthAdjust="spacing" textLength="88.1836" x="377.9077" y="69.9951">FZF.STDOUT</text></g><g class="participant participant-tail" data-participant="soi"><rect fill="#1E2029" height="30.2969" rx="2.5" ry="2.5" style="stroke:#2D74BA;stroke-width:0.5;" width="102.1836" x="370.9077" y="417.8906"/><text fill="#AAAAAA" font-family="Arial" font-size="14" lengthAdjust="spacing" textLength="88.1836" x="377.9077" y="437.8857">FZF.STDOUT</text></g><path d="M204,96.2969 L204,166.2969 L310,166.2969 L310,106.2969 L300,96.2969 L204,96.2969" fill="#1E2029" style="stroke:#2D74BA;stroke-width:0.5;"/><path d="M300,96.2969 L300,106.2969 L310,106.2969 L300,96.2969" fill="#1E2029" style="stroke:#2D74BA;stroke-width:0.5;"/><text fill="#AAAAAA" font-family="Arial" font-size="13" lengthAdjust="spacing" textLength="85.668" x="210" y="113.3638">FZF starts up</text><text fill="#AAAAAA" font-family="Arial" font-size="13" lengthAdjust="spacing" textLength="71.0049" x="210" y="128.4966">reads from</text><text fill="#AAAAAA" font-family="Arial" font-size="13" lengthAdjust="spacing" textLength="32.646" x="210" y="143.6294">- TTY</text><text fill="#AAAAAA" font-family="Arial" font-size="13" lengthAdjust="spacing" textLength="78.5205" x="210" y="158.7622">- IP.STDOUT</text><g class="message" data-participant-1="ip" data-participant-2="f"><polygon fill="#00B2E2" points="246.0845,188.9609,256.0845,192.9609,246.0845,196.9609,250.0845,192.9609" style="stroke:#00B2E2;stroke-width:1;"/><line style="stroke:#00B2E2;stroke-width:1;" x1="158.626" x2="252.0845" y1="192.9609" y2="192.9609"/><text fill="#AAAAAA" font-family="Arial" font-size="13" lengthAdjust="spacing" textLength="43.3735" x="165.626" y="187.895">"hello"</text></g><g class="message" data-participant-1="f" data-participant-2="soi"><polygon fill="#00B2E2" points="409.9995,218.0938,419.9995,222.0938,409.9995,226.0938,413.9995,222.0938" style="stroke:#00B2E2;stroke-width:1;"/><line style="stroke:#00B2E2;stroke-width:1;" x1="258.0845" x2="415.9995" y1="222.0938" y2="222.0938"/><text fill="#AAAAAA" font-family="Arial" font-size="13" lengthAdjust="spacing" textLength="106.9326" x="265.0845" y="217.0278">rendered "hello"</text></g><path d="M395,235.0938 L395,260.0938 L447,260.0938 L447,245.0938 L437,235.0938 L395,235.0938" fill="#1E2029" style="stroke:#2D74BA;stroke-width:0.5;"/><path d="M437,235.0938 L437,245.0938 L447,245.0938 L437,235.0938" fill="#1E2029" style="stroke:#2D74BA;stroke-width:0.5;"/><text fill="#AAAAAA" font-family="Arial" font-size="13" lengthAdjust="spacing" textLength="31.4146" x="401" y="252.1606">hello</text><path d="M5,270.2266 L5,295.2266 L462,295.2266 L462,280.2266 L452,270.2266 L5,270.2266" fill="#1E2029" style="stroke:#2D74BA;stroke-width:0.5;"/><path d="M452,270.2266 L452,280.2266 L462,280.2266 L452,270.2266" fill="#1E2029" style="stroke:#2D74BA;stroke-width:0.5;"/><text fill="#AAAAAA" font-family="Arial" font-size="13" lengthAdjust="spacing" textLength="58.7666" x="199.6624" y="287.2935">1 second</text><g class="message" data-participant-1="ip" data-participant-2="f"><polygon fill="#00B2E2" points="246.0845,317.4922,256.0845,321.4922,246.0845,325.4922,250.0845,321.4922" style="stroke:#00B2E2;stroke-width:1;"/><line style="stroke:#00B2E2;stroke-width:1;" x1="158.626" x2="252.0845" y1="321.4922" y2="321.4922"/><text fill="#AAAAAA" font-family="Arial" font-size="13" lengthAdjust="spacing" textLength="47.7534" x="165.626" y="316.4263">"world"</text></g><g class="message" data-participant-1="f" data-participant-2="soi"><polygon fill="#00B2E2" points="409.9995,346.625,419.9995,350.625,409.9995,354.625,413.9995,350.625" style="stroke:#00B2E2;stroke-width:1;"/><line style="stroke:#00B2E2;stroke-width:1;" x1="258.0845" x2="415.9995" y1="350.625" y2="350.625"/><text fill="#AAAAAA" font-family="Arial" font-size="13" lengthAdjust="spacing" textLength="139.915" x="265.0845" y="345.5591">add rendered "world"</text></g><path d="M393,363.625 L393,403.625 L449,403.625 L449,373.625 L439,363.625 L393,363.625" fill="#1E2029" style="stroke:#2D74BA;stroke-width:0.5;"/><path d="M439,363.625 L439,373.625 L449,373.625 L439,363.625" fill="#1E2029" style="stroke:#2D74BA;stroke-width:0.5;"/><text fill="#AAAAAA" font-family="Arial" font-size="13" lengthAdjust="spacing" textLength="31.4146" x="399" y="380.6919">hello</text><text fill="#AAAAAA" font-family="Arial" font-size="13" lengthAdjust="spacing" textLength="35.7944" x="399" y="395.8247">world</text><!--SRC=[xPTTJzim58Rl-okixcQJnWHLsGGNIAKVen8g3Ch59cxSn2aUZftP3Xt_VYTEcWPHUawbxMPA9LfaF-VOoR7z-dMFKcVSyfIv1nwRbTHBbd3bHCVLFGiUFIwjoNKS6MKiyvPh1rr2-mOr4WdFbPyOxMSy5MnW9LUD_e6rPZKC2TuT7YvwehSzk48uvytWoCidwP_FZOs5hP3Uw4l_VB256acU6XsZiB48ieH7H13hPS8ZX3elNXwtoFI7t29p7Yhk78QO7CjYb1Bmgep6SfaqCnfz1qEecZLgDpJYdY-u4xkfiVPebITI8LacHa4lmi0NacQglR1GN0Ix5B1Ca5S-Cx7028yGLukV0bjerx1L-L9W44x0ievanhKdWCLAserzoqME37a3pyRr4YljhVYL2rsKv3SD7C69W2w6DVmLJhcCXbxA1FuqSRet8X6sdFTEt4FzKCIZMM0iuvypCQ22Goeufe9JAZZ3G6FHzNgxagdYM37kd8ZUE86sIKsjUXLw97g7lPCTSaC90Cd1iI0xEBQM7fIivGSbWmJXL90X6dOXUB7z272XMpZMq2u2lDOl0bfg60hMEeQIbPQXND0pd2er3UU2hg7OD39wBHOqsCgdukGXmg1caHSn4SyNIaO4jXPa5Ar46UM2C1CeofDN0erovFVUb64Q7AGOHKivHh6D9ADeKvR9y5gQoG6bFE-9c_YP7bAhEZbYe-pxXr3Fnl9QGC4eoxHvFTW37ku3Z_U1f_l0CmfSNXbGS2uzPN6lxmrlW5jk1509kpQo_UF-v_xn5cXS9tg5X4hkJ1A8LnaQmDjs_XyOzTQfjqwzTUgjKs-TUklKMwVUElNMgVyzftu1EyyggHyhu2HyjW5tEWx_Y5TNljRjjsw_TVkjss_T_d_bzZkykAQmBapPildyUvTnn_9EjZb8M7VgHUeO7D6HS8wzdrv_29JCNc2J7vEYDNaP2wsVRkUZgxjvY756TZISZSmymNZ9QOXonRnXrEnUMrZWaCEQz5uV5FDXnU_qkihHaTd16KHr7uHIfjj93iuWuoc3pG7xGiHrnsQCq1zQ6utvnxBzY46bu3PNvrqPg-9DNXx7ZTnLvxRSzpfqTlu0]--></g></svg>