<svg xmlns="http://www.w3.org/2000/svg" xmlns:xlink="http://www.w3.org/1999/xlink" contentStyleType="text/css" data-diagram-type="SEQUENCE" height="675px" preserveAspectRatio="none" style="width:529px;height:675px;" version="1.1" viewBox="0 0 529 675" width="529px" zoomAndPan="magnify"><defs/><g><g><title>User TTY</title><rect fill="#000000" fill-opacity="0.00000" height="513.5234" width="8" x="35.0078" y="81.2969"/><line style="stroke:#2D74BA;stroke-width:0.5;stroke-dasharray:5.0,5.0;" x1="39" x2="39" y1="81.2969" y2="594.8203"/></g><g><title>Items Process (IP)</title><rect fill="#000000" fill-opacity="0.00000" height="513.5234" width="8" x="148.626" y="81.2969"/><line style="stroke:#2D74BA;stroke-width:0.5;stroke-dasharray:5.0,5.0;" x1="152.0156" x2="152.0156" y1="81.2969" y2="594.8203"/></g><g><title>FZF.STDIN</title><rect fill="#000000" fill-opacity="0.00000" height="513.5234" width="8" x="271.7197" y="81.2969"/><line style="stroke:#2D74BA;stroke-width:0.5;stroke-dasharray:5.0,5.0;" x1="275.2363" x2="275.2363" y1="81.2969" y2="594.8203"/></g><g><title>FZF</title><rect fill="#000000" fill-opacity="0.00000" height="513.5234" width="8" x="345.0513" y="81.2969"/><line style="stroke:#2D74BA;stroke-width:0.5;stroke-dasharray:5.0,5.0;" x1="348.2031" x2="348.2031" y1="81.2969" y2="594.8203"/></g><g><title>FZF.STDOUT</title><rect fill="#000000" fill-opacity="0.00000" height="513.5234" width="8" x="468.7539" y="81.2969"/><line style="stroke:#2D74BA;stroke-width:0.5;stroke-dasharray:5.0,5.0;" x1="472.6621" x2="472.6621" y1="81.2969" y2="594.8203"/></g><g class="participant participant-head" data-participant="u"><text fill="#AAAAAA" font-family="Arial" font-size="14" lengthAdjust="spacing" textLength="62.0156" x="5" y="77.9951">User TTY</text><ellipse cx="39.0078" cy="13.5" fill="#1E2029" rx="8" ry="8" style="stroke:#2D74BA;stroke-width:0.5;"/><path d="M39.0078,21.5 L39.0078,48.5 M26.0078,29.5 L52.0078,29.5 M39.0078,48.5 L26.0078,63.5 M39.0078,48.5 L52.0078,63.5" fill="none" style="stroke:#2D74BA;stroke-width:0.5;"/></g><g class="participant participant-tail" data-participant="u"><text fill="#AAAAAA" font-family="Arial" font-size="14" lengthAdjust="spacing" textLength="62.0156" x="5" y="606.8154">User TTY</text><ellipse cx="39.0078" cy="618.6172" fill="#1E2029" rx="8" ry="8" style="stroke:#2D74BA;stroke-width:0.5;"/><path d="M39.0078,626.6172 L39.0078,653.6172 M26.0078,634.6172 L52.0078,634.6172 M39.0078,653.6172 L26.0078,668.6172 M39.0078,653.6172 L52.0078,668.6172" fill="none" style="stroke:#2D74BA;stroke-width:0.5;"/></g><g class="participant participant-head" data-participant="ip"><rect fill="#1E2029" height="30.2969" rx="2.5" ry="2.5" style="stroke:#2D74BA;stroke-width:0.5;" width="139.2207" x="83.0156" y="50"/><text fill="#AAAAAA" font-family="Arial" font-size="14" lengthAdjust="spacing" textLength="125.2207" x="90.0156" y="69.9951">Items Process (IP)</text></g><g class="participant participant-tail" data-participant="ip"><rect fill="#1E2029" height="30.2969" rx="2.5" ry="2.5" style="stroke:#2D74BA;stroke-width:0.5;" width="139.2207" x="83.0156" y="593.8203"/><text fill="#AAAAAA" font-family="Arial" font-size="14" lengthAdjust="spacing" textLength="125.2207" x="90.0156" y="613.8154">Items Process (IP)</text></g><g class="participant participant-head" data-participant="si"><rect fill="#1E2029" height="30.2969" rx="2.5" ry="2.5" style="stroke:#2D74BA;stroke-width:0.5;" width="86.9668" x="232.2363" y="50"/><text fill="#AAAAAA" font-family="Arial" font-size="14" lengthAdjust="spacing" textLength="72.9668" x="239.2363" y="69.9951">FZF.STDIN</text></g><g class="participant participant-tail" data-participant="si"><rect fill="#1E2029" height="30.2969" rx="2.5" ry="2.5" style="stroke:#2D74BA;stroke-width:0.5;" width="86.9668" x="232.2363" y="593.8203"/><text fill="#AAAAAA" font-family="Arial" font-size="14" lengthAdjust="spacing" textLength="72.9668" x="239.2363" y="613.8154">FZF.STDIN</text></g><g class="participant participant-head" data-participant="f"><rect fill="#1E2029" height="30.2969" rx="2.5" ry="2.5" style="stroke:#2D74BA;stroke-width:0.5;" width="39.6963" x="329.2031" y="50"/><text fill="#AAAAAA" font-family="Arial" font-size="14" lengthAdjust="spacing" textLength="25.6963" x="336.2031" y="69.9951">FZF</text></g><g class="participant participant-tail" data-participant="f"><rect fill="#1E2029" height="30.2969" rx="2.5" ry="2.5" style="stroke:#2D74BA;stroke-width:0.5;" width="39.6963" x="329.2031" y="593.8203"/><text fill="#AAAAAA" font-family="Arial" font-size="14" lengthAdjust="spacing" textLength="25.6963" x="336.2031" y="613.8154">FZF</text></g><g class="participant participant-head" data-participant="soi"><rect fill="#1E2029" height="30.2969" rx="2.5" ry="2.5" style="stroke:#2D74BA;stroke-width:0.5;" width="102.1836" x="421.6621" y="50"/><text fill="#AAAAAA" font-family="Arial" font-size="14" lengthAdjust="spacing" textLength="88.1836" x="428.6621" y="69.9951">FZF.STDOUT</text></g><g class="participant participant-tail" data-participant="soi"><rect fill="#1E2029" height="30.2969" rx="2.5" ry="2.5" style="stroke:#2D74BA;stroke-width:0.5;" width="102.1836" x="421.6621" y="593.8203"/><text fill="#AAAAAA" font-family="Arial" font-size="14" lengthAdjust="spacing" textLength="88.1836" x="428.6621" y="613.8154">FZF.STDOUT</text></g><path d="M295,96.2969 L295,166.2969 L401,166.2969 L401,106.2969 L391,96.2969 L295,96.2969" fill="#1E2029" style="stroke:#2D74BA;stroke-width:0.5;"/><path d="M391,96.2969 L391,106.2969 L401,106.2969 L391,96.2969" fill="#1E2029" style="stroke:#2D74BA;stroke-width:0.5;"/><text fill="#AAAAAA" font-family="Arial" font-size="13" lengthAdjust="spacing" textLength="85.668" x="301" y="113.3638">FZF starts up</text><text fill="#AAAAAA" font-family="Arial" font-size="13" lengthAdjust="spacing" textLength="71.0049" x="301" y="128.4966">reads from</text><text fill="#AAAAAA" font-family="Arial" font-size="13" lengthAdjust="spacing" textLength="32.646" x="301" y="143.6294">- TTY</text><text fill="#AAAAAA" font-family="Arial" font-size="13" lengthAdjust="spacing" textLength="78.5205" x="301" y="158.7622">- IP.STDOUT</text><g class="message" data-participant-1="ip" data-participant-2="si"><polygon fill="#00B2E2" points="263.7197,219.2266,273.7197,223.2266,263.7197,227.2266,267.7197,223.2266" style="stroke:#00B2E2;stroke-width:1;"/><line style="stroke:#00B2E2;stroke-width:1;" x1="152.626" x2="269.7197" y1="223.2266" y2="223.2266"/><text fill="#AAAAAA" font-family="Arial" font-size="13" lengthAdjust="spacing" textLength="36.1436" x="159.626" y="187.895">items</text><text fill="#AAAAAA" font-family="Arial" font-size="13" lengthAdjust="spacing" textLength="37.394" x="159.626" y="203.0278">"hello</text><text fill="#AAAAAA" font-family="Arial" font-size="13" lengthAdjust="spacing" textLength="41.7739" x="159.626" y="218.1606">world"</text></g><g class="message" data-participant-1="si" data-participant-2="f"><polygon fill="#00B2E2" points="337.0513,248.3594,347.0513,252.3594,337.0513,256.3594,341.0513,252.3594" style="stroke:#00B2E2;stroke-width:1;"/><line style="stroke:#00B2E2;stroke-width:1;" x1="275.7197" x2="343.0513" y1="252.3594" y2="252.3594"/><text fill="#AAAAAA" font-family="Arial" font-size="13" lengthAdjust="spacing" textLength="36.1436" x="282.7197" y="247.2935">items</text></g><path d="M306,265.3594 L306,290.3594 L390,290.3594 L390,275.3594 L380,265.3594 L306,265.3594" fill="#1E2029" style="stroke:#2D74BA;stroke-width:0.5;"/><path d="M380,265.3594 L380,275.3594 L390,275.3594 L380,265.3594" fill="#1E2029" style="stroke:#2D74BA;stroke-width:0.5;"/><text fill="#AAAAAA" font-family="Arial" font-size="13" lengthAdjust="spacing" textLength="63.2798" x="312" y="282.4263">rendering</text><g class="message" data-participant-1="f" data-participant-2="soi"><polygon fill="#00B2E2" points="460.7539,312.625,470.7539,316.625,460.7539,320.625,464.7539,316.625" style="stroke:#00B2E2;stroke-width:1;"/><line style="stroke:#00B2E2;stroke-width:1;" x1="349.0513" x2="466.7539" y1="316.625" y2="316.625"/><text fill="#AAAAAA" font-family="Arial" font-size="13" lengthAdjust="spacing" textLength="99.7026" x="356.0513" y="311.5591">rendered items</text></g><path d="M444,329.625 L444,369.625 L500,369.625 L500,339.625 L490,329.625 L444,329.625" fill="#1E2029" style="stroke:#2D74BA;stroke-width:0.5;"/><path d="M490,329.625 L490,339.625 L500,339.625 L490,329.625" fill="#1E2029" style="stroke:#2D74BA;stroke-width:0.5;"/><text fill="#AAAAAA" font-family="Arial" font-size="13" lengthAdjust="spacing" textLength="31.4146" x="450" y="346.6919">hello</text><text fill="#AAAAAA" font-family="Arial" font-size="13" lengthAdjust="spacing" textLength="35.7944" x="450" y="361.8247">world</text><g class="message" data-participant-1="u" data-participant-2="si"><polygon fill="#00B2E2" points="263.7197,392.0234,273.7197,396.0234,263.7197,400.0234,267.7197,396.0234" style="stroke:#00B2E2;stroke-width:1;"/><line style="stroke:#00B2E2;stroke-width:1;" x1="39.0078" x2="269.7197" y1="396.0234" y2="396.0234"/><text fill="#AAAAAA" font-family="Arial" font-size="13" lengthAdjust="spacing" textLength="96.5479" x="46.0078" y="390.9575">filter (e.g. 'he')</text></g><g class="message" data-participant-1="si" data-participant-2="f"><polygon fill="#00B2E2" points="337.0513,421.1563,347.0513,425.1563,337.0513,429.1563,341.0513,425.1563" style="stroke:#00B2E2;stroke-width:1;"/><line style="stroke:#00B2E2;stroke-width:1;" x1="275.7197" x2="343.0513" y1="425.1563" y2="425.1563"/><text fill="#AAAAAA" font-family="Arial" font-size="13" lengthAdjust="spacing" textLength="30.2402" x="282.7197" y="420.0903">filter</text></g><g class="message" data-participant-1="f" data-participant-2="soi"><polygon fill="#00B2E2" points="460.7539,450.2891,470.7539,454.2891,460.7539,458.2891,464.7539,454.2891" style="stroke:#00B2E2;stroke-width:1;"/><line style="stroke:#00B2E2;stroke-width:1;" x1="349.0513" x2="466.7539" y1="454.2891" y2="454.2891"/><text fill="#AAAAAA" font-family="Arial" font-size="13" lengthAdjust="spacing" textLength="86.7661" x="356.0513" y="449.2231">filtered items</text></g><path d="M446,467.2891 L446,492.2891 L498,492.2891 L498,477.2891 L488,467.2891 L446,467.2891" fill="#1E2029" style="stroke:#2D74BA;stroke-width:0.5;"/><path d="M488,467.2891 L488,477.2891 L498,477.2891 L488,467.2891" fill="#1E2029" style="stroke:#2D74BA;stroke-width:0.5;"/><text fill="#AAAAAA" font-family="Arial" font-size="13" lengthAdjust="spacing" textLength="31.4146" x="452" y="484.356">hello</text><g class="message" data-participant-1="u" data-participant-2="si"><polygon fill="#00B2E2" points="263.7197,514.5547,273.7197,518.5547,263.7197,522.5547,267.7197,518.5547" style="stroke:#00B2E2;stroke-width:1;"/><line style="stroke:#00B2E2;stroke-width:1;" x1="39.0078" x2="269.7197" y1="518.5547" y2="518.5547"/><text fill="#AAAAAA" font-family="Arial" font-size="13" lengthAdjust="spacing" textLength="38.6255" x="46.0078" y="513.4888">select</text></g><g class="message" data-participant-1="si" data-participant-2="f"><polygon fill="#00B2E2" points="337.0513,543.6875,347.0513,547.6875,337.0513,551.6875,341.0513,547.6875" style="stroke:#00B2E2;stroke-width:1;"/><line style="stroke:#00B2E2;stroke-width:1;" x1="275.7197" x2="343.0513" y1="547.6875" y2="547.6875"/><text fill="#AAAAAA" font-family="Arial" font-size="13" lengthAdjust="spacing" textLength="38.6255" x="282.7197" y="542.6216">select</text></g><g class="message" data-participant-1="f" data-participant-2="soi"><polygon fill="#00B2E2" points="460.7539,572.8203,470.7539,576.8203,460.7539,580.8203,464.7539,576.8203" style="stroke:#00B2E2;stroke-width:1;"/><line style="stroke:#00B2E2;stroke-width:1;" x1="349.0513" x2="466.7539" y1="576.8203" y2="576.8203"/><text fill="#AAAAAA" font-family="Arial" font-size="13" lengthAdjust="spacing" textLength="38.562" x="356.0513" y="571.7544">'hello'</text></g><!--SRC=[xPTDJnin48Rl-okiz10uW6WKMi41AUIZh8G2XN1ebOkpwmqkZhsrlGJ-VMUz7onAo3XIUwas4Wd9F3FsUiP-FUQ9ovHgkYBcaSPgpUMI95GO5fZQig3HqrAhJCQH4aeJgwaqO6BIDgWHIsWcx4H9EwKhHWQQKz6m3xHMww4ByEdaPD5ZlUtE9K8fRJf7bZzp-tgfTCnqYVH6N_kNWotKYDELaZ4AAuqWItX41D6M9pH2gCjyyQX6fZ-a6fdpK51ZC4HbM1Gb18EbKXABfLQfakWQ325hMedTq8XQkg26xQR6qg9Pdd21H9ae0LQ4WJSaJ2Wjqv1S1BjcK2R8aazLp3328iJDuXV32kqMjYfTCWp22IZhYATKMWymhwJTsFUCPSYGT_1iL2wnrDwptncJUKfU_C0Hd0XeCLJmDpZbKZ_qcYVm9psdUySIfejvxyGjv0z5B1e5nbBsDMK3Nt3e2uvzmT0Nd6AWqcYztg_vIb0i6G-6HH-SGDkafbQz4ltCUYUzinrou-C0aeDZJdPmh98UbApb1oMT1E6Kao4_x8hHVFjvmBbkuLX3kppWIhyyq4B3KB3MCPGijGpbd9xXLA5fEETq3SN2ICbABFnWpP_paySJ1ZMBB8izyMmXUEJ1reACegKeevmJPW_AvybBWKOvxtLloh0VxAGOHGivHh4tIKRHfYnxmvKqUpiKyhmdhk9NVvTQrRqztfHzVnVVix6u5lXWFcNQl1xi0G_tWSVxmE4-yDG7BguCA3ZZrgUugtl31-2M6m5aGbUDRF-q_wL_kWKQru4s49V9dK4SiH6X0NpSpl-3HhtjrDjElUtKsqwzxTJRJhtjrDjElUtK_rwdVWKxJmikdqhWpBss0GyoTl-mZIjVs-sttNxRxRVTVjlj_rVTVa3pQmhfm9GrcSr-T0Wr90lIjuE4T4BBLeR04HqnOyX1U7leA9w-noO_9yVtir4uTLR3trd1cF-QR7MvUPWLFee74avEefvXDicvypBvKy6SqhdKKFuGGwlLN1xbioNvPtXRnWXuUdHX-3dX-OJdilF8X51pkLPQn9t0yAEBf3I-7mRs5cmhBfT10W4KhtvXyGRjhCsuGLQCcN019KSEsF7oc7GVMVUm6h2mrA6Bhpj3Lp4Dowy_LPpoMnMdwz3k7m00]--></g></svg>