# https://github.com/mikedh/trimesh
v 1.00000000 -1.00000000 -1.00000000
v 1.00000000 -1.00000000 -1.00000000
v 1.00000000 -1.00000000 -1.00000000
v 1.00000000 -1.00000000 1.00000000
v 1.00000000 -1.00000000 1.00000000
v 1.00000000 -1.00000000 1.00000000
v -1.00000000 -1.00000000 1.00000000
v -1.00000000 -1.00000000 1.00000000
v -1.00000000 -1.00000000 1.00000000
v -1.00000000 -1.00000000 -1.00000000
v -1.00000000 -1.00000000 -1.00000000
v -1.00000000 -1.00000000 -1.00000000
v 1.00000000 1.00000000 -1.00000000
v 1.00000000 1.00000000 -1.00000000
v 1.00000000 1.00000000 -1.00000000
v 1.00000000 1.00000000 1.00000000
v 1.00000000 1.00000000 1.00000000
v 1.00000000 1.00000000 1.00000000
v -1.00000000 1.00000000 1.00000000
v -1.00000000 1.00000000 1.00000000
v -1.00000000 1.00000000 1.00000000
v -1.00000000 1.00000000 -1.00000000
v -1.00000000 1.00000000 -1.00000000
v -1.00000000 1.00000000 -1.00000000
vn 0.00000000 -1.00000000 0.00000000
vn 1.00000000 0.00000000 0.00000000
vn 0.00000000 0.00000000 -1.00000000
vn 1.00000000 0.00000000 0.00000000
vn -0.00000000 -0.00000000 1.00000000
vn 0.00000000 -1.00000000 0.00000000
vn 0.00000000 -1.00000000 0.00000000
vn -0.00000000 -0.00000000 1.00000000
vn -1.00000000 -0.00000000 -0.00000000
vn 0.00000000 0.00000000 -1.00000000
vn -1.00000000 -0.00000000 -0.00000000
vn 0.00000000 -1.00000000 0.00000000
vn 1.00000000 0.00000000 0.00000000
vn 0.00000000 1.00000000 0.00000000
vn 0.00000000 0.00000000 -1.00000000
vn 0.00000000 1.00000000 0.00000000
vn 1.00000000 0.00000000 0.00000000
vn -0.00000000 -0.00000000 1.00000000
vn 0.00000000 1.00000000 0.00000000
vn -0.00000000 -0.00000000 1.00000000
vn -1.00000000 -0.00000000 -0.00000000
vn 0.00000000 1.00000000 0.00000000
vn -1.00000000 -0.00000000 -0.00000000
vn 0.00000000 0.00000000 -1.00000000
f 1//1 6//6 7//7
f 14//14 22//22 19//19
f 2//2 13//13 17//17
f 5//5 18//18 20//20
f 9//9 21//21 23//23
f 15//15 3//3 10//10
f 7//7 12//12 1//1
f 19//19 16//16 14//14
f 17//17 4//4 2//2
f 20//20 8//8 5//5
f 23//23 11//11 9//9
f 10//10 24//24 15//15

