<?xml version="1.0" encoding="UTF-8"?>
<svg width="315px" height="315px" viewBox="0 0 315 315" version="1.1" xmlns="http://www.w3.org/2000/svg" xmlns:xlink="http://www.w3.org/1999/xlink">
    <title>combination</title>
    <g id="Page-1" stroke="none" stroke-width="1" fill="none" fill-rule="evenodd">
        <g id="pytdi" transform="translate(-50.000000, -43.000000)" fill="#FFFFFF">
            <path d="M238.048889,256.280185 L290.651487,267.044514 L250.478465,302.667996 C249.114836,303.877196 247.029145,303.752006 245.819945,302.388377 C245.480043,302.005066 245.234054,301.547881 245.101459,301.053029 L242.77761,292.382188 L120.640884,325.282441 C119.303173,339.513813 109.312213,352.075948 94.6958649,355.992387 C75.9178581,361.023938 56.6163972,349.880235 51.5848454,331.102228 C46.5532937,312.324221 57.6969973,293.02276 76.4750041,287.991208 C91.2010239,284.045383 106.248965,290.047264 114.484147,301.877639 L236.499286,269.011155 L239.61761,280.588188 L234.199748,260.367291 C233.72804,258.606853 234.772763,256.797341 236.533201,256.325633 C237.028053,256.193037 237.546981,256.177478 238.048889,256.280185 Z M179.356569,107.654874 L230.29392,124.633991 C230.779939,124.795997 231.221564,125.068936 231.583821,125.431193 C232.82482,126.672193 232.870783,128.655693 231.72171,129.951692 L231.583821,130.098098 L225.24027,136.441731 L313.636693,225.070634 C315.579038,224.138694 317.635027,223.372575 319.79172,222.794691 C338.569727,217.763139 357.871187,228.906843 362.902739,247.68485 C367.934291,266.462857 356.790587,285.764317 338.012581,290.795869 C319.234574,295.827421 299.933113,284.683717 294.901561,265.90571 C292.723705,257.777843 293.576288,249.551905 296.7667,242.427532 L208.128426,153.553148 L201.799794,159.882126 C201.489288,160.192632 201.12047,160.437516 200.715367,160.603168 L200.509893,160.679328 C198.840501,161.235792 197.040744,160.383885 196.399859,158.768224 L196.335686,158.592225 L179.356569,107.654874 Z M141.231315,45.1566552 C160.009322,40.1251035 179.310782,51.2688071 184.342334,70.0468139 C189.373886,88.8248208 178.230182,108.126282 159.452176,113.157833 C157.952603,113.559643 156.449693,113.858298 154.950978,114.058148 L122.796139,234.697088 L131.484601,237.025442 C133.245039,237.49715 134.289761,239.306662 133.818053,241.0671 C133.685458,241.561953 133.439469,242.019138 133.099568,242.402448 L97.4760862,282.575471 L86.7117573,229.972872 C86.3463739,228.187334 87.4976366,226.443668 89.2831746,226.078284 C89.7850824,225.975577 90.3040103,225.991136 90.7988627,226.123732 L99.420712,228.433661 L131.315229,108.772257 C124.201801,104.205081 118.701431,97.0763424 116.341156,88.2676747 C111.309604,69.4896679 122.453308,50.188207 141.231315,45.1566552 Z" id="combination"></path>
        </g>
    </g>
</svg>
